<ttFont>
    <TTGlyph name="A" xMin="55" yMin="-1" xMax="1766" yMax="1486">
      <contour>
        <pt x="601" y="1111" on="1"/>
        <pt x="429" y="1486" on="1"/>
        <pt x="1038" y="1486" on="1"/>
        <pt x="1766" y="-1" on="1"/>
        <pt x="1113" y="-1" on="1"/>
        <pt x="1003" y="237" on="1"/>
        <pt x="417" y="237" on="1"/>
        <pt x="308" y="-1" on="1"/>
        <pt x="55" y="-1" on="1"/>
      </contour>
      <contour>
        <pt x="898" y="466" on="1"/>
        <pt x="710" y="874" on="1"/>
        <pt x="523" y="466" on="1"/>
      </contour>
    </TTGlyph>
    <TTGlyph name="AE" xMin="3" yMin="-1" xMax="2292" yMax="1486">
      <contour>
        <pt x="905" y="1242" on="1"/>
        <pt x="804" y="1486" on="1"/>
        <pt x="2292" y="1486" on="1"/>
        <pt x="2292" y="1257" on="1"/>
        <pt x="1615" y="1257" on="1"/>
        <pt x="1614" y="856" on="1"/>
        <pt x="2132" y="856" on="1"/>
        <pt x="2132" y="627" on="1"/>
        <pt x="1614" y="627" on="1"/>
        <pt x="1614" y="229" on="1"/>
        <pt x="2292" y="230" on="1"/>
        <pt x="2292" y="0" on="1"/>
        <pt x="1036" y="0" on="1"/>
        <pt x="1036" y="237" on="1"/>
        <pt x="479" y="237" on="1"/>
        <pt x="312" y="0" on="1"/>
        <pt x="3" y="-1" on="1"/>
      </contour>
      <contour>
        <pt x="1036" y="466" on="1"/>
        <pt x="1036" y="1026" on="1"/>
        <pt x="640" y="466" on="1"/>
      </contour>
    </TTGlyph>
    <TTGlyph name="Aacute" xMin="55" yMin="-1" xMax="1766" yMax="1920">
      <contour>
        <pt x="352" y="1684" on="1"/>
        <pt x="418" y="1699" on="0"/>
        <pt x="569" y="1748" on="0"/>
        <pt x="719" y="1810" on="0"/>
        <pt x="858" y="1882" on="0"/>
        <pt x="911" y="1920" on="1"/>
        <pt x="1065" y="1732" on="1"/>
        <pt x="926" y="1663" on="0"/>
        <pt x="595" y="1582" on="0"/>
        <pt x="417" y="1571" on="1"/>
      </contour>
      <contour>
        <pt x="601" y="1111" on="1"/>
        <pt x="429" y="1486" on="1"/>
        <pt x="1038" y="1486" on="1"/>
        <pt x="1766" y="-1" on="1"/>
        <pt x="1113" y="-1" on="1"/>
        <pt x="1003" y="237" on="1"/>
        <pt x="417" y="237" on="1"/>
        <pt x="308" y="-1" on="1"/>
        <pt x="55" y="-1" on="1"/>
      </contour>
      <contour>
        <pt x="898" y="466" on="1"/>
        <pt x="710" y="874" on="1"/>
        <pt x="523" y="466" on="1"/>
      </contour>
    </TTGlyph>
    <TTGlyph name="Acircumflex" xMin="55" yMin="-1" xMax="1766" yMax="1920">
      <contour>
        <pt x="242" y="1685" on="1"/>
        <pt x="385" y="1733" on="0"/>
        <pt x="611" y="1853" on="0"/>
        <pt x="708" y="1920" on="1"/>
        <pt x="805" y="1853" on="0"/>
        <pt x="1030" y="1733" on="0"/>
        <pt x="1175" y="1685" on="1"/>
        <pt x="1109" y="1571" on="1"/>
        <pt x="1013" y="1581" on="0"/>
        <pt x="802" y="1632" on="0"/>
        <pt x="708" y="1665" on="1"/>
        <pt x="614" y="1632" on="0"/>
        <pt x="403" y="1581" on="0"/>
        <pt x="307" y="1571" on="1"/>
      </contour>
      <contour>
        <pt x="601" y="1111" on="1"/>
        <pt x="429" y="1486" on="1"/>
        <pt x="1038" y="1486" on="1"/>
        <pt x="1766" y="-1" on="1"/>
        <pt x="1113" y="-1" on="1"/>
        <pt x="1003" y="237" on="1"/>
        <pt x="417" y="237" on="1"/>
        <pt x="308" y="-1" on="1"/>
        <pt x="55" y="-1" on="1"/>
      </contour>
      <contour>
        <pt x="898" y="466" on="1"/>
        <pt x="710" y="874" on="1"/>
        <pt x="523" y="466" on="1"/>
      </contour>
    </TTGlyph>
    <TTGlyph name="Adieresis" xMin="40" yMin="-1" xMax="1766" yMax="1919">
      <contour>
        <pt x="1105" y="1585" on="1"/>
        <pt x="1034" y="1585" on="0"/>
        <pt x="936" y="1611" on="0"/>
        <pt x="873" y="1657" on="0"/>
        <pt x="845" y="1717" on="0"/>
        <pt x="845" y="1752" on="1"/>
        <pt x="845" y="1786" on="0"/>
        <pt x="873" y="1847" on="0"/>
        <pt x="936" y="1893" on="0"/>
        <pt x="1034" y="1919" on="0"/>
        <pt x="1105" y="1919" on="1"/>
        <pt x="1175" y="1919" on="0"/>
        <pt x="1277" y="1893" on="0"/>
        <pt x="1341" y="1847" on="0"/>
        <pt x="1372" y="1786" on="0"/>
        <pt x="1372" y="1752" on="1"/>
        <pt x="1372" y="1717" on="0"/>
        <pt x="1341" y="1657" on="0"/>
        <pt x="1277" y="1611" on="0"/>
        <pt x="1175" y="1585" on="0"/>
      </contour>
      <contour>
        <pt x="306" y="1585" on="1"/>
        <pt x="235" y="1585" on="0"/>
        <pt x="135" y="1611" on="0"/>
        <pt x="70" y="1657" on="0"/>
        <pt x="40" y="1717" on="0"/>
        <pt x="40" y="1752" on="1"/>
        <pt x="40" y="1786" on="0"/>
        <pt x="70" y="1847" on="0"/>
        <pt x="135" y="1893" on="0"/>
        <pt x="235" y="1919" on="0"/>
        <pt x="306" y="1919" on="1"/>
        <pt x="376" y="1919" on="0"/>
        <pt x="478" y="1893" on="0"/>
        <pt x="542" y="1847" on="0"/>
        <pt x="573" y="1786" on="0"/>
        <pt x="573" y="1752" on="1"/>
        <pt x="573" y="1717" on="0"/>
        <pt x="542" y="1657" on="0"/>
        <pt x="478" y="1611" on="0"/>
        <pt x="376" y="1585" on="0"/>
      </contour>
      <contour>
        <pt x="601" y="1111" on="1"/>
        <pt x="429" y="1486" on="1"/>
        <pt x="1038" y="1486" on="1"/>
        <pt x="1766" y="-1" on="1"/>
        <pt x="1113" y="-1" on="1"/>
        <pt x="1003" y="237" on="1"/>
        <pt x="417" y="237" on="1"/>
        <pt x="308" y="-1" on="1"/>
        <pt x="55" y="-1" on="1"/>
      </contour>
      <contour>
        <pt x="898" y="466" on="1"/>
        <pt x="710" y="874" on="1"/>
        <pt x="523" y="466" on="1"/>
      </contour>
    </TTGlyph>
    <TTGlyph name="Agrave" xMin="55" yMin="-1" xMax="1766" yMax="1920">
      <contour>
        <pt x="506" y="1920" on="1"/>
        <pt x="559" y="1882" on="0"/>
        <pt x="698" y="1810" on="0"/>
        <pt x="848" y="1748" on="0"/>
        <pt x="999" y="1699" on="0"/>
        <pt x="1065" y="1684" on="1"/>
        <pt x="1000" y="1571" on="1"/>
        <pt x="822" y="1582" on="0"/>
        <pt x="491" y="1663" on="0"/>
        <pt x="352" y="1732" on="1"/>
      </contour>
      <contour>
        <pt x="601" y="1111" on="1"/>
        <pt x="429" y="1486" on="1"/>
        <pt x="1038" y="1486" on="1"/>
        <pt x="1766" y="-1" on="1"/>
        <pt x="1113" y="-1" on="1"/>
        <pt x="1003" y="237" on="1"/>
        <pt x="417" y="237" on="1"/>
        <pt x="308" y="-1" on="1"/>
        <pt x="55" y="-1" on="1"/>
      </contour>
      <contour>
        <pt x="898" y="466" on="1"/>
        <pt x="710" y="874" on="1"/>
        <pt x="523" y="466" on="1"/>
      </contour>
    </TTGlyph>
    <TTGlyph name="Aring" xMin="55" yMin="-1" xMax="1766" yMax="1892">
      <contour>
        <pt x="601" y="1111" on="1"/>
        <pt x="448" y="1443" on="1"/>
        <pt x="368" y="1479" on="0"/>
        <pt x="296" y="1586" on="0"/>
        <pt x="296" y="1642" on="1"/>
        <pt x="296" y="1688" on="0"/>
        <pt x="345" y="1777" on="0"/>
        <pt x="450" y="1848" on="0"/>
        <pt x="616" y="1892" on="0"/>
        <pt x="732" y="1892" on="1"/>
        <pt x="848" y="1892" on="0"/>
        <pt x="1014" y="1848" on="0"/>
        <pt x="1119" y="1777" on="0"/>
        <pt x="1168" y="1688" on="0"/>
        <pt x="1168" y="1642" on="1"/>
        <pt x="1168" y="1592" on="0"/>
        <pt x="1111" y="1497" on="0"/>
        <pt x="1050" y="1461" on="1"/>
        <pt x="1766" y="-1" on="1"/>
        <pt x="1113" y="-1" on="1"/>
        <pt x="1003" y="237" on="1"/>
        <pt x="417" y="237" on="1"/>
        <pt x="308" y="-1" on="1"/>
        <pt x="55" y="-1" on="1"/>
      </contour>
      <contour>
        <pt x="732" y="1513" on="1"/>
        <pt x="775" y="1513" on="0"/>
        <pt x="841" y="1535" on="0"/>
        <pt x="885" y="1571" on="0"/>
        <pt x="908" y="1617" on="0"/>
        <pt x="908" y="1642" on="1"/>
        <pt x="908" y="1667" on="0"/>
        <pt x="885" y="1713" on="0"/>
        <pt x="841" y="1749" on="0"/>
        <pt x="775" y="1771" on="0"/>
        <pt x="732" y="1771" on="1"/>
        <pt x="689" y="1771" on="0"/>
        <pt x="623" y="1749" on="0"/>
        <pt x="579" y="1713" on="0"/>
        <pt x="556" y="1667" on="0"/>
        <pt x="556" y="1642" on="1"/>
        <pt x="556" y="1617" on="0"/>
        <pt x="579" y="1571" on="0"/>
        <pt x="623" y="1535" on="0"/>
        <pt x="689" y="1513" on="0"/>
      </contour>
      <contour>
        <pt x="898" y="466" on="1"/>
        <pt x="710" y="874" on="1"/>
        <pt x="523" y="466" on="1"/>
      </contour>
    </TTGlyph>
    <TTGlyph name="Atilde" xMin="55" yMin="-1" xMax="1766" yMax="1904">
      <contour>
        <pt x="239" y="1716" on="1"/>
        <pt x="278" y="1771" on="0"/>
        <pt x="356" y="1844" on="0"/>
        <pt x="434" y="1887" on="0"/>
        <pt x="515" y="1904" on="0"/>
        <pt x="559" y="1904" on="1"/>
        <pt x="616" y="1904" on="0"/>
        <pt x="705" y="1881" on="0"/>
        <pt x="785" y="1854" on="0"/>
        <pt x="865" y="1832" on="0"/>
        <pt x="913" y="1832" on="1"/>
        <pt x="937" y="1832" on="0"/>
        <pt x="981" y="1839" on="0"/>
        <pt x="1026" y="1856" on="0"/>
        <pt x="1074" y="1884" on="0"/>
        <pt x="1103" y="1904" on="1"/>
        <pt x="1178" y="1808" on="1"/>
        <pt x="1139" y="1753" on="0"/>
        <pt x="1061" y="1681" on="0"/>
        <pt x="982" y="1638" on="0"/>
        <pt x="901" y="1621" on="0"/>
        <pt x="858" y="1621" on="1"/>
        <pt x="801" y="1621" on="0"/>
        <pt x="712" y="1643" on="0"/>
        <pt x="632" y="1670" on="0"/>
        <pt x="552" y="1693" on="0"/>
        <pt x="504" y="1693" on="1"/>
        <pt x="480" y="1693" on="0"/>
        <pt x="436" y="1686" on="0"/>
        <pt x="391" y="1669" on="0"/>
        <pt x="343" y="1641" on="0"/>
        <pt x="314" y="1621" on="1"/>
      </contour>
      <contour>
        <pt x="601" y="1111" on="1"/>
        <pt x="429" y="1486" on="1"/>
        <pt x="1038" y="1486" on="1"/>
        <pt x="1766" y="-1" on="1"/>
        <pt x="1113" y="-1" on="1"/>
        <pt x="1003" y="237" on="1"/>
        <pt x="417" y="237" on="1"/>
        <pt x="308" y="-1" on="1"/>
        <pt x="55" y="-1" on="1"/>
      </contour>
      <contour>
        <pt x="898" y="466" on="1"/>
        <pt x="710" y="874" on="1"/>
        <pt x="523" y="466" on="1"/>
      </contour>
    </TTGlyph>
    <TTGlyph name="B" xMin="190" yMin="0" xMax="1758" yMax="1486">
      <contour>
        <pt x="190" y="1486" on="1"/>
        <pt x="976" y="1486" on="1"/>
        <pt x="1142" y="1486" on="0"/>
        <pt x="1391" y="1430" on="0"/>
        <pt x="1558" y="1327" on="0"/>
        <pt x="1642" y="1182" on="0"/>
        <pt x="1642" y="1093" on="1"/>
        <pt x="1642" y="1004" on="0"/>
        <pt x="1543" y="847" on="0"/>
        <pt x="1448" y="790" on="1"/>
        <pt x="1604" y="745" on="0"/>
        <pt x="1758" y="571" on="0"/>
        <pt x="1758" y="445" on="1"/>
        <pt x="1758" y="359" on="0"/>
        <pt x="1675" y="199" on="0"/>
        <pt x="1510" y="75" on="0"/>
        <pt x="1262" y="0" on="0"/>
        <pt x="1096" y="0" on="1"/>
        <pt x="190" y="0" on="1"/>
      </contour>
      <contour>
        <pt x="830" y="882" on="1"/>
        <pt x="912" y="882" on="0"/>
        <pt x="1024" y="913" on="0"/>
        <pt x="1091" y="967" on="0"/>
        <pt x="1120" y="1037" on="0"/>
        <pt x="1120" y="1075" on="1"/>
        <pt x="1120" y="1113" on="0"/>
        <pt x="1091" y="1183" on="0"/>
        <pt x="1024" y="1236" on="0"/>
        <pt x="912" y="1268" on="0"/>
        <pt x="830" y="1268" on="1"/>
        <pt x="769" y="1268" on="1"/>
        <pt x="768" y="882" on="1"/>
      </contour>
      <contour>
        <pt x="830" y="218" on="1"/>
        <pt x="919" y="218" on="0"/>
        <pt x="1041" y="256" on="0"/>
        <pt x="1117" y="322" on="0"/>
        <pt x="1151" y="411" on="0"/>
        <pt x="1151" y="462" on="1"/>
        <pt x="1151" y="507" on="0"/>
        <pt x="1115" y="593" on="0"/>
        <pt x="1044" y="660" on="0"/>
        <pt x="940" y="701" on="0"/>
        <pt x="872" y="701" on="1"/>
        <pt x="768" y="701" on="1"/>
        <pt x="768" y="218" on="1"/>
      </contour>
    </TTGlyph>
    <TTGlyph name="C" xMin="103" yMin="-25" xMax="1551" yMax="1510">
      <contour>
        <pt x="103" y="742" on="1"/>
        <pt x="103" y="848" on="0"/>
        <pt x="158" y="1045" on="0"/>
        <pt x="264" y="1215" on="0"/>
        <pt x="418" y="1355" on="0"/>
        <pt x="615" y="1455" on="0"/>
        <pt x="853" y="1510" on="0"/>
        <pt x="990" y="1510" on="1"/>
        <pt x="1078" y="1510" on="0"/>
        <pt x="1239" y="1488" on="0"/>
        <pt x="1381" y="1449" on="0"/>
        <pt x="1502" y="1398" on="0"/>
        <pt x="1551" y="1370" on="1"/>
        <pt x="1465" y="1202" on="1"/>
        <pt x="1409" y="1229" on="0"/>
        <pt x="1266" y="1266" on="0"/>
        <pt x="1189" y="1266" on="1"/>
        <pt x="1086" y="1266" on="0"/>
        <pt x="910" y="1192" on="0"/>
        <pt x="782" y="1056" on="0"/>
        <pt x="709" y="863" on="0"/>
        <pt x="709" y="743" on="1"/>
        <pt x="709" y="624" on="0"/>
        <pt x="781" y="431" on="0"/>
        <pt x="908" y="294" on="0"/>
        <pt x="1083" y="219" on="0"/>
        <pt x="1185" y="219" on="1"/>
        <pt x="1257" y="219" on="0"/>
        <pt x="1401" y="254" on="0"/>
        <pt x="1461" y="283" on="1"/>
        <pt x="1547" y="115" on="1"/>
        <pt x="1498" y="86" on="0"/>
        <pt x="1378" y="36" on="0"/>
        <pt x="1238" y="-3" on="0"/>
        <pt x="1078" y="-25" on="0"/>
        <pt x="990" y="-25" on="1"/>
        <pt x="785" y="-25" on="0"/>
        <pt x="456" y="96" on="0"/>
        <pt x="226" y="305" on="0"/>
        <pt x="103" y="584" on="0"/>
      </contour>
    </TTGlyph>
    <TTGlyph name="Ccedilla" xMin="103" yMin="-514" xMax="1551" yMax="1510">
      <contour>
        <pt x="103" y="742" on="1"/>
        <pt x="103" y="848" on="0"/>
        <pt x="158" y="1045" on="0"/>
        <pt x="264" y="1215" on="0"/>
        <pt x="418" y="1355" on="0"/>
        <pt x="615" y="1455" on="0"/>
        <pt x="853" y="1510" on="0"/>
        <pt x="990" y="1510" on="1"/>
        <pt x="1078" y="1510" on="0"/>
        <pt x="1239" y="1488" on="0"/>
        <pt x="1381" y="1449" on="0"/>
        <pt x="1502" y="1398" on="0"/>
        <pt x="1551" y="1370" on="1"/>
        <pt x="1465" y="1202" on="1"/>
        <pt x="1409" y="1229" on="0"/>
        <pt x="1266" y="1266" on="0"/>
        <pt x="1189" y="1266" on="1"/>
        <pt x="1086" y="1266" on="0"/>
        <pt x="910" y="1192" on="0"/>
        <pt x="782" y="1056" on="0"/>
        <pt x="709" y="863" on="0"/>
        <pt x="709" y="743" on="1"/>
        <pt x="709" y="624" on="0"/>
        <pt x="781" y="431" on="0"/>
        <pt x="908" y="294" on="0"/>
        <pt x="1083" y="219" on="0"/>
        <pt x="1185" y="219" on="1"/>
        <pt x="1257" y="219" on="0"/>
        <pt x="1401" y="254" on="0"/>
        <pt x="1461" y="283" on="1"/>
        <pt x="1547" y="115" on="1"/>
        <pt x="1498" y="86" on="0"/>
        <pt x="1378" y="36" on="0"/>
        <pt x="1238" y="-3" on="0"/>
        <pt x="1078" y="-25" on="0"/>
        <pt x="990" y="-25" on="1"/>
        <pt x="980" y="-25" on="0"/>
        <pt x="962" y="-25" on="0"/>
        <pt x="953" y="-24" on="1"/>
        <pt x="929" y="-121" on="1"/>
        <pt x="952" y="-121" on="1"/>
        <pt x="1036" y="-121" on="0"/>
        <pt x="1154" y="-142" on="0"/>
        <pt x="1228" y="-183" on="0"/>
        <pt x="1261" y="-243" on="0"/>
        <pt x="1261" y="-282" on="1"/>
        <pt x="1261" y="-328" on="0"/>
        <pt x="1202" y="-412" on="0"/>
        <pt x="1087" y="-476" on="0"/>
        <pt x="915" y="-514" on="0"/>
        <pt x="801" y="-514" on="1"/>
        <pt x="776" y="-514" on="0"/>
        <pt x="737" y="-513" on="0"/>
        <pt x="704" y="-511" on="0"/>
        <pt x="673" y="-508" on="0"/>
        <pt x="657" y="-505" on="1"/>
        <pt x="683" y="-392" on="1"/>
        <pt x="699" y="-394" on="0"/>
        <pt x="724" y="-397" on="0"/>
        <pt x="746" y="-399" on="0"/>
        <pt x="767" y="-399" on="0"/>
        <pt x="780" y="-399" on="1"/>
        <pt x="870" y="-399" on="0"/>
        <pt x="959" y="-339" on="0"/>
        <pt x="959" y="-298" on="1"/>
        <pt x="959" y="-266" on="0"/>
        <pt x="898" y="-225" on="0"/>
        <pt x="824" y="-225" on="1"/>
        <pt x="722" y="-225" on="1"/>
        <pt x="780" y="-6" on="1"/>
        <pt x="621" y="22" on="0"/>
        <pt x="370" y="161" on="0"/>
        <pt x="196" y="359" on="0"/>
        <pt x="103" y="605" on="0"/>
      </contour>
    </TTGlyph>
    <TTGlyph name="D" xMin="190" yMin="0" xMax="1805" yMax="1486">
      <contour>
        <pt x="190" y="1486" on="1"/>
        <pt x="801" y="1486" on="1"/>
        <pt x="1059" y="1486" on="0"/>
        <pt x="1437" y="1389" on="0"/>
        <pt x="1685" y="1201" on="0"/>
        <pt x="1805" y="927" on="0"/>
        <pt x="1805" y="750" on="1"/>
        <pt x="1805" y="592" on="0"/>
        <pt x="1685" y="319" on="0"/>
        <pt x="1437" y="116" on="0"/>
        <pt x="1059" y="0" on="0"/>
        <pt x="801" y="0" on="1"/>
        <pt x="190" y="0" on="1"/>
      </contour>
      <contour>
        <pt x="768" y="218" on="1"/>
        <pt x="868" y="218" on="0"/>
        <pt x="1028" y="280" on="0"/>
        <pt x="1139" y="410" on="0"/>
        <pt x="1198" y="611" on="0"/>
        <pt x="1198" y="751" on="1"/>
        <pt x="1198" y="890" on="0"/>
        <pt x="1138" y="1086" on="0"/>
        <pt x="1026" y="1211" on="0"/>
        <pt x="867" y="1268" on="0"/>
        <pt x="769" y="1268" on="1"/>
      </contour>
    </TTGlyph>
    <TTGlyph name="E" xMin="190" yMin="0" xMax="1446" yMax="1486">
      <contour>
        <pt x="190" y="1486" on="1"/>
        <pt x="1446" y="1486" on="1"/>
        <pt x="1446" y="1257" on="1"/>
        <pt x="769" y="1257" on="1"/>
        <pt x="768" y="856" on="1"/>
        <pt x="1286" y="856" on="1"/>
        <pt x="1286" y="627" on="1"/>
        <pt x="768" y="627" on="1"/>
        <pt x="768" y="229" on="1"/>
        <pt x="1446" y="229" on="1"/>
        <pt x="1446" y="0" on="1"/>
        <pt x="190" y="0" on="1"/>
      </contour>
    </TTGlyph>
    <TTGlyph name="Eacute" xMin="190" yMin="0" xMax="1446" yMax="1920">
      <contour>
        <pt x="462" y="1684" on="1"/>
        <pt x="528" y="1699" on="0"/>
        <pt x="679" y="1748" on="0"/>
        <pt x="829" y="1810" on="0"/>
        <pt x="968" y="1882" on="0"/>
        <pt x="1021" y="1920" on="1"/>
        <pt x="1175" y="1732" on="1"/>
        <pt x="1036" y="1663" on="0"/>
        <pt x="705" y="1582" on="0"/>
        <pt x="527" y="1571" on="1"/>
      </contour>
      <contour>
        <pt x="190" y="1486" on="1"/>
        <pt x="1446" y="1486" on="1"/>
        <pt x="1446" y="1257" on="1"/>
        <pt x="769" y="1257" on="1"/>
        <pt x="768" y="856" on="1"/>
        <pt x="1286" y="856" on="1"/>
        <pt x="1286" y="627" on="1"/>
        <pt x="768" y="627" on="1"/>
        <pt x="768" y="229" on="1"/>
        <pt x="1446" y="229" on="1"/>
        <pt x="1446" y="0" on="1"/>
        <pt x="190" y="0" on="1"/>
      </contour>
    </TTGlyph>
    <TTGlyph name="Ecircumflex" xMin="190" yMin="0" xMax="1446" yMax="1920">
      <contour>
        <pt x="352" y="1685" on="1"/>
        <pt x="495" y="1733" on="0"/>
        <pt x="721" y="1853" on="0"/>
        <pt x="818" y="1920" on="1"/>
        <pt x="915" y="1853" on="0"/>
        <pt x="1140" y="1733" on="0"/>
        <pt x="1285" y="1685" on="1"/>
        <pt x="1219" y="1571" on="1"/>
        <pt x="1123" y="1581" on="0"/>
        <pt x="912" y="1632" on="0"/>
        <pt x="818" y="1665" on="1"/>
        <pt x="724" y="1632" on="0"/>
        <pt x="513" y="1581" on="0"/>
        <pt x="417" y="1571" on="1"/>
      </contour>
      <contour>
        <pt x="190" y="1486" on="1"/>
        <pt x="1446" y="1486" on="1"/>
        <pt x="1446" y="1257" on="1"/>
        <pt x="769" y="1257" on="1"/>
        <pt x="768" y="856" on="1"/>
        <pt x="1286" y="856" on="1"/>
        <pt x="1286" y="627" on="1"/>
        <pt x="768" y="627" on="1"/>
        <pt x="768" y="229" on="1"/>
        <pt x="1446" y="229" on="1"/>
        <pt x="1446" y="0" on="1"/>
        <pt x="190" y="0" on="1"/>
      </contour>
    </TTGlyph>
    <TTGlyph name="Edieresis" xMin="150" yMin="0" xMax="1482" yMax="1919">
      <contour>
        <pt x="955" y="1752" on="1"/>
        <pt x="955" y="1786" on="0"/>
        <pt x="983" y="1847" on="0"/>
        <pt x="1046" y="1893" on="0"/>
        <pt x="1144" y="1919" on="0"/>
        <pt x="1215" y="1919" on="1"/>
        <pt x="1285" y="1919" on="0"/>
        <pt x="1387" y="1893" on="0"/>
        <pt x="1451" y="1847" on="0"/>
        <pt x="1482" y="1786" on="0"/>
        <pt x="1482" y="1752" on="1"/>
        <pt x="1482" y="1717" on="0"/>
        <pt x="1451" y="1657" on="0"/>
        <pt x="1387" y="1611" on="0"/>
        <pt x="1285" y="1585" on="0"/>
        <pt x="1215" y="1585" on="1"/>
        <pt x="1144" y="1585" on="0"/>
        <pt x="1046" y="1611" on="0"/>
        <pt x="983" y="1657" on="0"/>
        <pt x="955" y="1717" on="0"/>
      </contour>
      <contour>
        <pt x="416" y="1585" on="1"/>
        <pt x="345" y="1585" on="0"/>
        <pt x="245" y="1611" on="0"/>
        <pt x="180" y="1657" on="0"/>
        <pt x="150" y="1717" on="0"/>
        <pt x="150" y="1752" on="1"/>
        <pt x="150" y="1786" on="0"/>
        <pt x="180" y="1847" on="0"/>
        <pt x="245" y="1893" on="0"/>
        <pt x="345" y="1919" on="0"/>
        <pt x="416" y="1919" on="1"/>
        <pt x="486" y="1919" on="0"/>
        <pt x="588" y="1893" on="0"/>
        <pt x="652" y="1847" on="0"/>
        <pt x="683" y="1786" on="0"/>
        <pt x="683" y="1752" on="1"/>
        <pt x="683" y="1717" on="0"/>
        <pt x="652" y="1657" on="0"/>
        <pt x="588" y="1611" on="0"/>
        <pt x="486" y="1585" on="0"/>
      </contour>
      <contour>
        <pt x="190" y="1486" on="1"/>
        <pt x="1446" y="1486" on="1"/>
        <pt x="1446" y="1257" on="1"/>
        <pt x="769" y="1257" on="1"/>
        <pt x="768" y="856" on="1"/>
        <pt x="1286" y="856" on="1"/>
        <pt x="1286" y="627" on="1"/>
        <pt x="768" y="627" on="1"/>
        <pt x="768" y="229" on="1"/>
        <pt x="1446" y="229" on="1"/>
        <pt x="1446" y="0" on="1"/>
        <pt x="190" y="0" on="1"/>
      </contour>
    </TTGlyph>
    <TTGlyph name="Egrave" xMin="190" yMin="0" xMax="1446" yMax="1920">
      <contour>
        <pt x="616" y="1920" on="1"/>
        <pt x="669" y="1882" on="0"/>
        <pt x="808" y="1810" on="0"/>
        <pt x="958" y="1748" on="0"/>
        <pt x="1109" y="1699" on="0"/>
        <pt x="1175" y="1684" on="1"/>
        <pt x="1110" y="1571" on="1"/>
        <pt x="932" y="1582" on="0"/>
        <pt x="601" y="1663" on="0"/>
        <pt x="462" y="1732" on="1"/>
      </contour>
      <contour>
        <pt x="190" y="1486" on="1"/>
        <pt x="1446" y="1486" on="1"/>
        <pt x="1446" y="1257" on="1"/>
        <pt x="769" y="1257" on="1"/>
        <pt x="768" y="856" on="1"/>
        <pt x="1286" y="856" on="1"/>
        <pt x="1286" y="627" on="1"/>
        <pt x="768" y="627" on="1"/>
        <pt x="768" y="229" on="1"/>
        <pt x="1446" y="229" on="1"/>
        <pt x="1446" y="0" on="1"/>
        <pt x="190" y="0" on="1"/>
      </contour>
    </TTGlyph>
    <TTGlyph name="Eth" xMin="121" yMin="0" xMax="1907" yMax="1486">
      <contour>
        <pt x="292" y="660" on="1"/>
        <pt x="121" y="660" on="1"/>
        <pt x="121" y="842" on="1"/>
        <pt x="292" y="842" on="1"/>
        <pt x="292" y="1486" on="1"/>
        <pt x="903" y="1486" on="1"/>
        <pt x="1161" y="1486" on="0"/>
        <pt x="1539" y="1389" on="0"/>
        <pt x="1787" y="1201" on="0"/>
        <pt x="1907" y="927" on="0"/>
        <pt x="1907" y="750" on="1"/>
        <pt x="1907" y="592" on="0"/>
        <pt x="1787" y="319" on="0"/>
        <pt x="1539" y="116" on="0"/>
        <pt x="1161" y="0" on="0"/>
        <pt x="903" y="0" on="1"/>
        <pt x="292" y="0" on="1"/>
      </contour>
      <contour>
        <pt x="870" y="218" on="1"/>
        <pt x="970" y="218" on="0"/>
        <pt x="1130" y="280" on="0"/>
        <pt x="1241" y="410" on="0"/>
        <pt x="1300" y="611" on="0"/>
        <pt x="1300" y="751" on="1"/>
        <pt x="1300" y="890" on="0"/>
        <pt x="1240" y="1086" on="0"/>
        <pt x="1128" y="1211" on="0"/>
        <pt x="969" y="1268" on="0"/>
        <pt x="871" y="1268" on="1"/>
        <pt x="870" y="842" on="1"/>
        <pt x="1092" y="842" on="1"/>
        <pt x="1092" y="660" on="1"/>
        <pt x="870" y="660" on="1"/>
      </contour>
    </TTGlyph>
    <TTGlyph name="Euro" xMin="60" yMin="-23" xMax="1614" yMax="1510">
      <contour>
        <pt x="60" y="658" on="1"/>
        <pt x="275" y="658" on="1"/>
        <pt x="272" y="697" on="0"/>
        <pt x="272" y="738" on="1"/>
        <pt x="272" y="770" on="0"/>
        <pt x="275" y="803" on="1"/>
        <pt x="60" y="803" on="1"/>
        <pt x="60" y="992" on="1"/>
        <pt x="314" y="992" on="1"/>
        <pt x="352" y="1101" on="0"/>
        <pt x="492" y="1290" on="0"/>
        <pt x="691" y="1430" on="0"/>
        <pt x="946" y="1510" on="0"/>
        <pt x="1099" y="1510" on="1"/>
        <pt x="1173" y="1510" on="0"/>
        <pt x="1313" y="1489" on="0"/>
        <pt x="1436" y="1455" on="0"/>
        <pt x="1537" y="1408" on="0"/>
        <pt x="1572" y="1383" on="1"/>
        <pt x="1479" y="1208" on="1"/>
        <pt x="1452" y="1221" on="0"/>
        <pt x="1402" y="1241" on="0"/>
        <pt x="1353" y="1254" on="0"/>
        <pt x="1302" y="1260" on="0"/>
        <pt x="1273" y="1260" on="1"/>
        <pt x="1206" y="1260" on="0"/>
        <pt x="1081" y="1227" on="0"/>
        <pt x="973" y="1160" on="0"/>
        <pt x="887" y="1059" on="0"/>
        <pt x="859" y="991" on="1"/>
        <pt x="1371" y="991" on="1"/>
        <pt x="1308" y="802" on="1"/>
        <pt x="815" y="802" on="1"/>
        <pt x="814" y="786" on="0"/>
        <pt x="813" y="755" on="0"/>
        <pt x="813" y="738" on="1"/>
        <pt x="813" y="696" on="0"/>
        <pt x="816" y="657" on="1"/>
        <pt x="1260" y="657" on="1"/>
        <pt x="1197" y="467" on="1"/>
        <pt x="857" y="467" on="1"/>
        <pt x="908" y="339" on="0"/>
        <pt x="1120" y="221" on="0"/>
        <pt x="1279" y="221" on="1"/>
        <pt x="1348" y="221" on="0"/>
        <pt x="1484" y="260" on="0"/>
        <pt x="1544" y="288" on="1"/>
        <pt x="1614" y="137" on="1"/>
        <pt x="1570" y="105" on="0"/>
        <pt x="1447" y="47" on="0"/>
        <pt x="1300" y="3" on="0"/>
        <pt x="1135" y="-23" on="0"/>
        <pt x="1049" y="-23" on="1"/>
        <pt x="915" y="-23" on="0"/>
        <pt x="681" y="44" on="0"/>
        <pt x="490" y="170" on="0"/>
        <pt x="351" y="352" on="0"/>
        <pt x="313" y="468" on="1"/>
        <pt x="60" y="468" on="1"/>
      </contour>
    </TTGlyph>
    <TTGlyph name="F" xMin="190" yMin="0" xMax="1409" yMax="1486">
      <contour>
        <pt x="190" y="1486" on="1"/>
        <pt x="1409" y="1486" on="1"/>
        <pt x="1409" y="1257" on="1"/>
        <pt x="769" y="1257" on="1"/>
        <pt x="768" y="826" on="1"/>
        <pt x="1238" y="826" on="1"/>
        <pt x="1238" y="597" on="1"/>
        <pt x="768" y="597" on="1"/>
        <pt x="768" y="0" on="1"/>
        <pt x="190" y="0" on="1"/>
      </contour>
    </TTGlyph>
    <TTGlyph name="G" xMin="103" yMin="-25" xMax="1768" yMax="1510">
      <contour>
        <pt x="103" y="742" on="1"/>
        <pt x="103" y="848" on="0"/>
        <pt x="158" y="1045" on="0"/>
        <pt x="264" y="1215" on="0"/>
        <pt x="418" y="1355" on="0"/>
        <pt x="615" y="1455" on="0"/>
        <pt x="853" y="1510" on="0"/>
        <pt x="990" y="1510" on="1"/>
        <pt x="1078" y="1510" on="0"/>
        <pt x="1239" y="1488" on="0"/>
        <pt x="1381" y="1449" on="0"/>
        <pt x="1502" y="1398" on="0"/>
        <pt x="1551" y="1370" on="1"/>
        <pt x="1465" y="1202" on="1"/>
        <pt x="1409" y="1229" on="0"/>
        <pt x="1266" y="1266" on="0"/>
        <pt x="1189" y="1266" on="1"/>
        <pt x="1086" y="1266" on="0"/>
        <pt x="910" y="1192" on="0"/>
        <pt x="782" y="1056" on="0"/>
        <pt x="709" y="863" on="0"/>
        <pt x="709" y="743" on="1"/>
        <pt x="709" y="624" on="0"/>
        <pt x="781" y="431" on="0"/>
        <pt x="908" y="294" on="0"/>
        <pt x="1083" y="219" on="0"/>
        <pt x="1185" y="219" on="1"/>
        <pt x="1185" y="722" on="1"/>
        <pt x="1768" y="722" on="1"/>
        <pt x="1664" y="533" on="1"/>
        <pt x="1664" y="129" on="1"/>
        <pt x="1665" y="127" on="1"/>
        <pt x="1616" y="98" on="0"/>
        <pt x="1472" y="44" on="0"/>
        <pt x="1295" y="1" on="0"/>
        <pt x="1095" y="-25" on="0"/>
        <pt x="990" y="-25" on="1"/>
        <pt x="785" y="-25" on="0"/>
        <pt x="456" y="96" on="0"/>
        <pt x="226" y="305" on="0"/>
        <pt x="103" y="584" on="0"/>
      </contour>
    </TTGlyph>
    <TTGlyph name="H" xMin="190" yMin="0" xMax="1774" yMax="1486">
      <contour>
        <pt x="190" y="1486" on="1"/>
        <pt x="768" y="1486" on="1"/>
        <pt x="768" y="863" on="1"/>
        <pt x="1195" y="863" on="1"/>
        <pt x="1195" y="1486" on="1"/>
        <pt x="1774" y="1486" on="1"/>
        <pt x="1773" y="0" on="1"/>
        <pt x="1195" y="0" on="1"/>
        <pt x="1195" y="634" on="1"/>
        <pt x="768" y="634" on="1"/>
        <pt x="768" y="0" on="1"/>
        <pt x="190" y="0" on="1"/>
      </contour>
    </TTGlyph>
    <TTGlyph name="I" xMin="190" yMin="0" xMax="769" yMax="1486">
      <contour>
        <pt x="190" y="1486" on="1"/>
        <pt x="769" y="1486" on="1"/>
        <pt x="768" y="0" on="1"/>
        <pt x="190" y="0" on="1"/>
      </contour>
    </TTGlyph>
    <TTGlyph name="IJ" xMin="190" yMin="-490" xMax="1785" yMax="1486">
      <contour>
        <pt x="1055" y="-369" on="1"/>
        <pt x="1095" y="-339" on="0"/>
        <pt x="1152" y="-271" on="0"/>
        <pt x="1189" y="-182" on="0"/>
        <pt x="1207" y="-67" on="0"/>
        <pt x="1207" y="10" on="1"/>
        <pt x="1207" y="1486" on="1"/>
        <pt x="1785" y="1486" on="1"/>
        <pt x="1785" y="230" on="1"/>
        <pt x="1786" y="89" on="0"/>
        <pt x="1699" y="-156" on="0"/>
        <pt x="1529" y="-345" on="0"/>
        <pt x="1283" y="-470" on="0"/>
        <pt x="1127" y="-490" on="1"/>
      </contour>
      <contour>
        <pt x="190" y="1486" on="1"/>
        <pt x="769" y="1486" on="1"/>
        <pt x="768" y="0" on="1"/>
        <pt x="190" y="0" on="1"/>
      </contour>
    </TTGlyph>
    <TTGlyph name="Iacute" xMin="136" yMin="0" xMax="849" yMax="1920">
      <contour>
        <pt x="136" y="1684" on="1"/>
        <pt x="202" y="1699" on="0"/>
        <pt x="353" y="1748" on="0"/>
        <pt x="503" y="1810" on="0"/>
        <pt x="642" y="1882" on="0"/>
        <pt x="695" y="1920" on="1"/>
        <pt x="849" y="1732" on="1"/>
        <pt x="710" y="1663" on="0"/>
        <pt x="379" y="1582" on="0"/>
        <pt x="201" y="1571" on="1"/>
      </contour>
      <contour>
        <pt x="190" y="1486" on="1"/>
        <pt x="769" y="1486" on="1"/>
        <pt x="768" y="0" on="1"/>
        <pt x="190" y="0" on="1"/>
      </contour>
    </TTGlyph>
    <TTGlyph name="Icircumflex" xMin="26" yMin="0" xMax="959" yMax="1920">
      <contour>
        <pt x="26" y="1685" on="1"/>
        <pt x="169" y="1733" on="0"/>
        <pt x="395" y="1853" on="0"/>
        <pt x="492" y="1920" on="1"/>
        <pt x="589" y="1853" on="0"/>
        <pt x="814" y="1733" on="0"/>
        <pt x="959" y="1685" on="1"/>
        <pt x="893" y="1571" on="1"/>
        <pt x="797" y="1581" on="0"/>
        <pt x="586" y="1632" on="0"/>
        <pt x="492" y="1665" on="1"/>
        <pt x="398" y="1632" on="0"/>
        <pt x="187" y="1581" on="0"/>
        <pt x="91" y="1571" on="1"/>
      </contour>
      <contour>
        <pt x="190" y="1486" on="1"/>
        <pt x="769" y="1486" on="1"/>
        <pt x="768" y="0" on="1"/>
        <pt x="190" y="0" on="1"/>
      </contour>
    </TTGlyph>
    <TTGlyph name="Idieresis" xMin="-176" yMin="0" xMax="1156" yMax="1919">
      <contour>
        <pt x="889" y="1585" on="1"/>
        <pt x="818" y="1585" on="0"/>
        <pt x="720" y="1611" on="0"/>
        <pt x="657" y="1657" on="0"/>
        <pt x="629" y="1717" on="0"/>
        <pt x="629" y="1752" on="1"/>
        <pt x="629" y="1786" on="0"/>
        <pt x="657" y="1847" on="0"/>
        <pt x="720" y="1893" on="0"/>
        <pt x="818" y="1919" on="0"/>
        <pt x="889" y="1919" on="1"/>
        <pt x="959" y="1919" on="0"/>
        <pt x="1061" y="1893" on="0"/>
        <pt x="1125" y="1847" on="0"/>
        <pt x="1156" y="1786" on="0"/>
        <pt x="1156" y="1752" on="1"/>
        <pt x="1156" y="1717" on="0"/>
        <pt x="1125" y="1657" on="0"/>
        <pt x="1061" y="1611" on="0"/>
        <pt x="959" y="1585" on="0"/>
      </contour>
      <contour>
        <pt x="90" y="1585" on="1"/>
        <pt x="19" y="1585" on="0"/>
        <pt x="-81" y="1611" on="0"/>
        <pt x="-146" y="1657" on="0"/>
        <pt x="-176" y="1717" on="0"/>
        <pt x="-176" y="1752" on="1"/>
        <pt x="-176" y="1786" on="0"/>
        <pt x="-146" y="1847" on="0"/>
        <pt x="-81" y="1893" on="0"/>
        <pt x="19" y="1919" on="0"/>
        <pt x="90" y="1919" on="1"/>
        <pt x="160" y="1919" on="0"/>
        <pt x="262" y="1893" on="0"/>
        <pt x="326" y="1847" on="0"/>
        <pt x="357" y="1786" on="0"/>
        <pt x="357" y="1752" on="1"/>
        <pt x="357" y="1717" on="0"/>
        <pt x="326" y="1657" on="0"/>
        <pt x="262" y="1611" on="0"/>
        <pt x="160" y="1585" on="0"/>
      </contour>
      <contour>
        <pt x="190" y="1486" on="1"/>
        <pt x="769" y="1486" on="1"/>
        <pt x="768" y="0" on="1"/>
        <pt x="190" y="0" on="1"/>
      </contour>
    </TTGlyph>
    <TTGlyph name="Igrave" xMin="136" yMin="0" xMax="849" yMax="1920">
      <contour>
        <pt x="290" y="1920" on="1"/>
        <pt x="343" y="1882" on="0"/>
        <pt x="482" y="1810" on="0"/>
        <pt x="632" y="1748" on="0"/>
        <pt x="783" y="1699" on="0"/>
        <pt x="849" y="1684" on="1"/>
        <pt x="784" y="1571" on="1"/>
        <pt x="606" y="1582" on="0"/>
        <pt x="275" y="1663" on="0"/>
        <pt x="136" y="1732" on="1"/>
      </contour>
      <contour>
        <pt x="190" y="1486" on="1"/>
        <pt x="769" y="1486" on="1"/>
        <pt x="768" y="0" on="1"/>
        <pt x="190" y="0" on="1"/>
      </contour>
    </TTGlyph>
    <TTGlyph name="Itilde" xMin="23" yMin="0" xMax="962" yMax="1904">
      <contour>
        <pt x="23" y="1716" on="1"/>
        <pt x="62" y="1771" on="0"/>
        <pt x="140" y="1844" on="0"/>
        <pt x="218" y="1887" on="0"/>
        <pt x="299" y="1904" on="0"/>
        <pt x="343" y="1904" on="1"/>
        <pt x="400" y="1904" on="0"/>
        <pt x="489" y="1881" on="0"/>
        <pt x="569" y="1854" on="0"/>
        <pt x="649" y="1832" on="0"/>
        <pt x="697" y="1832" on="1"/>
        <pt x="721" y="1832" on="0"/>
        <pt x="765" y="1839" on="0"/>
        <pt x="810" y="1856" on="0"/>
        <pt x="858" y="1884" on="0"/>
        <pt x="887" y="1904" on="1"/>
        <pt x="962" y="1808" on="1"/>
        <pt x="923" y="1753" on="0"/>
        <pt x="845" y="1681" on="0"/>
        <pt x="766" y="1638" on="0"/>
        <pt x="685" y="1621" on="0"/>
        <pt x="642" y="1621" on="1"/>
        <pt x="585" y="1621" on="0"/>
        <pt x="496" y="1643" on="0"/>
        <pt x="416" y="1670" on="0"/>
        <pt x="336" y="1693" on="0"/>
        <pt x="288" y="1693" on="1"/>
        <pt x="264" y="1693" on="0"/>
        <pt x="220" y="1686" on="0"/>
        <pt x="175" y="1669" on="0"/>
        <pt x="127" y="1641" on="0"/>
        <pt x="98" y="1621" on="1"/>
      </contour>
      <contour>
        <pt x="190" y="1486" on="1"/>
        <pt x="769" y="1486" on="1"/>
        <pt x="768" y="0" on="1"/>
        <pt x="190" y="0" on="1"/>
      </contour>
    </TTGlyph>
    <TTGlyph name="J" xMin="83" yMin="-490" xMax="813" yMax="1486">
      <contour>
        <pt x="235" y="1486" on="1"/>
        <pt x="813" y="1486" on="1"/>
        <pt x="813" y="230" on="1"/>
        <pt x="814" y="89" on="0"/>
        <pt x="727" y="-156" on="0"/>
        <pt x="557" y="-345" on="0"/>
        <pt x="311" y="-470" on="0"/>
        <pt x="155" y="-490" on="1"/>
        <pt x="83" y="-369" on="1"/>
        <pt x="123" y="-339" on="0"/>
        <pt x="180" y="-271" on="0"/>
        <pt x="217" y="-182" on="0"/>
        <pt x="235" y="-67" on="0"/>
        <pt x="235" y="10" on="1"/>
      </contour>
    </TTGlyph>
    <TTGlyph name="Jcircumflex" xMin="57" yMin="-490" xMax="990" yMax="1920">
      <contour>
        <pt x="57" y="1685" on="1"/>
        <pt x="200" y="1733" on="0"/>
        <pt x="426" y="1853" on="0"/>
        <pt x="523" y="1920" on="1"/>
        <pt x="620" y="1853" on="0"/>
        <pt x="845" y="1733" on="0"/>
        <pt x="990" y="1685" on="1"/>
        <pt x="924" y="1571" on="1"/>
        <pt x="828" y="1581" on="0"/>
        <pt x="617" y="1632" on="0"/>
        <pt x="523" y="1665" on="1"/>
        <pt x="429" y="1632" on="0"/>
        <pt x="218" y="1581" on="0"/>
        <pt x="122" y="1571" on="1"/>
      </contour>
      <contour>
        <pt x="235" y="1486" on="1"/>
        <pt x="813" y="1486" on="1"/>
        <pt x="813" y="230" on="1"/>
        <pt x="814" y="89" on="0"/>
        <pt x="727" y="-156" on="0"/>
        <pt x="557" y="-345" on="0"/>
        <pt x="311" y="-470" on="0"/>
        <pt x="155" y="-490" on="1"/>
        <pt x="83" y="-369" on="1"/>
        <pt x="123" y="-339" on="0"/>
        <pt x="180" y="-271" on="0"/>
        <pt x="217" y="-182" on="0"/>
        <pt x="235" y="-67" on="0"/>
        <pt x="235" y="10" on="1"/>
      </contour>
    </TTGlyph>
    <TTGlyph name="K" xMin="190" yMin="-1" xMax="1847" yMax="1486">
      <contour>
        <pt x="190" y="1486" on="1"/>
        <pt x="768" y="1486" on="1"/>
        <pt x="768" y="625" on="1"/>
        <pt x="1411" y="1486" on="1"/>
        <pt x="1700" y="1486" on="1"/>
        <pt x="1226" y="848" on="1"/>
        <pt x="1847" y="-1" on="1"/>
        <pt x="1196" y="-1" on="1"/>
        <pt x="864" y="466" on="1"/>
        <pt x="768" y="334" on="1"/>
        <pt x="768" y="0" on="1"/>
        <pt x="190" y="0" on="1"/>
      </contour>
    </TTGlyph>
    <TTGlyph name="L" xMin="190" yMin="0" xMax="1336" yMax="1486">
      <contour>
        <pt x="190" y="1486" on="1"/>
        <pt x="769" y="1486" on="1"/>
        <pt x="768" y="229" on="1"/>
        <pt x="1336" y="229" on="1"/>
        <pt x="1336" y="0" on="1"/>
        <pt x="190" y="0" on="1"/>
      </contour>
    </TTGlyph>
    <TTGlyph name="Lslash" xMin="66" yMin="0" xMax="1451" yMax="1486">
      <contour>
        <pt x="305" y="554" on="1"/>
        <pt x="127" y="490" on="1"/>
        <pt x="66" y="662" on="1"/>
        <pt x="305" y="747" on="1"/>
        <pt x="305" y="1486" on="1"/>
        <pt x="884" y="1486" on="1"/>
        <pt x="883" y="955" on="1"/>
        <pt x="1126" y="1042" on="1"/>
        <pt x="1188" y="870" on="1"/>
        <pt x="883" y="761" on="1"/>
        <pt x="883" y="229" on="1"/>
        <pt x="1451" y="229" on="1"/>
        <pt x="1451" y="0" on="1"/>
        <pt x="305" y="0" on="1"/>
      </contour>
    </TTGlyph>
    <TTGlyph name="M" xMin="190" yMin="-19" xMax="2093" yMax="1486">
      <contour>
        <pt x="190" y="1486" on="1"/>
        <pt x="599" y="1486" on="1"/>
        <pt x="1161" y="708" on="1"/>
        <pt x="1695" y="1486" on="1"/>
        <pt x="2093" y="1486" on="1"/>
        <pt x="2093" y="0" on="1"/>
        <pt x="1516" y="0" on="1"/>
        <pt x="1516" y="759" on="1"/>
        <pt x="962" y="-19" on="1"/>
        <pt x="410" y="759" on="1"/>
        <pt x="410" y="0" on="1"/>
        <pt x="190" y="0" on="1"/>
      </contour>
    </TTGlyph>
    <TTGlyph name="N" xMin="190" yMin="0" xMax="1716" yMax="1486">
      <contour>
        <pt x="190" y="1486" on="1"/>
        <pt x="552" y="1486" on="1"/>
        <pt x="1495" y="694" on="1"/>
        <pt x="1496" y="1486" on="1"/>
        <pt x="1716" y="1486" on="1"/>
        <pt x="1716" y="0" on="1"/>
        <pt x="1354" y="0" on="1"/>
        <pt x="410" y="789" on="1"/>
        <pt x="410" y="0" on="1"/>
        <pt x="190" y="0" on="1"/>
      </contour>
    </TTGlyph>
    <TTGlyph name="Nacute" xMin="190" yMin="0" xMax="1716" yMax="1920">
      <contour>
        <pt x="644" y="1684" on="1"/>
        <pt x="710" y="1699" on="0"/>
        <pt x="861" y="1748" on="0"/>
        <pt x="1011" y="1810" on="0"/>
        <pt x="1150" y="1882" on="0"/>
        <pt x="1203" y="1920" on="1"/>
        <pt x="1357" y="1732" on="1"/>
        <pt x="1218" y="1663" on="0"/>
        <pt x="887" y="1582" on="0"/>
        <pt x="709" y="1571" on="1"/>
      </contour>
      <contour>
        <pt x="190" y="1486" on="1"/>
        <pt x="552" y="1486" on="1"/>
        <pt x="1495" y="694" on="1"/>
        <pt x="1496" y="1486" on="1"/>
        <pt x="1716" y="1486" on="1"/>
        <pt x="1716" y="0" on="1"/>
        <pt x="1354" y="0" on="1"/>
        <pt x="410" y="789" on="1"/>
        <pt x="410" y="0" on="1"/>
        <pt x="190" y="0" on="1"/>
      </contour>
    </TTGlyph>
    <TTGlyph name="Ntilde" xMin="190" yMin="0" xMax="1716" yMax="1904">
      <contour>
        <pt x="531" y="1716" on="1"/>
        <pt x="570" y="1771" on="0"/>
        <pt x="648" y="1844" on="0"/>
        <pt x="726" y="1887" on="0"/>
        <pt x="807" y="1904" on="0"/>
        <pt x="851" y="1904" on="1"/>
        <pt x="908" y="1904" on="0"/>
        <pt x="997" y="1881" on="0"/>
        <pt x="1077" y="1854" on="0"/>
        <pt x="1157" y="1832" on="0"/>
        <pt x="1205" y="1832" on="1"/>
        <pt x="1229" y="1832" on="0"/>
        <pt x="1273" y="1839" on="0"/>
        <pt x="1318" y="1856" on="0"/>
        <pt x="1366" y="1884" on="0"/>
        <pt x="1395" y="1904" on="1"/>
        <pt x="1470" y="1808" on="1"/>
        <pt x="1431" y="1753" on="0"/>
        <pt x="1353" y="1681" on="0"/>
        <pt x="1274" y="1638" on="0"/>
        <pt x="1193" y="1621" on="0"/>
        <pt x="1150" y="1621" on="1"/>
        <pt x="1093" y="1621" on="0"/>
        <pt x="1004" y="1643" on="0"/>
        <pt x="924" y="1670" on="0"/>
        <pt x="844" y="1693" on="0"/>
        <pt x="796" y="1693" on="1"/>
        <pt x="772" y="1693" on="0"/>
        <pt x="728" y="1686" on="0"/>
        <pt x="683" y="1669" on="0"/>
        <pt x="635" y="1641" on="0"/>
        <pt x="606" y="1621" on="1"/>
      </contour>
      <contour>
        <pt x="190" y="1486" on="1"/>
        <pt x="552" y="1486" on="1"/>
        <pt x="1495" y="694" on="1"/>
        <pt x="1496" y="1486" on="1"/>
        <pt x="1716" y="1486" on="1"/>
        <pt x="1716" y="0" on="1"/>
        <pt x="1354" y="0" on="1"/>
        <pt x="410" y="789" on="1"/>
        <pt x="410" y="0" on="1"/>
        <pt x="190" y="0" on="1"/>
      </contour>
    </TTGlyph>
    <TTGlyph name="O" xMin="103" yMin="-23" xMax="1811" yMax="1510">
      <contour>
        <pt x="103" y="746" on="1"/>
        <pt x="103" y="915" on="0"/>
        <pt x="211" y="1196" on="0"/>
        <pt x="425" y="1398" on="0"/>
        <pt x="745" y="1510" on="0"/>
        <pt x="957" y="1510" on="1"/>
        <pt x="1169" y="1510" on="0"/>
        <pt x="1489" y="1398" on="0"/>
        <pt x="1703" y="1196" on="0"/>
        <pt x="1811" y="915" on="0"/>
        <pt x="1811" y="746" on="1"/>
        <pt x="1811" y="575" on="0"/>
        <pt x="1703" y="291" on="0"/>
        <pt x="1489" y="89" on="0"/>
        <pt x="1169" y="-23" on="0"/>
        <pt x="957" y="-23" on="1"/>
        <pt x="745" y="-23" on="0"/>
        <pt x="425" y="89" on="0"/>
        <pt x="211" y="291" on="0"/>
        <pt x="103" y="575" on="0"/>
      </contour>
      <contour>
        <pt x="957" y="184" on="1"/>
        <pt x="1017" y="184" on="0"/>
        <pt x="1109" y="226" on="0"/>
        <pt x="1171" y="348" on="0"/>
        <pt x="1203" y="568" on="0"/>
        <pt x="1203" y="746" on="1"/>
        <pt x="1203" y="922" on="0"/>
        <pt x="1171" y="1140" on="0"/>
        <pt x="1109" y="1260" on="0"/>
        <pt x="1017" y="1302" on="0"/>
        <pt x="957" y="1302" on="1"/>
        <pt x="897" y="1302" on="0"/>
        <pt x="804" y="1260" on="0"/>
        <pt x="742" y="1140" on="0"/>
        <pt x="710" y="922" on="0"/>
        <pt x="710" y="746" on="1"/>
        <pt x="710" y="568" on="0"/>
        <pt x="742" y="348" on="0"/>
        <pt x="804" y="226" on="0"/>
        <pt x="897" y="184" on="0"/>
      </contour>
    </TTGlyph>
    <TTGlyph name="OE" xMin="103" yMin="-23" xMax="2463" yMax="1510">
      <contour>
        <pt x="103" y="746" on="1"/>
        <pt x="103" y="915" on="0"/>
        <pt x="211" y="1196" on="0"/>
        <pt x="425" y="1398" on="0"/>
        <pt x="745" y="1510" on="0"/>
        <pt x="957" y="1510" on="1"/>
        <pt x="1026" y="1510" on="0"/>
        <pt x="1152" y="1497" on="0"/>
        <pt x="1210" y="1486" on="1"/>
        <pt x="2463" y="1486" on="1"/>
        <pt x="2463" y="1257" on="1"/>
        <pt x="1786" y="1257" on="1"/>
        <pt x="1785" y="856" on="1"/>
        <pt x="2303" y="856" on="1"/>
        <pt x="2303" y="627" on="1"/>
        <pt x="1785" y="627" on="1"/>
        <pt x="1785" y="229" on="1"/>
        <pt x="2463" y="229" on="1"/>
        <pt x="2463" y="-1" on="1"/>
        <pt x="1701" y="-1" on="1"/>
        <pt x="1701" y="0" on="1"/>
        <pt x="1207" y="0" on="1"/>
        <pt x="1149" y="-11" on="0"/>
        <pt x="1025" y="-23" on="0"/>
        <pt x="957" y="-23" on="1"/>
        <pt x="745" y="-23" on="0"/>
        <pt x="425" y="89" on="0"/>
        <pt x="211" y="291" on="0"/>
        <pt x="103" y="575" on="0"/>
      </contour>
      <contour>
        <pt x="957" y="184" on="1"/>
        <pt x="1017" y="184" on="0"/>
        <pt x="1109" y="226" on="0"/>
        <pt x="1171" y="348" on="0"/>
        <pt x="1203" y="568" on="0"/>
        <pt x="1203" y="746" on="1"/>
        <pt x="1203" y="922" on="0"/>
        <pt x="1171" y="1140" on="0"/>
        <pt x="1109" y="1260" on="0"/>
        <pt x="1017" y="1302" on="0"/>
        <pt x="957" y="1302" on="1"/>
        <pt x="897" y="1302" on="0"/>
        <pt x="804" y="1260" on="0"/>
        <pt x="742" y="1140" on="0"/>
        <pt x="710" y="922" on="0"/>
        <pt x="710" y="746" on="1"/>
        <pt x="710" y="568" on="0"/>
        <pt x="742" y="348" on="0"/>
        <pt x="804" y="226" on="0"/>
        <pt x="897" y="184" on="0"/>
      </contour>
    </TTGlyph>
    <TTGlyph name="Oacute" xMin="103" yMin="-23" xMax="1811" yMax="1920">
      <contour>
        <pt x="601" y="1684" on="1"/>
        <pt x="667" y="1699" on="0"/>
        <pt x="818" y="1748" on="0"/>
        <pt x="968" y="1810" on="0"/>
        <pt x="1107" y="1882" on="0"/>
        <pt x="1160" y="1920" on="1"/>
        <pt x="1314" y="1732" on="1"/>
        <pt x="1175" y="1663" on="0"/>
        <pt x="844" y="1582" on="0"/>
        <pt x="666" y="1571" on="1"/>
      </contour>
      <contour>
        <pt x="103" y="746" on="1"/>
        <pt x="103" y="915" on="0"/>
        <pt x="211" y="1196" on="0"/>
        <pt x="425" y="1398" on="0"/>
        <pt x="745" y="1510" on="0"/>
        <pt x="957" y="1510" on="1"/>
        <pt x="1169" y="1510" on="0"/>
        <pt x="1489" y="1398" on="0"/>
        <pt x="1703" y="1196" on="0"/>
        <pt x="1811" y="915" on="0"/>
        <pt x="1811" y="746" on="1"/>
        <pt x="1811" y="575" on="0"/>
        <pt x="1703" y="291" on="0"/>
        <pt x="1489" y="89" on="0"/>
        <pt x="1169" y="-23" on="0"/>
        <pt x="957" y="-23" on="1"/>
        <pt x="745" y="-23" on="0"/>
        <pt x="425" y="89" on="0"/>
        <pt x="211" y="291" on="0"/>
        <pt x="103" y="575" on="0"/>
      </contour>
      <contour>
        <pt x="957" y="184" on="1"/>
        <pt x="1017" y="184" on="0"/>
        <pt x="1109" y="226" on="0"/>
        <pt x="1171" y="348" on="0"/>
        <pt x="1203" y="568" on="0"/>
        <pt x="1203" y="746" on="1"/>
        <pt x="1203" y="922" on="0"/>
        <pt x="1171" y="1140" on="0"/>
        <pt x="1109" y="1260" on="0"/>
        <pt x="1017" y="1302" on="0"/>
        <pt x="957" y="1302" on="1"/>
        <pt x="897" y="1302" on="0"/>
        <pt x="804" y="1260" on="0"/>
        <pt x="742" y="1140" on="0"/>
        <pt x="710" y="922" on="0"/>
        <pt x="710" y="746" on="1"/>
        <pt x="710" y="568" on="0"/>
        <pt x="742" y="348" on="0"/>
        <pt x="804" y="226" on="0"/>
        <pt x="897" y="184" on="0"/>
      </contour>
    </TTGlyph>
    <TTGlyph name="Ocircumflex" xMin="103" yMin="-23" xMax="1811" yMax="1920">
      <contour>
        <pt x="491" y="1685" on="1"/>
        <pt x="634" y="1733" on="0"/>
        <pt x="860" y="1853" on="0"/>
        <pt x="957" y="1920" on="1"/>
        <pt x="1054" y="1853" on="0"/>
        <pt x="1279" y="1733" on="0"/>
        <pt x="1424" y="1685" on="1"/>
        <pt x="1358" y="1571" on="1"/>
        <pt x="1262" y="1581" on="0"/>
        <pt x="1051" y="1632" on="0"/>
        <pt x="957" y="1665" on="1"/>
        <pt x="863" y="1632" on="0"/>
        <pt x="652" y="1581" on="0"/>
        <pt x="556" y="1571" on="1"/>
      </contour>
      <contour>
        <pt x="103" y="746" on="1"/>
        <pt x="103" y="915" on="0"/>
        <pt x="211" y="1196" on="0"/>
        <pt x="425" y="1398" on="0"/>
        <pt x="745" y="1510" on="0"/>
        <pt x="957" y="1510" on="1"/>
        <pt x="1169" y="1510" on="0"/>
        <pt x="1489" y="1398" on="0"/>
        <pt x="1703" y="1196" on="0"/>
        <pt x="1811" y="915" on="0"/>
        <pt x="1811" y="746" on="1"/>
        <pt x="1811" y="575" on="0"/>
        <pt x="1703" y="291" on="0"/>
        <pt x="1489" y="89" on="0"/>
        <pt x="1169" y="-23" on="0"/>
        <pt x="957" y="-23" on="1"/>
        <pt x="745" y="-23" on="0"/>
        <pt x="425" y="89" on="0"/>
        <pt x="211" y="291" on="0"/>
        <pt x="103" y="575" on="0"/>
      </contour>
      <contour>
        <pt x="957" y="184" on="1"/>
        <pt x="1017" y="184" on="0"/>
        <pt x="1109" y="226" on="0"/>
        <pt x="1171" y="348" on="0"/>
        <pt x="1203" y="568" on="0"/>
        <pt x="1203" y="746" on="1"/>
        <pt x="1203" y="922" on="0"/>
        <pt x="1171" y="1140" on="0"/>
        <pt x="1109" y="1260" on="0"/>
        <pt x="1017" y="1302" on="0"/>
        <pt x="957" y="1302" on="1"/>
        <pt x="897" y="1302" on="0"/>
        <pt x="804" y="1260" on="0"/>
        <pt x="742" y="1140" on="0"/>
        <pt x="710" y="922" on="0"/>
        <pt x="710" y="746" on="1"/>
        <pt x="710" y="568" on="0"/>
        <pt x="742" y="348" on="0"/>
        <pt x="804" y="226" on="0"/>
        <pt x="897" y="184" on="0"/>
      </contour>
    </TTGlyph>
    <TTGlyph name="Odieresis" xMin="103" yMin="-23" xMax="1811" yMax="1919">
      <contour>
        <pt x="1094" y="1752" on="1"/>
        <pt x="1094" y="1786" on="0"/>
        <pt x="1122" y="1847" on="0"/>
        <pt x="1185" y="1893" on="0"/>
        <pt x="1283" y="1919" on="0"/>
        <pt x="1354" y="1919" on="1"/>
        <pt x="1424" y="1919" on="0"/>
        <pt x="1526" y="1893" on="0"/>
        <pt x="1590" y="1847" on="0"/>
        <pt x="1621" y="1786" on="0"/>
        <pt x="1621" y="1752" on="1"/>
        <pt x="1621" y="1717" on="0"/>
        <pt x="1590" y="1657" on="0"/>
        <pt x="1526" y="1611" on="0"/>
        <pt x="1424" y="1585" on="0"/>
        <pt x="1354" y="1585" on="1"/>
        <pt x="1283" y="1585" on="0"/>
        <pt x="1185" y="1611" on="0"/>
        <pt x="1122" y="1657" on="0"/>
        <pt x="1094" y="1717" on="0"/>
      </contour>
      <contour>
        <pt x="555" y="1585" on="1"/>
        <pt x="484" y="1585" on="0"/>
        <pt x="384" y="1611" on="0"/>
        <pt x="319" y="1657" on="0"/>
        <pt x="289" y="1717" on="0"/>
        <pt x="289" y="1752" on="1"/>
        <pt x="289" y="1786" on="0"/>
        <pt x="319" y="1847" on="0"/>
        <pt x="384" y="1893" on="0"/>
        <pt x="484" y="1919" on="0"/>
        <pt x="555" y="1919" on="1"/>
        <pt x="625" y="1919" on="0"/>
        <pt x="727" y="1893" on="0"/>
        <pt x="791" y="1847" on="0"/>
        <pt x="822" y="1786" on="0"/>
        <pt x="822" y="1752" on="1"/>
        <pt x="822" y="1717" on="0"/>
        <pt x="791" y="1657" on="0"/>
        <pt x="727" y="1611" on="0"/>
        <pt x="625" y="1585" on="0"/>
      </contour>
      <contour>
        <pt x="103" y="746" on="1"/>
        <pt x="103" y="915" on="0"/>
        <pt x="211" y="1196" on="0"/>
        <pt x="425" y="1398" on="0"/>
        <pt x="745" y="1510" on="0"/>
        <pt x="957" y="1510" on="1"/>
        <pt x="1169" y="1510" on="0"/>
        <pt x="1489" y="1398" on="0"/>
        <pt x="1703" y="1196" on="0"/>
        <pt x="1811" y="915" on="0"/>
        <pt x="1811" y="746" on="1"/>
        <pt x="1811" y="575" on="0"/>
        <pt x="1703" y="291" on="0"/>
        <pt x="1489" y="89" on="0"/>
        <pt x="1169" y="-23" on="0"/>
        <pt x="957" y="-23" on="1"/>
        <pt x="745" y="-23" on="0"/>
        <pt x="425" y="89" on="0"/>
        <pt x="211" y="291" on="0"/>
        <pt x="103" y="575" on="0"/>
      </contour>
      <contour>
        <pt x="957" y="184" on="1"/>
        <pt x="1017" y="184" on="0"/>
        <pt x="1109" y="226" on="0"/>
        <pt x="1171" y="348" on="0"/>
        <pt x="1203" y="568" on="0"/>
        <pt x="1203" y="746" on="1"/>
        <pt x="1203" y="922" on="0"/>
        <pt x="1171" y="1140" on="0"/>
        <pt x="1109" y="1260" on="0"/>
        <pt x="1017" y="1302" on="0"/>
        <pt x="957" y="1302" on="1"/>
        <pt x="897" y="1302" on="0"/>
        <pt x="804" y="1260" on="0"/>
        <pt x="742" y="1140" on="0"/>
        <pt x="710" y="922" on="0"/>
        <pt x="710" y="746" on="1"/>
        <pt x="710" y="568" on="0"/>
        <pt x="742" y="348" on="0"/>
        <pt x="804" y="226" on="0"/>
        <pt x="897" y="184" on="0"/>
      </contour>
    </TTGlyph>
    <TTGlyph name="Ograve" xMin="103" yMin="-23" xMax="1811" yMax="1920">
      <contour>
        <pt x="755" y="1920" on="1"/>
        <pt x="808" y="1882" on="0"/>
        <pt x="947" y="1810" on="0"/>
        <pt x="1097" y="1748" on="0"/>
        <pt x="1248" y="1699" on="0"/>
        <pt x="1314" y="1684" on="1"/>
        <pt x="1249" y="1571" on="1"/>
        <pt x="1071" y="1582" on="0"/>
        <pt x="740" y="1663" on="0"/>
        <pt x="601" y="1732" on="1"/>
      </contour>
      <contour>
        <pt x="103" y="746" on="1"/>
        <pt x="103" y="915" on="0"/>
        <pt x="211" y="1196" on="0"/>
        <pt x="425" y="1398" on="0"/>
        <pt x="745" y="1510" on="0"/>
        <pt x="957" y="1510" on="1"/>
        <pt x="1169" y="1510" on="0"/>
        <pt x="1489" y="1398" on="0"/>
        <pt x="1703" y="1196" on="0"/>
        <pt x="1811" y="915" on="0"/>
        <pt x="1811" y="746" on="1"/>
        <pt x="1811" y="575" on="0"/>
        <pt x="1703" y="291" on="0"/>
        <pt x="1489" y="89" on="0"/>
        <pt x="1169" y="-23" on="0"/>
        <pt x="957" y="-23" on="1"/>
        <pt x="745" y="-23" on="0"/>
        <pt x="425" y="89" on="0"/>
        <pt x="211" y="291" on="0"/>
        <pt x="103" y="575" on="0"/>
      </contour>
      <contour>
        <pt x="957" y="184" on="1"/>
        <pt x="1017" y="184" on="0"/>
        <pt x="1109" y="226" on="0"/>
        <pt x="1171" y="348" on="0"/>
        <pt x="1203" y="568" on="0"/>
        <pt x="1203" y="746" on="1"/>
        <pt x="1203" y="922" on="0"/>
        <pt x="1171" y="1140" on="0"/>
        <pt x="1109" y="1260" on="0"/>
        <pt x="1017" y="1302" on="0"/>
        <pt x="957" y="1302" on="1"/>
        <pt x="897" y="1302" on="0"/>
        <pt x="804" y="1260" on="0"/>
        <pt x="742" y="1140" on="0"/>
        <pt x="710" y="922" on="0"/>
        <pt x="710" y="746" on="1"/>
        <pt x="710" y="568" on="0"/>
        <pt x="742" y="348" on="0"/>
        <pt x="804" y="226" on="0"/>
        <pt x="897" y="184" on="0"/>
      </contour>
    </TTGlyph>
    <TTGlyph name="Oslash" xMin="146" yMin="-165" xMax="1854" yMax="1660">
      <contour>
        <pt x="477" y="102" on="1"/>
        <pt x="311" y="202" on="0"/>
        <pt x="146" y="532" on="0"/>
        <pt x="146" y="746" on="1"/>
        <pt x="146" y="915" on="0"/>
        <pt x="254" y="1196" on="0"/>
        <pt x="468" y="1398" on="0"/>
        <pt x="788" y="1510" on="0"/>
        <pt x="1000" y="1510" on="1"/>
        <pt x="1107" y="1510" on="0"/>
        <pt x="1294" y="1481" on="0"/>
        <pt x="1375" y="1453" on="1"/>
        <pt x="1513" y="1660" on="1"/>
        <pt x="1624" y="1586" on="1"/>
        <pt x="1499" y="1398" on="1"/>
        <pt x="1587" y="1349" on="0"/>
        <pt x="1720" y="1215" on="0"/>
        <pt x="1809" y="1049" on="0"/>
        <pt x="1854" y="855" on="0"/>
        <pt x="1854" y="746" on="1"/>
        <pt x="1854" y="575" on="0"/>
        <pt x="1746" y="291" on="0"/>
        <pt x="1532" y="89" on="0"/>
        <pt x="1212" y="-23" on="0"/>
        <pt x="1000" y="-23" on="1"/>
        <pt x="770" y="-23" on="0"/>
        <pt x="598" y="44" on="1"/>
        <pt x="459" y="-165" on="1"/>
        <pt x="348" y="-91" on="1"/>
      </contour>
      <contour>
        <pt x="1193" y="1179" on="1"/>
        <pt x="1177" y="1215" on="0"/>
        <pt x="1137" y="1263" on="0"/>
        <pt x="1089" y="1291" on="0"/>
        <pt x="1032" y="1302" on="0"/>
        <pt x="1000" y="1302" on="1"/>
        <pt x="940" y="1302" on="0"/>
        <pt x="847" y="1260" on="0"/>
        <pt x="785" y="1140" on="0"/>
        <pt x="753" y="922" on="0"/>
        <pt x="753" y="746" on="1"/>
        <pt x="753" y="683" on="0"/>
        <pt x="756" y="575" on="0"/>
        <pt x="761" y="529" on="1"/>
      </contour>
      <contour>
        <pt x="795" y="340" on="1"/>
        <pt x="810" y="293" on="0"/>
        <pt x="851" y="233" on="0"/>
        <pt x="902" y="198" on="0"/>
        <pt x="964" y="184" on="0"/>
        <pt x="1000" y="184" on="1"/>
        <pt x="1060" y="184" on="0"/>
        <pt x="1152" y="226" on="0"/>
        <pt x="1214" y="348" on="0"/>
        <pt x="1246" y="568" on="0"/>
        <pt x="1246" y="746" on="1"/>
        <pt x="1246" y="896" on="0"/>
        <pt x="1234" y="1000" on="1"/>
      </contour>
    </TTGlyph>
    <TTGlyph name="Otilde" xMin="103" yMin="-23" xMax="1811" yMax="1904">
      <contour>
        <pt x="488" y="1716" on="1"/>
        <pt x="527" y="1771" on="0"/>
        <pt x="605" y="1844" on="0"/>
        <pt x="683" y="1887" on="0"/>
        <pt x="764" y="1904" on="0"/>
        <pt x="808" y="1904" on="1"/>
        <pt x="865" y="1904" on="0"/>
        <pt x="954" y="1881" on="0"/>
        <pt x="1034" y="1854" on="0"/>
        <pt x="1114" y="1832" on="0"/>
        <pt x="1162" y="1832" on="1"/>
        <pt x="1186" y="1832" on="0"/>
        <pt x="1230" y="1839" on="0"/>
        <pt x="1275" y="1856" on="0"/>
        <pt x="1323" y="1884" on="0"/>
        <pt x="1352" y="1904" on="1"/>
        <pt x="1427" y="1808" on="1"/>
        <pt x="1388" y="1753" on="0"/>
        <pt x="1310" y="1681" on="0"/>
        <pt x="1231" y="1638" on="0"/>
        <pt x="1150" y="1621" on="0"/>
        <pt x="1107" y="1621" on="1"/>
        <pt x="1050" y="1621" on="0"/>
        <pt x="961" y="1643" on="0"/>
        <pt x="881" y="1670" on="0"/>
        <pt x="801" y="1693" on="0"/>
        <pt x="753" y="1693" on="1"/>
        <pt x="729" y="1693" on="0"/>
        <pt x="685" y="1686" on="0"/>
        <pt x="640" y="1669" on="0"/>
        <pt x="592" y="1641" on="0"/>
        <pt x="563" y="1621" on="1"/>
      </contour>
      <contour>
        <pt x="103" y="746" on="1"/>
        <pt x="103" y="915" on="0"/>
        <pt x="211" y="1196" on="0"/>
        <pt x="425" y="1398" on="0"/>
        <pt x="745" y="1510" on="0"/>
        <pt x="957" y="1510" on="1"/>
        <pt x="1169" y="1510" on="0"/>
        <pt x="1489" y="1398" on="0"/>
        <pt x="1703" y="1196" on="0"/>
        <pt x="1811" y="915" on="0"/>
        <pt x="1811" y="746" on="1"/>
        <pt x="1811" y="575" on="0"/>
        <pt x="1703" y="291" on="0"/>
        <pt x="1489" y="89" on="0"/>
        <pt x="1169" y="-23" on="0"/>
        <pt x="957" y="-23" on="1"/>
        <pt x="745" y="-23" on="0"/>
        <pt x="425" y="89" on="0"/>
        <pt x="211" y="291" on="0"/>
        <pt x="103" y="575" on="0"/>
      </contour>
      <contour>
        <pt x="957" y="184" on="1"/>
        <pt x="1017" y="184" on="0"/>
        <pt x="1109" y="226" on="0"/>
        <pt x="1171" y="348" on="0"/>
        <pt x="1203" y="568" on="0"/>
        <pt x="1203" y="746" on="1"/>
        <pt x="1203" y="922" on="0"/>
        <pt x="1171" y="1140" on="0"/>
        <pt x="1109" y="1260" on="0"/>
        <pt x="1017" y="1302" on="0"/>
        <pt x="957" y="1302" on="1"/>
        <pt x="897" y="1302" on="0"/>
        <pt x="804" y="1260" on="0"/>
        <pt x="742" y="1140" on="0"/>
        <pt x="710" y="922" on="0"/>
        <pt x="710" y="746" on="1"/>
        <pt x="710" y="568" on="0"/>
        <pt x="742" y="348" on="0"/>
        <pt x="804" y="226" on="0"/>
        <pt x="897" y="184" on="0"/>
      </contour>
    </TTGlyph>
    <TTGlyph name="P" xMin="190" yMin="0" xMax="1665" yMax="1486">
      <contour>
        <pt x="190" y="1486" on="1"/>
        <pt x="905" y="1486" on="1"/>
        <pt x="1103" y="1487" on="0"/>
        <pt x="1390" y="1416" on="0"/>
        <pt x="1576" y="1284" on="0"/>
        <pt x="1665" y="1099" on="0"/>
        <pt x="1665" y="986" on="1"/>
        <pt x="1665" y="887" on="0"/>
        <pt x="1582" y="706" on="0"/>
        <pt x="1409" y="568" on="0"/>
        <pt x="1142" y="486" on="0"/>
        <pt x="958" y="486" on="1"/>
        <pt x="768" y="486" on="1"/>
        <pt x="768" y="0" on="1"/>
        <pt x="190" y="0" on="1"/>
      </contour>
      <contour>
        <pt x="768" y="704" on="1"/>
        <pt x="837" y="705" on="0"/>
        <pt x="945" y="746" on="0"/>
        <pt x="1019" y="819" on="0"/>
        <pt x="1058" y="922" on="0"/>
        <pt x="1058" y="986" on="1"/>
        <pt x="1058" y="1049" on="0"/>
        <pt x="1018" y="1151" on="0"/>
        <pt x="943" y="1224" on="0"/>
        <pt x="836" y="1266" on="0"/>
        <pt x="768" y="1268" on="1"/>
      </contour>
    </TTGlyph>
    <TTGlyph name="Q" xMin="103" yMin="-269" xMax="1810" yMax="1510">
      <contour>
        <pt x="103" y="746" on="1"/>
        <pt x="103" y="915" on="0"/>
        <pt x="211" y="1196" on="0"/>
        <pt x="425" y="1398" on="0"/>
        <pt x="745" y="1510" on="0"/>
        <pt x="957" y="1510" on="1"/>
        <pt x="1168" y="1510" on="0"/>
        <pt x="1488" y="1398" on="0"/>
        <pt x="1702" y="1196" on="0"/>
        <pt x="1810" y="915" on="0"/>
        <pt x="1810" y="746" on="1"/>
        <pt x="1810" y="615" on="0"/>
        <pt x="1747" y="388" on="0"/>
        <pt x="1623" y="204" on="0"/>
        <pt x="1436" y="68" on="0"/>
        <pt x="1313" y="28" on="1"/>
        <pt x="1362" y="12" on="0"/>
        <pt x="1514" y="-2" on="0"/>
        <pt x="1628" y="-1" on="1"/>
        <pt x="1810" y="-1" on="1"/>
        <pt x="1659" y="-269" on="1"/>
        <pt x="1533" y="-269" on="0"/>
        <pt x="1326" y="-240" on="0"/>
        <pt x="1159" y="-180" on="0"/>
        <pt x="1028" y="-87" on="0"/>
        <pt x="977" y="-23" on="1"/>
        <pt x="957" y="-23" on="1"/>
        <pt x="745" y="-23" on="0"/>
        <pt x="425" y="89" on="0"/>
        <pt x="211" y="291" on="0"/>
        <pt x="103" y="575" on="0"/>
      </contour>
      <contour>
        <pt x="957" y="184" on="1"/>
        <pt x="1017" y="184" on="0"/>
        <pt x="1109" y="226" on="0"/>
        <pt x="1171" y="348" on="0"/>
        <pt x="1203" y="568" on="0"/>
        <pt x="1203" y="746" on="1"/>
        <pt x="1203" y="922" on="0"/>
        <pt x="1171" y="1140" on="0"/>
        <pt x="1109" y="1260" on="0"/>
        <pt x="1017" y="1302" on="0"/>
        <pt x="957" y="1302" on="1"/>
        <pt x="897" y="1302" on="0"/>
        <pt x="804" y="1260" on="0"/>
        <pt x="742" y="1140" on="0"/>
        <pt x="710" y="922" on="0"/>
        <pt x="710" y="746" on="1"/>
        <pt x="710" y="568" on="0"/>
        <pt x="742" y="348" on="0"/>
        <pt x="804" y="226" on="0"/>
        <pt x="897" y="184" on="0"/>
      </contour>
    </TTGlyph>
    <TTGlyph name="R" xMin="190" yMin="-1" xMax="1779" yMax="1486">
      <contour>
        <pt x="190" y="1486" on="1"/>
        <pt x="1047" y="1486" on="1"/>
        <pt x="1213" y="1486" on="0"/>
        <pt x="1462" y="1416" on="0"/>
        <pt x="1629" y="1290" on="0"/>
        <pt x="1713" y="1114" on="0"/>
        <pt x="1713" y="1008" on="1"/>
        <pt x="1713" y="877" on="0"/>
        <pt x="1589" y="674" on="0"/>
        <pt x="1467" y="614" on="1"/>
        <pt x="1779" y="-1" on="1"/>
        <pt x="1126" y="-1" on="1"/>
        <pt x="890" y="539" on="1"/>
        <pt x="768" y="539" on="1"/>
        <pt x="768" y="0" on="1"/>
        <pt x="190" y="0" on="1"/>
      </contour>
      <contour>
        <pt x="803" y="720" on="1"/>
        <pt x="874" y="720" on="0"/>
        <pt x="986" y="760" on="0"/>
        <pt x="1064" y="833" on="0"/>
        <pt x="1106" y="934" on="0"/>
        <pt x="1106" y="994" on="1"/>
        <pt x="1106" y="1054" on="0"/>
        <pt x="1064" y="1155" on="0"/>
        <pt x="986" y="1228" on="0"/>
        <pt x="874" y="1268" on="0"/>
        <pt x="803" y="1268" on="1"/>
        <pt x="769" y="1268" on="1"/>
        <pt x="768" y="720" on="1"/>
      </contour>
    </TTGlyph>
    <TTGlyph name="Racute" xMin="190" yMin="-1" xMax="1779" yMax="1920">
      <contour>
        <pt x="516" y="1684" on="1"/>
        <pt x="582" y="1699" on="0"/>
        <pt x="733" y="1748" on="0"/>
        <pt x="883" y="1810" on="0"/>
        <pt x="1022" y="1882" on="0"/>
        <pt x="1075" y="1920" on="1"/>
        <pt x="1229" y="1732" on="1"/>
        <pt x="1090" y="1663" on="0"/>
        <pt x="759" y="1582" on="0"/>
        <pt x="581" y="1571" on="1"/>
      </contour>
      <contour>
        <pt x="190" y="1486" on="1"/>
        <pt x="1047" y="1486" on="1"/>
        <pt x="1213" y="1486" on="0"/>
        <pt x="1462" y="1416" on="0"/>
        <pt x="1629" y="1290" on="0"/>
        <pt x="1713" y="1114" on="0"/>
        <pt x="1713" y="1008" on="1"/>
        <pt x="1713" y="877" on="0"/>
        <pt x="1589" y="674" on="0"/>
        <pt x="1467" y="614" on="1"/>
        <pt x="1779" y="-1" on="1"/>
        <pt x="1126" y="-1" on="1"/>
        <pt x="890" y="539" on="1"/>
        <pt x="768" y="539" on="1"/>
        <pt x="768" y="0" on="1"/>
        <pt x="190" y="0" on="1"/>
      </contour>
      <contour>
        <pt x="803" y="720" on="1"/>
        <pt x="874" y="720" on="0"/>
        <pt x="986" y="760" on="0"/>
        <pt x="1064" y="833" on="0"/>
        <pt x="1106" y="934" on="0"/>
        <pt x="1106" y="994" on="1"/>
        <pt x="1106" y="1054" on="0"/>
        <pt x="1064" y="1155" on="0"/>
        <pt x="986" y="1228" on="0"/>
        <pt x="874" y="1268" on="0"/>
        <pt x="803" y="1268" on="1"/>
        <pt x="769" y="1268" on="1"/>
        <pt x="768" y="720" on="1"/>
      </contour>
    </TTGlyph>
    <TTGlyph name="Rcaron" xMin="190" yMin="-1" xMax="1779" yMax="1920">
      <contour>
        <pt x="872" y="1571" on="1"/>
        <pt x="775" y="1638" on="0"/>
        <pt x="549" y="1758" on="0"/>
        <pt x="406" y="1806" on="1"/>
        <pt x="471" y="1920" on="1"/>
        <pt x="519" y="1915" on="0"/>
        <pt x="621" y="1893" on="0"/>
        <pt x="724" y="1861" on="0"/>
        <pt x="825" y="1824" on="0"/>
        <pt x="872" y="1804" on="1"/>
        <pt x="918" y="1824" on="0"/>
        <pt x="1020" y="1861" on="0"/>
        <pt x="1123" y="1893" on="0"/>
        <pt x="1225" y="1915" on="0"/>
        <pt x="1273" y="1920" on="1"/>
        <pt x="1339" y="1806" on="1"/>
        <pt x="1194" y="1758" on="0"/>
        <pt x="969" y="1639" on="0"/>
      </contour>
      <contour>
        <pt x="190" y="1486" on="1"/>
        <pt x="1047" y="1486" on="1"/>
        <pt x="1213" y="1486" on="0"/>
        <pt x="1462" y="1416" on="0"/>
        <pt x="1629" y="1290" on="0"/>
        <pt x="1713" y="1114" on="0"/>
        <pt x="1713" y="1008" on="1"/>
        <pt x="1713" y="877" on="0"/>
        <pt x="1589" y="674" on="0"/>
        <pt x="1467" y="614" on="1"/>
        <pt x="1779" y="-1" on="1"/>
        <pt x="1126" y="-1" on="1"/>
        <pt x="890" y="539" on="1"/>
        <pt x="768" y="539" on="1"/>
        <pt x="768" y="0" on="1"/>
        <pt x="190" y="0" on="1"/>
      </contour>
      <contour>
        <pt x="803" y="720" on="1"/>
        <pt x="874" y="720" on="0"/>
        <pt x="986" y="760" on="0"/>
        <pt x="1064" y="833" on="0"/>
        <pt x="1106" y="934" on="0"/>
        <pt x="1106" y="994" on="1"/>
        <pt x="1106" y="1054" on="0"/>
        <pt x="1064" y="1155" on="0"/>
        <pt x="986" y="1228" on="0"/>
        <pt x="874" y="1268" on="0"/>
        <pt x="803" y="1268" on="1"/>
        <pt x="769" y="1268" on="1"/>
        <pt x="768" y="720" on="1"/>
      </contour>
    </TTGlyph>
    <TTGlyph name="Rcommaaccent" xMin="190" yMin="-514" xMax="1779" yMax="1486">
      <contour>
        <pt x="190" y="1486" on="1"/>
        <pt x="1047" y="1486" on="1"/>
        <pt x="1213" y="1486" on="0"/>
        <pt x="1462" y="1416" on="0"/>
        <pt x="1629" y="1290" on="0"/>
        <pt x="1713" y="1114" on="0"/>
        <pt x="1713" y="1008" on="1"/>
        <pt x="1713" y="877" on="0"/>
        <pt x="1589" y="674" on="0"/>
        <pt x="1467" y="614" on="1"/>
        <pt x="1779" y="-1" on="1"/>
        <pt x="1126" y="-1" on="1"/>
        <pt x="890" y="539" on="1"/>
        <pt x="768" y="539" on="1"/>
        <pt x="768" y="0" on="1"/>
        <pt x="190" y="0" on="1"/>
      </contour>
      <contour>
        <pt x="803" y="720" on="1"/>
        <pt x="874" y="720" on="0"/>
        <pt x="986" y="760" on="0"/>
        <pt x="1064" y="833" on="0"/>
        <pt x="1106" y="934" on="0"/>
        <pt x="1106" y="994" on="1"/>
        <pt x="1106" y="1054" on="0"/>
        <pt x="1064" y="1155" on="0"/>
        <pt x="986" y="1228" on="0"/>
        <pt x="874" y="1268" on="0"/>
        <pt x="803" y="1268" on="1"/>
        <pt x="769" y="1268" on="1"/>
        <pt x="768" y="720" on="1"/>
      </contour>
      <contour>
        <pt x="762" y="-204" on="1"/>
        <pt x="762" y="-180" on="0"/>
        <pt x="786" y="-133" on="0"/>
        <pt x="831" y="-96" on="0"/>
        <pt x="897" y="-74" on="0"/>
        <pt x="939" y="-74" on="1"/>
        <pt x="979" y="-74" on="0"/>
        <pt x="1044" y="-97" on="0"/>
        <pt x="1091" y="-138" on="0"/>
        <pt x="1116" y="-197" on="0"/>
        <pt x="1116" y="-233" on="1"/>
        <pt x="1116" y="-296" on="0"/>
        <pt x="1037" y="-446" on="0"/>
        <pt x="962" y="-514" on="1"/>
        <pt x="873" y="-445" on="1"/>
        <pt x="926" y="-389" on="0"/>
        <pt x="939" y="-334" on="1"/>
        <pt x="851" y="-334" on="0"/>
        <pt x="762" y="-259" on="0"/>
      </contour>
    </TTGlyph>
    <TTGlyph name="S" xMin="93" yMin="-23" xMax="1534" yMax="1510">
      <contour>
        <pt x="210" y="330" on="1"/>
        <pt x="316" y="276" on="0"/>
        <pt x="548" y="222" on="0"/>
        <pt x="648" y="222" on="1"/>
        <pt x="763" y="222" on="0"/>
        <pt x="870" y="288" on="0"/>
        <pt x="870" y="345" on="1"/>
        <pt x="870" y="363" on="0"/>
        <pt x="857" y="401" on="0"/>
        <pt x="820" y="438" on="0"/>
        <pt x="755" y="475" on="0"/>
        <pt x="703" y="493" on="1"/>
        <pt x="524" y="554" on="1"/>
        <pt x="332" y="620" on="0"/>
        <pt x="138" y="845" on="0"/>
        <pt x="138" y="1000" on="1"/>
        <pt x="138" y="1100" on="0"/>
        <pt x="222" y="1285" on="0"/>
        <pt x="392" y="1426" on="0"/>
        <pt x="651" y="1510" on="0"/>
        <pt x="825" y="1510" on="1"/>
        <pt x="911" y="1510" on="0"/>
        <pt x="1069" y="1490" on="0"/>
        <pt x="1208" y="1458" on="0"/>
        <pt x="1324" y="1417" on="0"/>
        <pt x="1368" y="1397" on="1"/>
        <pt x="1260" y="1202" on="1"/>
        <pt x="1228" y="1222" on="0"/>
        <pt x="1157" y="1252" on="0"/>
        <pt x="1086" y="1272" on="0"/>
        <pt x="1018" y="1282" on="0"/>
        <pt x="990" y="1282" on="1"/>
        <pt x="942" y="1282" on="0"/>
        <pt x="870" y="1257" on="0"/>
        <pt x="821" y="1216" on="0"/>
        <pt x="796" y="1165" on="0"/>
        <pt x="796" y="1140" on="1"/>
        <pt x="796" y="1118" on="0"/>
        <pt x="817" y="1077" on="0"/>
        <pt x="868" y="1038" on="0"/>
        <pt x="951" y="999" on="0"/>
        <pt x="1013" y="978" on="1"/>
        <pt x="1133" y="938" on="1"/>
        <pt x="1328" y="873" on="0"/>
        <pt x="1534" y="645" on="0"/>
        <pt x="1534" y="483" on="1"/>
        <pt x="1534" y="373" on="0"/>
        <pt x="1435" y="187" on="0"/>
        <pt x="1239" y="52" on="0"/>
        <pt x="948" y="-23" on="0"/>
        <pt x="756" y="-23" on="1"/>
        <pt x="664" y="-23" on="0"/>
        <pt x="493" y="-4" on="0"/>
        <pt x="330" y="34" on="0"/>
        <pt x="172" y="92" on="0"/>
        <pt x="93" y="131" on="1"/>
      </contour>
    </TTGlyph>
    <TTGlyph name="T" xMin="27" yMin="0" xMax="1453" yMax="1487">
      <contour>
        <pt x="451" y="1258" on="1"/>
        <pt x="27" y="1258" on="1"/>
        <pt x="27" y="1487" on="1"/>
        <pt x="1453" y="1487" on="1"/>
        <pt x="1453" y="1258" on="1"/>
        <pt x="1029" y="1258" on="1"/>
        <pt x="1029" y="0" on="1"/>
        <pt x="451" y="0" on="1"/>
      </contour>
    </TTGlyph>
    <TTGlyph name="Thorn" xMin="190" yMin="0" xMax="1665" yMax="1486">
      <contour>
        <pt x="190" y="1486" on="1"/>
        <pt x="768" y="1486" on="1"/>
        <pt x="768" y="1266" on="1"/>
        <pt x="905" y="1266" on="1"/>
        <pt x="1103" y="1267" on="0"/>
        <pt x="1390" y="1196" on="0"/>
        <pt x="1576" y="1064" on="0"/>
        <pt x="1665" y="879" on="0"/>
        <pt x="1665" y="766" on="1"/>
        <pt x="1665" y="667" on="0"/>
        <pt x="1582" y="486" on="0"/>
        <pt x="1409" y="348" on="0"/>
        <pt x="1142" y="266" on="0"/>
        <pt x="958" y="266" on="1"/>
        <pt x="768" y="266" on="1"/>
        <pt x="768" y="0" on="1"/>
        <pt x="190" y="0" on="1"/>
      </contour>
      <contour>
        <pt x="768" y="484" on="1"/>
        <pt x="837" y="485" on="0"/>
        <pt x="945" y="526" on="0"/>
        <pt x="1019" y="599" on="0"/>
        <pt x="1058" y="702" on="0"/>
        <pt x="1058" y="766" on="1"/>
        <pt x="1058" y="829" on="0"/>
        <pt x="1018" y="931" on="0"/>
        <pt x="943" y="1004" on="0"/>
        <pt x="836" y="1046" on="0"/>
        <pt x="768" y="1048" on="1"/>
      </contour>
    </TTGlyph>
    <TTGlyph name="U" xMin="184" yMin="-23" xMax="1551" yMax="1486">
      <contour>
        <pt x="184" y="1486" on="1"/>
        <pt x="762" y="1486" on="1"/>
        <pt x="762" y="542" on="1"/>
        <pt x="762" y="462" on="0"/>
        <pt x="805" y="345" on="0"/>
        <pt x="882" y="268" on="0"/>
        <pt x="986" y="230" on="0"/>
        <pt x="1046" y="230" on="1"/>
        <pt x="1112" y="230" on="0"/>
        <pt x="1217" y="268" on="0"/>
        <pt x="1291" y="346" on="0"/>
        <pt x="1331" y="464" on="0"/>
        <pt x="1331" y="544" on="1"/>
        <pt x="1331" y="1486" on="1"/>
        <pt x="1551" y="1486" on="1"/>
        <pt x="1551" y="578" on="1"/>
        <pt x="1551" y="440" on="0"/>
        <pt x="1462" y="218" on="0"/>
        <pt x="1298" y="61" on="0"/>
        <pt x="1066" y="-23" on="0"/>
        <pt x="923" y="-23" on="1"/>
        <pt x="728" y="-23" on="0"/>
        <pt x="448" y="60" on="0"/>
        <pt x="268" y="215" on="0"/>
        <pt x="184" y="435" on="0"/>
        <pt x="184" y="573" on="1"/>
      </contour>
    </TTGlyph>
    <TTGlyph name="Uacute" xMin="184" yMin="-23" xMax="1551" yMax="1920">
      <contour>
        <pt x="605" y="1684" on="1"/>
        <pt x="671" y="1699" on="0"/>
        <pt x="822" y="1748" on="0"/>
        <pt x="972" y="1810" on="0"/>
        <pt x="1111" y="1882" on="0"/>
        <pt x="1164" y="1920" on="1"/>
        <pt x="1318" y="1732" on="1"/>
        <pt x="1179" y="1663" on="0"/>
        <pt x="848" y="1582" on="0"/>
        <pt x="670" y="1571" on="1"/>
      </contour>
      <contour>
        <pt x="184" y="1486" on="1"/>
        <pt x="762" y="1486" on="1"/>
        <pt x="762" y="542" on="1"/>
        <pt x="762" y="462" on="0"/>
        <pt x="805" y="345" on="0"/>
        <pt x="882" y="268" on="0"/>
        <pt x="986" y="230" on="0"/>
        <pt x="1046" y="230" on="1"/>
        <pt x="1112" y="230" on="0"/>
        <pt x="1217" y="268" on="0"/>
        <pt x="1291" y="346" on="0"/>
        <pt x="1331" y="464" on="0"/>
        <pt x="1331" y="544" on="1"/>
        <pt x="1331" y="1486" on="1"/>
        <pt x="1551" y="1486" on="1"/>
        <pt x="1551" y="578" on="1"/>
        <pt x="1551" y="440" on="0"/>
        <pt x="1462" y="218" on="0"/>
        <pt x="1298" y="61" on="0"/>
        <pt x="1066" y="-23" on="0"/>
        <pt x="923" y="-23" on="1"/>
        <pt x="728" y="-23" on="0"/>
        <pt x="448" y="60" on="0"/>
        <pt x="268" y="215" on="0"/>
        <pt x="184" y="435" on="0"/>
        <pt x="184" y="573" on="1"/>
      </contour>
    </TTGlyph>
    <TTGlyph name="Ucircumflex" xMin="184" yMin="-23" xMax="1551" yMax="1920">
      <contour>
        <pt x="495" y="1685" on="1"/>
        <pt x="638" y="1733" on="0"/>
        <pt x="864" y="1853" on="0"/>
        <pt x="961" y="1920" on="1"/>
        <pt x="1058" y="1853" on="0"/>
        <pt x="1283" y="1733" on="0"/>
        <pt x="1428" y="1685" on="1"/>
        <pt x="1362" y="1571" on="1"/>
        <pt x="1266" y="1581" on="0"/>
        <pt x="1055" y="1632" on="0"/>
        <pt x="961" y="1665" on="1"/>
        <pt x="867" y="1632" on="0"/>
        <pt x="656" y="1581" on="0"/>
        <pt x="560" y="1571" on="1"/>
      </contour>
      <contour>
        <pt x="184" y="1486" on="1"/>
        <pt x="762" y="1486" on="1"/>
        <pt x="762" y="542" on="1"/>
        <pt x="762" y="462" on="0"/>
        <pt x="805" y="345" on="0"/>
        <pt x="882" y="268" on="0"/>
        <pt x="986" y="230" on="0"/>
        <pt x="1046" y="230" on="1"/>
        <pt x="1112" y="230" on="0"/>
        <pt x="1217" y="268" on="0"/>
        <pt x="1291" y="346" on="0"/>
        <pt x="1331" y="464" on="0"/>
        <pt x="1331" y="544" on="1"/>
        <pt x="1331" y="1486" on="1"/>
        <pt x="1551" y="1486" on="1"/>
        <pt x="1551" y="578" on="1"/>
        <pt x="1551" y="440" on="0"/>
        <pt x="1462" y="218" on="0"/>
        <pt x="1298" y="61" on="0"/>
        <pt x="1066" y="-23" on="0"/>
        <pt x="923" y="-23" on="1"/>
        <pt x="728" y="-23" on="0"/>
        <pt x="448" y="60" on="0"/>
        <pt x="268" y="215" on="0"/>
        <pt x="184" y="435" on="0"/>
        <pt x="184" y="573" on="1"/>
      </contour>
    </TTGlyph>
    <TTGlyph name="Udieresis" xMin="184" yMin="-23" xMax="1625" yMax="1919">
      <contour>
        <pt x="1098" y="1752" on="1"/>
        <pt x="1098" y="1786" on="0"/>
        <pt x="1126" y="1847" on="0"/>
        <pt x="1189" y="1893" on="0"/>
        <pt x="1287" y="1919" on="0"/>
        <pt x="1358" y="1919" on="1"/>
        <pt x="1428" y="1919" on="0"/>
        <pt x="1530" y="1893" on="0"/>
        <pt x="1594" y="1847" on="0"/>
        <pt x="1625" y="1786" on="0"/>
        <pt x="1625" y="1752" on="1"/>
        <pt x="1625" y="1717" on="0"/>
        <pt x="1594" y="1657" on="0"/>
        <pt x="1530" y="1611" on="0"/>
        <pt x="1428" y="1585" on="0"/>
        <pt x="1358" y="1585" on="1"/>
        <pt x="1287" y="1585" on="0"/>
        <pt x="1189" y="1611" on="0"/>
        <pt x="1126" y="1657" on="0"/>
        <pt x="1098" y="1717" on="0"/>
      </contour>
      <contour>
        <pt x="559" y="1585" on="1"/>
        <pt x="488" y="1585" on="0"/>
        <pt x="388" y="1611" on="0"/>
        <pt x="323" y="1657" on="0"/>
        <pt x="293" y="1717" on="0"/>
        <pt x="293" y="1752" on="1"/>
        <pt x="293" y="1786" on="0"/>
        <pt x="323" y="1847" on="0"/>
        <pt x="388" y="1893" on="0"/>
        <pt x="488" y="1919" on="0"/>
        <pt x="559" y="1919" on="1"/>
        <pt x="629" y="1919" on="0"/>
        <pt x="731" y="1893" on="0"/>
        <pt x="795" y="1847" on="0"/>
        <pt x="826" y="1786" on="0"/>
        <pt x="826" y="1752" on="1"/>
        <pt x="826" y="1717" on="0"/>
        <pt x="795" y="1657" on="0"/>
        <pt x="731" y="1611" on="0"/>
        <pt x="629" y="1585" on="0"/>
      </contour>
      <contour>
        <pt x="184" y="1486" on="1"/>
        <pt x="762" y="1486" on="1"/>
        <pt x="762" y="542" on="1"/>
        <pt x="762" y="462" on="0"/>
        <pt x="805" y="345" on="0"/>
        <pt x="882" y="268" on="0"/>
        <pt x="986" y="230" on="0"/>
        <pt x="1046" y="230" on="1"/>
        <pt x="1112" y="230" on="0"/>
        <pt x="1217" y="268" on="0"/>
        <pt x="1291" y="346" on="0"/>
        <pt x="1331" y="464" on="0"/>
        <pt x="1331" y="544" on="1"/>
        <pt x="1331" y="1486" on="1"/>
        <pt x="1551" y="1486" on="1"/>
        <pt x="1551" y="578" on="1"/>
        <pt x="1551" y="440" on="0"/>
        <pt x="1462" y="218" on="0"/>
        <pt x="1298" y="61" on="0"/>
        <pt x="1066" y="-23" on="0"/>
        <pt x="923" y="-23" on="1"/>
        <pt x="728" y="-23" on="0"/>
        <pt x="448" y="60" on="0"/>
        <pt x="268" y="215" on="0"/>
        <pt x="184" y="435" on="0"/>
        <pt x="184" y="573" on="1"/>
      </contour>
    </TTGlyph>
    <TTGlyph name="Ugrave" xMin="184" yMin="-23" xMax="1551" yMax="1920">
      <contour>
        <pt x="759" y="1920" on="1"/>
        <pt x="812" y="1882" on="0"/>
        <pt x="951" y="1810" on="0"/>
        <pt x="1101" y="1748" on="0"/>
        <pt x="1252" y="1699" on="0"/>
        <pt x="1318" y="1684" on="1"/>
        <pt x="1253" y="1571" on="1"/>
        <pt x="1075" y="1582" on="0"/>
        <pt x="744" y="1663" on="0"/>
        <pt x="605" y="1732" on="1"/>
      </contour>
      <contour>
        <pt x="184" y="1486" on="1"/>
        <pt x="762" y="1486" on="1"/>
        <pt x="762" y="542" on="1"/>
        <pt x="762" y="462" on="0"/>
        <pt x="805" y="345" on="0"/>
        <pt x="882" y="268" on="0"/>
        <pt x="986" y="230" on="0"/>
        <pt x="1046" y="230" on="1"/>
        <pt x="1112" y="230" on="0"/>
        <pt x="1217" y="268" on="0"/>
        <pt x="1291" y="346" on="0"/>
        <pt x="1331" y="464" on="0"/>
        <pt x="1331" y="544" on="1"/>
        <pt x="1331" y="1486" on="1"/>
        <pt x="1551" y="1486" on="1"/>
        <pt x="1551" y="578" on="1"/>
        <pt x="1551" y="440" on="0"/>
        <pt x="1462" y="218" on="0"/>
        <pt x="1298" y="61" on="0"/>
        <pt x="1066" y="-23" on="0"/>
        <pt x="923" y="-23" on="1"/>
        <pt x="728" y="-23" on="0"/>
        <pt x="448" y="60" on="0"/>
        <pt x="268" y="215" on="0"/>
        <pt x="184" y="435" on="0"/>
        <pt x="184" y="573" on="1"/>
      </contour>
    </TTGlyph>
    <TTGlyph name="V" xMin="41" yMin="0" xMax="1605" yMax="1487">
      <contour>
        <pt x="41" y="1486" on="1"/>
        <pt x="674" y="1486" on="1"/>
        <pt x="1022" y="531" on="1"/>
        <pt x="1344" y="1486" on="1"/>
        <pt x="1605" y="1487" on="1"/>
        <pt x="1084" y="0" on="1"/>
        <pt x="613" y="1" on="1"/>
      </contour>
    </TTGlyph>
    <TTGlyph name="W" xMin="41" yMin="0" xMax="2344" yMax="1487">
      <contour>
        <pt x="41" y="1486" on="1"/>
        <pt x="674" y="1486" on="1"/>
        <pt x="928" y="531" on="1"/>
        <pt x="1091" y="1094" on="1"/>
        <pt x="970" y="1486" on="1"/>
        <pt x="1603" y="1486" on="1"/>
        <pt x="1837" y="531" on="1"/>
        <pt x="2083" y="1486" on="1"/>
        <pt x="2344" y="1487" on="1"/>
        <pt x="1899" y="0" on="1"/>
        <pt x="1428" y="1" on="1"/>
        <pt x="1208" y="714" on="1"/>
        <pt x="990" y="0" on="1"/>
        <pt x="519" y="1" on="1"/>
      </contour>
    </TTGlyph>
    <TTGlyph name="X" xMin="30" yMin="-1" xMax="1612" yMax="1486">
      <contour>
        <pt x="512" y="714" on="1"/>
        <pt x="30" y="1486" on="1"/>
        <pt x="683" y="1486" on="1"/>
        <pt x="973" y="1022" on="1"/>
        <pt x="1269" y="1486" on="1"/>
        <pt x="1530" y="1486" on="1"/>
        <pt x="1096" y="824" on="1"/>
        <pt x="1612" y="0" on="1"/>
        <pt x="959" y="-1" on="1"/>
        <pt x="633" y="519" on="1"/>
        <pt x="296" y="-1" on="1"/>
        <pt x="34" y="-1" on="1"/>
      </contour>
    </TTGlyph>
    <TTGlyph name="Y" xMin="13" yMin="0" xMax="1569" yMax="1486">
      <contour>
        <pt x="517" y="419" on="1"/>
        <pt x="13" y="1486" on="1"/>
        <pt x="646" y="1486" on="1"/>
        <pt x="1012" y="720" on="1"/>
        <pt x="1307" y="1486" on="1"/>
        <pt x="1569" y="1486" on="1"/>
        <pt x="1125" y="419" on="1"/>
        <pt x="1125" y="0" on="1"/>
        <pt x="517" y="0" on="1"/>
      </contour>
    </TTGlyph>
    <TTGlyph name="Yacute" xMin="13" yMin="0" xMax="1569" yMax="1920">
      <contour>
        <pt x="549" y="1684" on="1"/>
        <pt x="615" y="1699" on="0"/>
        <pt x="766" y="1748" on="0"/>
        <pt x="916" y="1810" on="0"/>
        <pt x="1055" y="1882" on="0"/>
        <pt x="1108" y="1920" on="1"/>
        <pt x="1262" y="1732" on="1"/>
        <pt x="1123" y="1663" on="0"/>
        <pt x="792" y="1582" on="0"/>
        <pt x="614" y="1571" on="1"/>
      </contour>
      <contour>
        <pt x="517" y="419" on="1"/>
        <pt x="13" y="1486" on="1"/>
        <pt x="646" y="1486" on="1"/>
        <pt x="1012" y="720" on="1"/>
        <pt x="1307" y="1486" on="1"/>
        <pt x="1569" y="1486" on="1"/>
        <pt x="1125" y="419" on="1"/>
        <pt x="1125" y="0" on="1"/>
        <pt x="517" y="0" on="1"/>
      </contour>
    </TTGlyph>
    <TTGlyph name="Z" xMin="56" yMin="0" xMax="1517" yMax="1486">
      <contour>
        <pt x="753" y="1268" on="1"/>
        <pt x="159" y="1268" on="1"/>
        <pt x="159" y="1486" on="1"/>
        <pt x="1517" y="1486" on="1"/>
        <pt x="843" y="220" on="1"/>
        <pt x="1459" y="220" on="1"/>
        <pt x="1459" y="0" on="1"/>
        <pt x="56" y="0" on="1"/>
      </contour>
    </TTGlyph>
    <TTGlyph name="a" xMin="75" yMin="-19" xMax="1427" yMax="1010">
      <contour>
        <pt x="75" y="312" on="1"/>
        <pt x="75" y="384" on="0"/>
        <pt x="139" y="508" on="0"/>
        <pt x="259" y="600" on="0"/>
        <pt x="429" y="653" on="0"/>
        <pt x="534" y="653" on="1"/>
        <pt x="639" y="653" on="0"/>
        <pt x="822" y="604" on="0"/>
        <pt x="884" y="566" on="1"/>
        <pt x="884" y="574" on="1"/>
        <pt x="884" y="644" on="0"/>
        <pt x="853" y="742" on="0"/>
        <pt x="789" y="804" on="0"/>
        <pt x="690" y="832" on="0"/>
        <pt x="623" y="832" on="1"/>
        <pt x="562" y="832" on="0"/>
        <pt x="432" y="811" on="0"/>
        <pt x="377" y="791" on="1"/>
        <pt x="304" y="926" on="1"/>
        <pt x="413" y="971" on="0"/>
        <pt x="646" y="1010" on="0"/>
        <pt x="770" y="1010" on="1"/>
        <pt x="929" y="1010" on="0"/>
        <pt x="1174" y="949" on="0"/>
        <pt x="1341" y="828" on="0"/>
        <pt x="1427" y="645" on="0"/>
        <pt x="1427" y="522" on="1"/>
        <pt x="1427" y="0" on="1"/>
        <pt x="920" y="0" on="1"/>
        <pt x="886" y="96" on="1"/>
        <pt x="856" y="73" on="0"/>
        <pt x="774" y="31" on="0"/>
        <pt x="676" y="-1" on="0"/>
        <pt x="566" y="-19" on="0"/>
        <pt x="506" y="-19" on="1"/>
        <pt x="408" y="-19" on="0"/>
        <pt x="249" y="32" on="0"/>
        <pt x="137" y="120" on="0"/>
        <pt x="75" y="241" on="0"/>
      </contour>
      <contour>
        <pt x="635" y="333" on="1"/>
        <pt x="635" y="279" on="0"/>
        <pt x="705" y="212" on="0"/>
        <pt x="764" y="212" on="1"/>
        <pt x="796" y="212" on="0"/>
        <pt x="858" y="233" on="0"/>
        <pt x="884" y="254" on="1"/>
        <pt x="884" y="423" on="1"/>
        <pt x="834" y="453" on="0"/>
        <pt x="774" y="453" on="1"/>
        <pt x="706" y="453" on="0"/>
        <pt x="635" y="386" on="0"/>
      </contour>
    </TTGlyph>
    <TTGlyph name="aacute" xMin="75" yMin="-19" xMax="1427" yMax="1586">
      <contour>
        <pt x="420" y="1286" on="1"/>
        <pt x="592" y="1349" on="0"/>
        <pt x="863" y="1500" on="0"/>
        <pt x="979" y="1586" on="1"/>
        <pt x="1133" y="1399" on="1"/>
        <pt x="1075" y="1360" on="0"/>
        <pt x="920" y="1286" on="0"/>
        <pt x="747" y="1226" on="0"/>
        <pt x="567" y="1182" on="0"/>
        <pt x="485" y="1172" on="1"/>
      </contour>
      <contour>
        <pt x="75" y="312" on="1"/>
        <pt x="75" y="384" on="0"/>
        <pt x="139" y="508" on="0"/>
        <pt x="259" y="600" on="0"/>
        <pt x="429" y="653" on="0"/>
        <pt x="534" y="653" on="1"/>
        <pt x="639" y="653" on="0"/>
        <pt x="822" y="604" on="0"/>
        <pt x="884" y="566" on="1"/>
        <pt x="884" y="574" on="1"/>
        <pt x="884" y="644" on="0"/>
        <pt x="853" y="742" on="0"/>
        <pt x="789" y="804" on="0"/>
        <pt x="690" y="832" on="0"/>
        <pt x="623" y="832" on="1"/>
        <pt x="562" y="832" on="0"/>
        <pt x="432" y="811" on="0"/>
        <pt x="377" y="791" on="1"/>
        <pt x="304" y="926" on="1"/>
        <pt x="413" y="971" on="0"/>
        <pt x="646" y="1010" on="0"/>
        <pt x="770" y="1010" on="1"/>
        <pt x="929" y="1010" on="0"/>
        <pt x="1174" y="949" on="0"/>
        <pt x="1341" y="828" on="0"/>
        <pt x="1427" y="645" on="0"/>
        <pt x="1427" y="522" on="1"/>
        <pt x="1427" y="0" on="1"/>
        <pt x="920" y="0" on="1"/>
        <pt x="886" y="96" on="1"/>
        <pt x="856" y="73" on="0"/>
        <pt x="774" y="31" on="0"/>
        <pt x="676" y="-1" on="0"/>
        <pt x="566" y="-19" on="0"/>
        <pt x="506" y="-19" on="1"/>
        <pt x="408" y="-19" on="0"/>
        <pt x="249" y="32" on="0"/>
        <pt x="137" y="120" on="0"/>
        <pt x="75" y="241" on="0"/>
      </contour>
      <contour>
        <pt x="635" y="333" on="1"/>
        <pt x="635" y="279" on="0"/>
        <pt x="705" y="212" on="0"/>
        <pt x="764" y="212" on="1"/>
        <pt x="796" y="212" on="0"/>
        <pt x="858" y="233" on="0"/>
        <pt x="884" y="254" on="1"/>
        <pt x="884" y="423" on="1"/>
        <pt x="834" y="453" on="0"/>
        <pt x="774" y="453" on="1"/>
        <pt x="706" y="453" on="0"/>
        <pt x="635" y="386" on="0"/>
      </contour>
    </TTGlyph>
    <TTGlyph name="acircumflex" xMin="75" yMin="-19" xMax="1427" yMax="1586">
      <contour>
        <pt x="310" y="1286" on="1"/>
        <pt x="454" y="1349" on="0"/>
        <pt x="679" y="1499" on="0"/>
        <pt x="776" y="1586" on="1"/>
        <pt x="873" y="1499" on="0"/>
        <pt x="1098" y="1349" on="0"/>
        <pt x="1243" y="1286" on="1"/>
        <pt x="1177" y="1172" on="1"/>
        <pt x="1081" y="1185" on="0"/>
        <pt x="870" y="1254" on="0"/>
        <pt x="776" y="1302" on="1"/>
        <pt x="682" y="1254" on="0"/>
        <pt x="471" y="1185" on="0"/>
        <pt x="375" y="1172" on="1"/>
      </contour>
      <contour>
        <pt x="75" y="312" on="1"/>
        <pt x="75" y="384" on="0"/>
        <pt x="139" y="508" on="0"/>
        <pt x="259" y="600" on="0"/>
        <pt x="429" y="653" on="0"/>
        <pt x="534" y="653" on="1"/>
        <pt x="639" y="653" on="0"/>
        <pt x="822" y="604" on="0"/>
        <pt x="884" y="566" on="1"/>
        <pt x="884" y="574" on="1"/>
        <pt x="884" y="644" on="0"/>
        <pt x="853" y="742" on="0"/>
        <pt x="789" y="804" on="0"/>
        <pt x="690" y="832" on="0"/>
        <pt x="623" y="832" on="1"/>
        <pt x="562" y="832" on="0"/>
        <pt x="432" y="811" on="0"/>
        <pt x="377" y="791" on="1"/>
        <pt x="304" y="926" on="1"/>
        <pt x="413" y="971" on="0"/>
        <pt x="646" y="1010" on="0"/>
        <pt x="770" y="1010" on="1"/>
        <pt x="929" y="1010" on="0"/>
        <pt x="1174" y="949" on="0"/>
        <pt x="1341" y="828" on="0"/>
        <pt x="1427" y="645" on="0"/>
        <pt x="1427" y="522" on="1"/>
        <pt x="1427" y="0" on="1"/>
        <pt x="920" y="0" on="1"/>
        <pt x="886" y="96" on="1"/>
        <pt x="856" y="73" on="0"/>
        <pt x="774" y="31" on="0"/>
        <pt x="676" y="-1" on="0"/>
        <pt x="566" y="-19" on="0"/>
        <pt x="506" y="-19" on="1"/>
        <pt x="408" y="-19" on="0"/>
        <pt x="249" y="32" on="0"/>
        <pt x="137" y="120" on="0"/>
        <pt x="75" y="241" on="0"/>
      </contour>
      <contour>
        <pt x="635" y="333" on="1"/>
        <pt x="635" y="279" on="0"/>
        <pt x="705" y="212" on="0"/>
        <pt x="764" y="212" on="1"/>
        <pt x="796" y="212" on="0"/>
        <pt x="858" y="233" on="0"/>
        <pt x="884" y="254" on="1"/>
        <pt x="884" y="423" on="1"/>
        <pt x="834" y="453" on="0"/>
        <pt x="774" y="453" on="1"/>
        <pt x="706" y="453" on="0"/>
        <pt x="635" y="386" on="0"/>
      </contour>
    </TTGlyph>
    <TTGlyph name="acute" xMin="120" yMin="1172" xMax="833" yMax="1586">
      <contour>
        <pt x="120" y="1286" on="1"/>
        <pt x="292" y="1349" on="0"/>
        <pt x="563" y="1500" on="0"/>
        <pt x="679" y="1586" on="1"/>
        <pt x="833" y="1399" on="1"/>
        <pt x="775" y="1360" on="0"/>
        <pt x="620" y="1286" on="0"/>
        <pt x="447" y="1226" on="0"/>
        <pt x="267" y="1182" on="0"/>
        <pt x="185" y="1172" on="1"/>
      </contour>
    </TTGlyph>
    <TTGlyph name="acute.cap" xMin="120" yMin="1571" xMax="833" yMax="1920">
      <contour>
        <pt x="120" y="1684" on="1"/>
        <pt x="186" y="1699" on="0"/>
        <pt x="337" y="1748" on="0"/>
        <pt x="487" y="1810" on="0"/>
        <pt x="626" y="1882" on="0"/>
        <pt x="679" y="1920" on="1"/>
        <pt x="833" y="1732" on="1"/>
        <pt x="694" y="1663" on="0"/>
        <pt x="363" y="1582" on="0"/>
        <pt x="185" y="1571" on="1"/>
      </contour>
    </TTGlyph>
    <TTGlyph name="adieresis" xMin="75" yMin="-19" xMax="1427" yMax="1550">
      <contour>
        <pt x="891" y="1353" on="1"/>
        <pt x="891" y="1394" on="0"/>
        <pt x="921" y="1466" on="0"/>
        <pt x="986" y="1519" on="0"/>
        <pt x="1086" y="1550" on="0"/>
        <pt x="1157" y="1550" on="1"/>
        <pt x="1227" y="1550" on="0"/>
        <pt x="1329" y="1519" on="0"/>
        <pt x="1393" y="1466" on="0"/>
        <pt x="1424" y="1394" on="0"/>
        <pt x="1424" y="1353" on="1"/>
        <pt x="1424" y="1312" on="0"/>
        <pt x="1393" y="1240" on="0"/>
        <pt x="1329" y="1187" on="0"/>
        <pt x="1227" y="1156" on="0"/>
        <pt x="1157" y="1156" on="1"/>
        <pt x="1086" y="1156" on="0"/>
        <pt x="986" y="1187" on="0"/>
        <pt x="921" y="1240" on="0"/>
        <pt x="891" y="1312" on="0"/>
      </contour>
      <contour>
        <pt x="394" y="1156" on="1"/>
        <pt x="323" y="1156" on="0"/>
        <pt x="223" y="1187" on="0"/>
        <pt x="158" y="1240" on="0"/>
        <pt x="128" y="1312" on="0"/>
        <pt x="128" y="1353" on="1"/>
        <pt x="128" y="1394" on="0"/>
        <pt x="158" y="1466" on="0"/>
        <pt x="223" y="1519" on="0"/>
        <pt x="323" y="1550" on="0"/>
        <pt x="394" y="1550" on="1"/>
        <pt x="464" y="1550" on="0"/>
        <pt x="566" y="1519" on="0"/>
        <pt x="630" y="1466" on="0"/>
        <pt x="661" y="1394" on="0"/>
        <pt x="661" y="1353" on="1"/>
        <pt x="661" y="1312" on="0"/>
        <pt x="630" y="1240" on="0"/>
        <pt x="566" y="1187" on="0"/>
        <pt x="464" y="1156" on="0"/>
      </contour>
      <contour>
        <pt x="75" y="312" on="1"/>
        <pt x="75" y="384" on="0"/>
        <pt x="139" y="508" on="0"/>
        <pt x="259" y="600" on="0"/>
        <pt x="429" y="653" on="0"/>
        <pt x="534" y="653" on="1"/>
        <pt x="639" y="653" on="0"/>
        <pt x="822" y="604" on="0"/>
        <pt x="884" y="566" on="1"/>
        <pt x="884" y="574" on="1"/>
        <pt x="884" y="644" on="0"/>
        <pt x="853" y="742" on="0"/>
        <pt x="789" y="804" on="0"/>
        <pt x="690" y="832" on="0"/>
        <pt x="623" y="832" on="1"/>
        <pt x="562" y="832" on="0"/>
        <pt x="432" y="811" on="0"/>
        <pt x="377" y="791" on="1"/>
        <pt x="304" y="926" on="1"/>
        <pt x="413" y="971" on="0"/>
        <pt x="646" y="1010" on="0"/>
        <pt x="770" y="1010" on="1"/>
        <pt x="929" y="1010" on="0"/>
        <pt x="1174" y="949" on="0"/>
        <pt x="1341" y="828" on="0"/>
        <pt x="1427" y="645" on="0"/>
        <pt x="1427" y="522" on="1"/>
        <pt x="1427" y="0" on="1"/>
        <pt x="920" y="0" on="1"/>
        <pt x="886" y="96" on="1"/>
        <pt x="856" y="73" on="0"/>
        <pt x="774" y="31" on="0"/>
        <pt x="676" y="-1" on="0"/>
        <pt x="566" y="-19" on="0"/>
        <pt x="506" y="-19" on="1"/>
        <pt x="408" y="-19" on="0"/>
        <pt x="249" y="32" on="0"/>
        <pt x="137" y="120" on="0"/>
        <pt x="75" y="241" on="0"/>
      </contour>
      <contour>
        <pt x="635" y="333" on="1"/>
        <pt x="635" y="279" on="0"/>
        <pt x="705" y="212" on="0"/>
        <pt x="764" y="212" on="1"/>
        <pt x="796" y="212" on="0"/>
        <pt x="858" y="233" on="0"/>
        <pt x="884" y="254" on="1"/>
        <pt x="884" y="423" on="1"/>
        <pt x="834" y="453" on="0"/>
        <pt x="774" y="453" on="1"/>
        <pt x="706" y="453" on="0"/>
        <pt x="635" y="386" on="0"/>
      </contour>
    </TTGlyph>
    <TTGlyph name="ae" xMin="75" yMin="-19" xMax="2212" yMax="1010">
      <contour>
        <pt x="75" y="311" on="1"/>
        <pt x="75" y="383" on="0"/>
        <pt x="139" y="508" on="0"/>
        <pt x="259" y="600" on="0"/>
        <pt x="429" y="653" on="0"/>
        <pt x="534" y="653" on="1"/>
        <pt x="639" y="653" on="0"/>
        <pt x="822" y="604" on="0"/>
        <pt x="884" y="566" on="1"/>
        <pt x="884" y="639" on="0"/>
        <pt x="853" y="741" on="0"/>
        <pt x="789" y="804" on="0"/>
        <pt x="690" y="832" on="0"/>
        <pt x="623" y="832" on="1"/>
        <pt x="562" y="832" on="0"/>
        <pt x="432" y="811" on="0"/>
        <pt x="377" y="791" on="1"/>
        <pt x="304" y="926" on="1"/>
        <pt x="413" y="971" on="0"/>
        <pt x="646" y="1010" on="0"/>
        <pt x="770" y="1010" on="1"/>
        <pt x="890" y="1010" on="0"/>
        <pt x="1100" y="965" on="0"/>
        <pt x="1185" y="920" on="1"/>
        <pt x="1277" y="965" on="0"/>
        <pt x="1477" y="1010" on="0"/>
        <pt x="1568" y="1010" on="1"/>
        <pt x="1680" y="1010" on="0"/>
        <pt x="1863" y="965" on="0"/>
        <pt x="2006" y="887" on="0"/>
        <pt x="2111" y="783" on="0"/>
        <pt x="2179" y="666" on="0"/>
        <pt x="2212" y="542" on="0"/>
        <pt x="2212" y="483" on="1"/>
        <pt x="1458" y="392" on="1"/>
        <pt x="1481" y="280" on="0"/>
        <pt x="1607" y="159" on="0"/>
        <pt x="1728" y="159" on="1"/>
        <pt x="1794" y="159" on="0"/>
        <pt x="1907" y="191" on="0"/>
        <pt x="1939" y="214" on="1"/>
        <pt x="2019" y="74" on="1"/>
        <pt x="1982" y="55" on="0"/>
        <pt x="1895" y="21" on="0"/>
        <pt x="1790" y="-4" on="0"/>
        <pt x="1663" y="-19" on="0"/>
        <pt x="1587" y="-19" on="1"/>
        <pt x="1410" y="-19" on="0"/>
        <pt x="1145" y="71" on="0"/>
        <pt x="1056" y="146" on="1"/>
        <pt x="1014" y="117" on="0"/>
        <pt x="897" y="58" on="0"/>
        <pt x="756" y="11" on="0"/>
        <pt x="599" y="-19" on="0"/>
        <pt x="517" y="-19" on="1"/>
        <pt x="413" y="-19" on="0"/>
        <pt x="249" y="32" on="0"/>
        <pt x="135" y="120" on="0"/>
        <pt x="75" y="241" on="0"/>
      </contour>
      <contour>
        <pt x="1727" y="585" on="1"/>
        <pt x="1727" y="715" on="0"/>
        <pt x="1662" y="833" on="0"/>
        <pt x="1599" y="833" on="1"/>
        <pt x="1566" y="833" on="0"/>
        <pt x="1511" y="801" on="0"/>
        <pt x="1470" y="733" on="0"/>
        <pt x="1447" y="626" on="0"/>
        <pt x="1446" y="551" on="1"/>
      </contour>
      <contour>
        <pt x="635" y="333" on="1"/>
        <pt x="635" y="279" on="0"/>
        <pt x="705" y="212" on="0"/>
        <pt x="764" y="212" on="1"/>
        <pt x="796" y="212" on="0"/>
        <pt x="859" y="233" on="0"/>
        <pt x="885" y="255" on="1"/>
        <pt x="884" y="423" on="1"/>
        <pt x="834" y="453" on="0"/>
        <pt x="774" y="453" on="1"/>
        <pt x="706" y="453" on="0"/>
        <pt x="635" y="386" on="0"/>
      </contour>
    </TTGlyph>
    <TTGlyph name="agrave" xMin="75" yMin="-19" xMax="1427" yMax="1586">
      <contour>
        <pt x="574" y="1586" on="1"/>
        <pt x="689" y="1500" on="0"/>
        <pt x="961" y="1349" on="0"/>
        <pt x="1133" y="1286" on="1"/>
        <pt x="1068" y="1172" on="1"/>
        <pt x="986" y="1182" on="0"/>
        <pt x="806" y="1226" on="0"/>
        <pt x="633" y="1286" on="0"/>
        <pt x="478" y="1360" on="0"/>
        <pt x="420" y="1399" on="1"/>
      </contour>
      <contour>
        <pt x="75" y="312" on="1"/>
        <pt x="75" y="384" on="0"/>
        <pt x="139" y="508" on="0"/>
        <pt x="259" y="600" on="0"/>
        <pt x="429" y="653" on="0"/>
        <pt x="534" y="653" on="1"/>
        <pt x="639" y="653" on="0"/>
        <pt x="822" y="604" on="0"/>
        <pt x="884" y="566" on="1"/>
        <pt x="884" y="574" on="1"/>
        <pt x="884" y="644" on="0"/>
        <pt x="853" y="742" on="0"/>
        <pt x="789" y="804" on="0"/>
        <pt x="690" y="832" on="0"/>
        <pt x="623" y="832" on="1"/>
        <pt x="562" y="832" on="0"/>
        <pt x="432" y="811" on="0"/>
        <pt x="377" y="791" on="1"/>
        <pt x="304" y="926" on="1"/>
        <pt x="413" y="971" on="0"/>
        <pt x="646" y="1010" on="0"/>
        <pt x="770" y="1010" on="1"/>
        <pt x="929" y="1010" on="0"/>
        <pt x="1174" y="949" on="0"/>
        <pt x="1341" y="828" on="0"/>
        <pt x="1427" y="645" on="0"/>
        <pt x="1427" y="522" on="1"/>
        <pt x="1427" y="0" on="1"/>
        <pt x="920" y="0" on="1"/>
        <pt x="886" y="96" on="1"/>
        <pt x="856" y="73" on="0"/>
        <pt x="774" y="31" on="0"/>
        <pt x="676" y="-1" on="0"/>
        <pt x="566" y="-19" on="0"/>
        <pt x="506" y="-19" on="1"/>
        <pt x="408" y="-19" on="0"/>
        <pt x="249" y="32" on="0"/>
        <pt x="137" y="120" on="0"/>
        <pt x="75" y="241" on="0"/>
      </contour>
      <contour>
        <pt x="635" y="333" on="1"/>
        <pt x="635" y="279" on="0"/>
        <pt x="705" y="212" on="0"/>
        <pt x="764" y="212" on="1"/>
        <pt x="796" y="212" on="0"/>
        <pt x="858" y="233" on="0"/>
        <pt x="884" y="254" on="1"/>
        <pt x="884" y="423" on="1"/>
        <pt x="834" y="453" on="0"/>
        <pt x="774" y="453" on="1"/>
        <pt x="706" y="453" on="0"/>
        <pt x="635" y="386" on="0"/>
      </contour>
    </TTGlyph>
    <TTGlyph name="ampersand" xMin="180" yMin="-25" xMax="1832" yMax="1511">
      <contour>
        <pt x="180" y="472" on="1"/>
        <pt x="180" y="543" on="0"/>
        <pt x="225" y="676" on="0"/>
        <pt x="316" y="793" on="0"/>
        <pt x="454" y="889" on="0"/>
        <pt x="548" y="923" on="1"/>
        <pt x="493" y="948" on="0"/>
        <pt x="416" y="1008" on="0"/>
        <pt x="368" y="1074" on="0"/>
        <pt x="347" y="1144" on="0"/>
        <pt x="347" y="1180" on="1"/>
        <pt x="347" y="1256" on="0"/>
        <pt x="434" y="1378" on="0"/>
        <pt x="591" y="1464" on="0"/>
        <pt x="810" y="1511" on="0"/>
        <pt x="941" y="1511" on="1"/>
        <pt x="1053" y="1511" on="0"/>
        <pt x="1264" y="1478" on="0"/>
        <pt x="1355" y="1448" on="1"/>
        <pt x="1300" y="1288" on="1"/>
        <pt x="1251" y="1305" on="0"/>
        <pt x="1153" y="1321" on="0"/>
        <pt x="1110" y="1321" on="1"/>
        <pt x="1011" y="1321" on="0"/>
        <pt x="906" y="1249" on="0"/>
        <pt x="906" y="1189" on="1"/>
        <pt x="906" y="1157" on="0"/>
        <pt x="939" y="1093" on="0"/>
        <pt x="1010" y="1038" on="0"/>
        <pt x="1120" y="997" on="0"/>
        <pt x="1198" y="990" on="1"/>
        <pt x="1147" y="830" on="1"/>
        <pt x="1146" y="830" on="1"/>
        <pt x="1044" y="830" on="0"/>
        <pt x="891" y="779" on="0"/>
        <pt x="789" y="692" on="0"/>
        <pt x="739" y="575" on="0"/>
        <pt x="739" y="509" on="1"/>
        <pt x="739" y="440" on="0"/>
        <pt x="790" y="327" on="0"/>
        <pt x="879" y="247" on="0"/>
        <pt x="999" y="203" on="0"/>
        <pt x="1067" y="203" on="1"/>
        <pt x="1138" y="203" on="0"/>
        <pt x="1268" y="251" on="0"/>
        <pt x="1368" y="343" on="0"/>
        <pt x="1429" y="478" on="0"/>
        <pt x="1433" y="653" on="0"/>
        <pt x="1370" y="866" on="0"/>
        <pt x="1296" y="991" on="1"/>
        <pt x="1832" y="991" on="1"/>
        <pt x="1761" y="784" on="1"/>
        <pt x="1588" y="784" on="1"/>
        <pt x="1617" y="691" on="0"/>
        <pt x="1628" y="498" on="0"/>
        <pt x="1584" y="318" on="0"/>
        <pt x="1481" y="160" on="0"/>
        <pt x="1310" y="43" on="0"/>
        <pt x="1068" y="-25" on="0"/>
        <pt x="908" y="-25" on="1"/>
        <pt x="788" y="-25" on="0"/>
        <pt x="587" y="14" on="0"/>
        <pt x="425" y="83" on="0"/>
        <pt x="303" y="177" on="0"/>
        <pt x="221" y="287" on="0"/>
        <pt x="180" y="409" on="0"/>
      </contour>
    </TTGlyph>
    <TTGlyph name="aring" xMin="75" yMin="-19" xMax="1427" yMax="1548">
      <contour>
        <pt x="774" y="1182" on="1"/>
        <pt x="693" y="1182" on="0"/>
        <pt x="575" y="1212" on="0"/>
        <pt x="500" y="1262" on="0"/>
        <pt x="464" y="1328" on="0"/>
        <pt x="464" y="1365" on="1"/>
        <pt x="464" y="1402" on="0"/>
        <pt x="500" y="1468" on="0"/>
        <pt x="575" y="1518" on="0"/>
        <pt x="693" y="1548" on="0"/>
        <pt x="774" y="1548" on="1"/>
        <pt x="855" y="1548" on="0"/>
        <pt x="973" y="1518" on="0"/>
        <pt x="1048" y="1468" on="0"/>
        <pt x="1084" y="1402" on="0"/>
        <pt x="1084" y="1365" on="1"/>
        <pt x="1084" y="1328" on="0"/>
        <pt x="1048" y="1262" on="0"/>
        <pt x="973" y="1212" on="0"/>
        <pt x="855" y="1182" on="0"/>
      </contour>
      <contour>
        <pt x="774" y="1282" on="1"/>
        <pt x="837" y="1282" on="0"/>
        <pt x="901" y="1333" on="0"/>
        <pt x="901" y="1365" on="1"/>
        <pt x="901" y="1397" on="0"/>
        <pt x="837" y="1448" on="0"/>
        <pt x="774" y="1448" on="1"/>
        <pt x="711" y="1448" on="0"/>
        <pt x="647" y="1397" on="0"/>
        <pt x="647" y="1365" on="1"/>
        <pt x="647" y="1333" on="0"/>
        <pt x="711" y="1282" on="0"/>
      </contour>
      <contour>
        <pt x="75" y="312" on="1"/>
        <pt x="75" y="384" on="0"/>
        <pt x="139" y="508" on="0"/>
        <pt x="259" y="600" on="0"/>
        <pt x="429" y="653" on="0"/>
        <pt x="534" y="653" on="1"/>
        <pt x="639" y="653" on="0"/>
        <pt x="822" y="604" on="0"/>
        <pt x="884" y="566" on="1"/>
        <pt x="884" y="574" on="1"/>
        <pt x="884" y="644" on="0"/>
        <pt x="853" y="742" on="0"/>
        <pt x="789" y="804" on="0"/>
        <pt x="690" y="832" on="0"/>
        <pt x="623" y="832" on="1"/>
        <pt x="562" y="832" on="0"/>
        <pt x="432" y="811" on="0"/>
        <pt x="377" y="791" on="1"/>
        <pt x="304" y="926" on="1"/>
        <pt x="413" y="971" on="0"/>
        <pt x="646" y="1010" on="0"/>
        <pt x="770" y="1010" on="1"/>
        <pt x="929" y="1010" on="0"/>
        <pt x="1174" y="949" on="0"/>
        <pt x="1341" y="828" on="0"/>
        <pt x="1427" y="645" on="0"/>
        <pt x="1427" y="522" on="1"/>
        <pt x="1427" y="0" on="1"/>
        <pt x="920" y="0" on="1"/>
        <pt x="886" y="96" on="1"/>
        <pt x="856" y="73" on="0"/>
        <pt x="774" y="31" on="0"/>
        <pt x="676" y="-1" on="0"/>
        <pt x="566" y="-19" on="0"/>
        <pt x="506" y="-19" on="1"/>
        <pt x="408" y="-19" on="0"/>
        <pt x="249" y="32" on="0"/>
        <pt x="137" y="120" on="0"/>
        <pt x="75" y="241" on="0"/>
      </contour>
      <contour>
        <pt x="635" y="333" on="1"/>
        <pt x="635" y="279" on="0"/>
        <pt x="705" y="212" on="0"/>
        <pt x="764" y="212" on="1"/>
        <pt x="796" y="212" on="0"/>
        <pt x="858" y="233" on="0"/>
        <pt x="884" y="254" on="1"/>
        <pt x="884" y="423" on="1"/>
        <pt x="834" y="453" on="0"/>
        <pt x="774" y="453" on="1"/>
        <pt x="706" y="453" on="0"/>
        <pt x="635" y="386" on="0"/>
      </contour>
    </TTGlyph>
    <TTGlyph name="asciicircum" xMin="121" yMin="291" xMax="1240" yMax="985">
      <contour>
        <pt x="121" y="405" on="1"/>
        <pt x="293" y="526" on="0"/>
        <pt x="564" y="816" on="0"/>
        <pt x="680" y="985" on="1"/>
        <pt x="795" y="816" on="0"/>
        <pt x="1068" y="526" on="0"/>
        <pt x="1240" y="405" on="1"/>
        <pt x="1175" y="291" on="1"/>
        <pt x="1116" y="307" on="0"/>
        <pt x="988" y="368" on="0"/>
        <pt x="861" y="450" on="0"/>
        <pt x="736" y="552" on="0"/>
        <pt x="680" y="609" on="1"/>
        <pt x="624" y="552" on="0"/>
        <pt x="500" y="450" on="0"/>
        <pt x="372" y="367" on="0"/>
        <pt x="245" y="307" on="0"/>
        <pt x="186" y="291" on="1"/>
      </contour>
    </TTGlyph>
    <TTGlyph name="asciitilde" xMin="120" yMin="394" xMax="1246" yMax="732">
      <contour>
        <pt x="120" y="517" on="1"/>
        <pt x="172" y="580" on="0"/>
        <pt x="265" y="663" on="0"/>
        <pt x="358" y="712" on="0"/>
        <pt x="456" y="732" on="0"/>
        <pt x="513" y="732" on="1"/>
        <pt x="570" y="732" on="0"/>
        <pt x="666" y="692" on="0"/>
        <pt x="753" y="645" on="0"/>
        <pt x="839" y="605" on="0"/>
        <pt x="887" y="605" on="1"/>
        <pt x="923" y="605" on="0"/>
        <pt x="989" y="615" on="0"/>
        <pt x="1055" y="637" on="0"/>
        <pt x="1127" y="675" on="0"/>
        <pt x="1170" y="704" on="1"/>
        <pt x="1246" y="609" on="1"/>
        <pt x="1194" y="546" on="0"/>
        <pt x="1101" y="463" on="0"/>
        <pt x="1008" y="414" on="0"/>
        <pt x="909" y="394" on="0"/>
        <pt x="852" y="394" on="1"/>
        <pt x="795" y="394" on="0"/>
        <pt x="700" y="434" on="0"/>
        <pt x="612" y="482" on="0"/>
        <pt x="526" y="522" on="0"/>
        <pt x="478" y="522" on="1"/>
        <pt x="442" y="522" on="0"/>
        <pt x="377" y="512" on="0"/>
        <pt x="310" y="489" on="0"/>
        <pt x="238" y="450" on="0"/>
        <pt x="195" y="422" on="1"/>
      </contour>
    </TTGlyph>
    <TTGlyph name="asterisk" xMin="120" yMin="739" xMax="1108" yMax="1652">
      <contour>
        <pt x="254" y="912" on="1"/>
        <pt x="498" y="1128" on="1"/>
        <pt x="120" y="1179" on="1"/>
        <pt x="212" y="1460" on="1"/>
        <pt x="544" y="1288" on="1"/>
        <pt x="476" y="1652" on="1"/>
        <pt x="772" y="1652" on="1"/>
        <pt x="705" y="1297" on="1"/>
        <pt x="1016" y="1466" on="1"/>
        <pt x="1108" y="1185" on="1"/>
        <pt x="781" y="1138" on="1"/>
        <pt x="1006" y="929" on="1"/>
        <pt x="767" y="756" on="1"/>
        <pt x="631" y="1036" on="1"/>
        <pt x="493" y="739" on="1"/>
      </contour>
    </TTGlyph>
    <TTGlyph name="at" xMin="180" yMin="-373" xMax="2283" yMax="1359">
      <contour>
        <pt x="180" y="469" on="1"/>
        <pt x="180" y="577" on="0"/>
        <pt x="246" y="794" on="0"/>
        <pt x="375" y="992" on="0"/>
        <pt x="563" y="1162" on="0"/>
        <pt x="808" y="1287" on="0"/>
        <pt x="1108" y="1359" on="0"/>
        <pt x="1283" y="1359" on="1"/>
        <pt x="1422" y="1359" on="0"/>
        <pt x="1678" y="1313" on="0"/>
        <pt x="1900" y="1225" on="0"/>
        <pt x="2082" y="1097" on="0"/>
        <pt x="2212" y="933" on="0"/>
        <pt x="2283" y="734" on="0"/>
        <pt x="2283" y="620" on="1"/>
        <pt x="2283" y="527" on="0"/>
        <pt x="2237" y="360" on="0"/>
        <pt x="2156" y="219" on="0"/>
        <pt x="2046" y="107" on="0"/>
        <pt x="1918" y="29" on="0"/>
        <pt x="1778" y="-13" on="0"/>
        <pt x="1707" y="-13" on="1"/>
        <pt x="1656" y="-13" on="0"/>
        <pt x="1569" y="8" on="0"/>
        <pt x="1498" y="45" on="0"/>
        <pt x="1442" y="94" on="0"/>
        <pt x="1420" y="123" on="1"/>
        <pt x="1353" y="84" on="0"/>
        <pt x="1167" y="31" on="0"/>
        <pt x="1061" y="31" on="1"/>
        <pt x="945" y="31" on="0"/>
        <pt x="758" y="98" on="0"/>
        <pt x="626" y="215" on="0"/>
        <pt x="554" y="372" on="0"/>
        <pt x="554" y="463" on="1"/>
        <pt x="554" y="556" on="0"/>
        <pt x="629" y="717" on="0"/>
        <pt x="768" y="836" on="0"/>
        <pt x="963" y="904" on="0"/>
        <pt x="1083" y="904" on="1"/>
        <pt x="1131" y="904" on="0"/>
        <pt x="1225" y="893" on="0"/>
        <pt x="1313" y="874" on="0"/>
        <pt x="1393" y="850" on="0"/>
        <pt x="1427" y="837" on="1"/>
        <pt x="1433" y="889" on="1"/>
        <pt x="1923" y="889" on="1"/>
        <pt x="1826" y="304" on="1"/>
        <pt x="1824" y="290" on="0"/>
        <pt x="1822" y="268" on="0"/>
        <pt x="1822" y="258" on="1"/>
        <pt x="1822" y="205" on="0"/>
        <pt x="1855" y="205" on="1"/>
        <pt x="1882" y="205" on="0"/>
        <pt x="1955" y="270" on="0"/>
        <pt x="2022" y="383" on="0"/>
        <pt x="2069" y="536" on="0"/>
        <pt x="2069" y="623" on="1"/>
        <pt x="2069" y="760" on="0"/>
        <pt x="1947" y="966" on="0"/>
        <pt x="1734" y="1104" on="0"/>
        <pt x="1448" y="1173" on="0"/>
        <pt x="1284" y="1173" on="1"/>
        <pt x="1142" y="1173" on="0"/>
        <pt x="900" y="1121" on="0"/>
        <pt x="702" y="1028" on="0"/>
        <pt x="551" y="898" on="0"/>
        <pt x="448" y="741" on="0"/>
        <pt x="395" y="563" on="0"/>
        <pt x="395" y="468" on="1"/>
        <pt x="395" y="359" on="0"/>
        <pt x="461" y="175" on="0"/>
        <pt x="581" y="27" on="0"/>
        <pt x="749" y="-84" on="0"/>
        <pt x="953" y="-159" on="0"/>
        <pt x="1185" y="-197" on="0"/>
        <pt x="1310" y="-197" on="1"/>
        <pt x="1400" y="-197" on="0"/>
        <pt x="1585" y="-177" on="0"/>
        <pt x="1679" y="-157" on="1"/>
        <pt x="1657" y="-316" on="1"/>
        <pt x="1560" y="-345" on="0"/>
        <pt x="1354" y="-373" on="0"/>
        <pt x="1248" y="-373" on="1"/>
        <pt x="1116" y="-373" on="0"/>
        <pt x="856" y="-328" on="0"/>
        <pt x="619" y="-237" on="0"/>
        <pt x="415" y="-98" on="0"/>
        <pt x="265" y="89" on="0"/>
        <pt x="180" y="325" on="0"/>
      </contour>
      <contour>
        <pt x="1153" y="488" on="1"/>
        <pt x="1153" y="442" on="0"/>
        <pt x="1179" y="365" on="0"/>
        <pt x="1227" y="309" on="0"/>
        <pt x="1294" y="278" on="0"/>
        <pt x="1334" y="278" on="1"/>
        <pt x="1352" y="278" on="0"/>
        <pt x="1369" y="281" on="1"/>
        <pt x="1411" y="681" on="1"/>
        <pt x="1377" y="689" on="0"/>
        <pt x="1345" y="689" on="1"/>
        <pt x="1299" y="689" on="0"/>
        <pt x="1227" y="659" on="0"/>
        <pt x="1178" y="606" on="0"/>
        <pt x="1153" y="532" on="0"/>
      </contour>
    </TTGlyph>
    <TTGlyph name="atilde" xMin="75" yMin="-19" xMax="1427" yMax="1450">
      <contour>
        <pt x="307" y="1263" on="1"/>
        <pt x="346" y="1318" on="0"/>
        <pt x="417" y="1390" on="0"/>
        <pt x="488" y="1433" on="0"/>
        <pt x="563" y="1450" on="0"/>
        <pt x="607" y="1450" on="1"/>
        <pt x="664" y="1450" on="0"/>
        <pt x="759" y="1427" on="0"/>
        <pt x="847" y="1400" on="0"/>
        <pt x="933" y="1378" on="0"/>
        <pt x="981" y="1378" on="1"/>
        <pt x="1005" y="1378" on="0"/>
        <pt x="1049" y="1385" on="0"/>
        <pt x="1094" y="1402" on="0"/>
        <pt x="1142" y="1430" on="0"/>
        <pt x="1171" y="1450" on="1"/>
        <pt x="1246" y="1355" on="1"/>
        <pt x="1207" y="1300" on="0"/>
        <pt x="1135" y="1228" on="0"/>
        <pt x="1064" y="1185" on="0"/>
        <pt x="989" y="1168" on="0"/>
        <pt x="946" y="1168" on="1"/>
        <pt x="889" y="1168" on="0"/>
        <pt x="793" y="1190" on="0"/>
        <pt x="706" y="1217" on="0"/>
        <pt x="620" y="1239" on="0"/>
        <pt x="572" y="1239" on="1"/>
        <pt x="548" y="1239" on="0"/>
        <pt x="504" y="1232" on="0"/>
        <pt x="459" y="1215" on="0"/>
        <pt x="411" y="1188" on="0"/>
        <pt x="382" y="1168" on="1"/>
      </contour>
      <contour>
        <pt x="75" y="312" on="1"/>
        <pt x="75" y="384" on="0"/>
        <pt x="139" y="508" on="0"/>
        <pt x="259" y="600" on="0"/>
        <pt x="429" y="653" on="0"/>
        <pt x="534" y="653" on="1"/>
        <pt x="639" y="653" on="0"/>
        <pt x="822" y="604" on="0"/>
        <pt x="884" y="566" on="1"/>
        <pt x="884" y="574" on="1"/>
        <pt x="884" y="644" on="0"/>
        <pt x="853" y="742" on="0"/>
        <pt x="789" y="804" on="0"/>
        <pt x="690" y="832" on="0"/>
        <pt x="623" y="832" on="1"/>
        <pt x="562" y="832" on="0"/>
        <pt x="432" y="811" on="0"/>
        <pt x="377" y="791" on="1"/>
        <pt x="304" y="926" on="1"/>
        <pt x="413" y="971" on="0"/>
        <pt x="646" y="1010" on="0"/>
        <pt x="770" y="1010" on="1"/>
        <pt x="929" y="1010" on="0"/>
        <pt x="1174" y="949" on="0"/>
        <pt x="1341" y="828" on="0"/>
        <pt x="1427" y="645" on="0"/>
        <pt x="1427" y="522" on="1"/>
        <pt x="1427" y="0" on="1"/>
        <pt x="920" y="0" on="1"/>
        <pt x="886" y="96" on="1"/>
        <pt x="856" y="73" on="0"/>
        <pt x="774" y="31" on="0"/>
        <pt x="676" y="-1" on="0"/>
        <pt x="566" y="-19" on="0"/>
        <pt x="506" y="-19" on="1"/>
        <pt x="408" y="-19" on="0"/>
        <pt x="249" y="32" on="0"/>
        <pt x="137" y="120" on="0"/>
        <pt x="75" y="241" on="0"/>
      </contour>
      <contour>
        <pt x="635" y="333" on="1"/>
        <pt x="635" y="279" on="0"/>
        <pt x="705" y="212" on="0"/>
        <pt x="764" y="212" on="1"/>
        <pt x="796" y="212" on="0"/>
        <pt x="858" y="233" on="0"/>
        <pt x="884" y="254" on="1"/>
        <pt x="884" y="423" on="1"/>
        <pt x="834" y="453" on="0"/>
        <pt x="774" y="453" on="1"/>
        <pt x="706" y="453" on="0"/>
        <pt x="635" y="386" on="0"/>
      </contour>
    </TTGlyph>
    <TTGlyph name="b" xMin="140" yMin="-19" xMax="1592" yMax="1650">
      <contour>
        <pt x="140" y="1650" on="1"/>
        <pt x="684" y="1650" on="1"/>
        <pt x="684" y="872" on="1"/>
        <pt x="712" y="899" on="0"/>
        <pt x="789" y="948" on="0"/>
        <pt x="882" y="987" on="0"/>
        <pt x="989" y="1010" on="0"/>
        <pt x="1048" y="1010" on="1"/>
        <pt x="1161" y="1010" on="0"/>
        <pt x="1359" y="944" on="0"/>
        <pt x="1507" y="814" on="0"/>
        <pt x="1592" y="622" on="0"/>
        <pt x="1592" y="495" on="1"/>
        <pt x="1592" y="378" on="0"/>
        <pt x="1511" y="189" on="0"/>
        <pt x="1359" y="54" on="0"/>
        <pt x="1142" y="-19" on="0"/>
        <pt x="1007" y="-19" on="1"/>
        <pt x="898" y="-19" on="0"/>
        <pt x="725" y="36" on="0"/>
        <pt x="666" y="81" on="1"/>
        <pt x="638" y="0" on="1"/>
        <pt x="141" y="0" on="1"/>
      </contour>
      <contour>
        <pt x="684" y="199" on="1"/>
        <pt x="708" y="179" on="0"/>
        <pt x="769" y="156" on="0"/>
        <pt x="799" y="156" on="1"/>
        <pt x="849" y="156" on="0"/>
        <pt x="934" y="193" on="0"/>
        <pt x="997" y="271" on="0"/>
        <pt x="1032" y="392" on="0"/>
        <pt x="1032" y="477" on="1"/>
        <pt x="1032" y="563" on="0"/>
        <pt x="999" y="685" on="0"/>
        <pt x="941" y="762" on="0"/>
        <pt x="861" y="798" on="0"/>
        <pt x="813" y="798" on="1"/>
        <pt x="776" y="798" on="0"/>
        <pt x="710" y="772" on="0"/>
        <pt x="684" y="752" on="1"/>
      </contour>
    </TTGlyph>
    <TTGlyph name="backslash" xMin="93" yMin="-23" xMax="1096" yMax="1510">
      <contour>
        <pt x="93" y="1362" on="1"/>
        <pt x="366" y="1510" on="1"/>
        <pt x="1096" y="124" on="1"/>
        <pt x="823" y="-23" on="1"/>
      </contour>
    </TTGlyph>
    <TTGlyph name="bar" xMin="200" yMin="-495" xMax="389" yMax="1651">
      <contour>
        <pt x="200" y="1651" on="1"/>
        <pt x="389" y="1651" on="1"/>
        <pt x="389" y="-495" on="1"/>
        <pt x="200" y="-495" on="1"/>
      </contour>
    </TTGlyph>
    <TTGlyph name="braceleft" xMin="120" yMin="-490" xMax="1076" yMax="1692">
      <contour>
        <pt x="401" y="255" on="1"/>
        <pt x="401" y="313" on="0"/>
        <pt x="362" y="421" on="0"/>
        <pt x="289" y="512" on="0"/>
        <pt x="185" y="581" on="0"/>
        <pt x="120" y="601" on="1"/>
        <pt x="185" y="620" on="0"/>
        <pt x="289" y="690" on="0"/>
        <pt x="362" y="781" on="0"/>
        <pt x="401" y="889" on="0"/>
        <pt x="401" y="947" on="1"/>
        <pt x="401" y="1164" on="1"/>
        <pt x="401" y="1264" on="0"/>
        <pt x="482" y="1442" on="0"/>
        <pt x="640" y="1583" on="0"/>
        <pt x="873" y="1677" on="0"/>
        <pt x="1025" y="1692" on="1"/>
        <pt x="1076" y="1568" on="1"/>
        <pt x="968" y="1524" on="0"/>
        <pt x="849" y="1331" on="0"/>
        <pt x="849" y="1191" on="1"/>
        <pt x="849" y="1071" on="1"/>
        <pt x="849" y="987" on="0"/>
        <pt x="798" y="844" on="0"/>
        <pt x="707" y="726" on="0"/>
        <pt x="578" y="634" on="0"/>
        <pt x="500" y="601" on="1"/>
        <pt x="578" y="568" on="0"/>
        <pt x="707" y="476" on="0"/>
        <pt x="798" y="358" on="0"/>
        <pt x="849" y="215" on="0"/>
        <pt x="849" y="131" on="1"/>
        <pt x="849" y="11" on="1"/>
        <pt x="849" y="-129" on="0"/>
        <pt x="968" y="-322" on="0"/>
        <pt x="1076" y="-367" on="1"/>
        <pt x="1025" y="-490" on="1"/>
        <pt x="873" y="-475" on="0"/>
        <pt x="640" y="-381" on="0"/>
        <pt x="482" y="-241" on="0"/>
        <pt x="401" y="-63" on="0"/>
        <pt x="401" y="37" on="1"/>
      </contour>
    </TTGlyph>
    <TTGlyph name="braceright" xMin="70" yMin="-490" xMax="1027" yMax="1692">
      <contour>
        <pt x="297" y="131" on="1"/>
        <pt x="297" y="215" on="0"/>
        <pt x="348" y="358" on="0"/>
        <pt x="439" y="476" on="0"/>
        <pt x="568" y="568" on="0"/>
        <pt x="646" y="601" on="1"/>
        <pt x="568" y="634" on="0"/>
        <pt x="439" y="726" on="0"/>
        <pt x="348" y="844" on="0"/>
        <pt x="297" y="987" on="0"/>
        <pt x="297" y="1071" on="1"/>
        <pt x="297" y="1191" on="1"/>
        <pt x="297" y="1331" on="0"/>
        <pt x="178" y="1524" on="0"/>
        <pt x="70" y="1568" on="1"/>
        <pt x="122" y="1692" on="1"/>
        <pt x="274" y="1677" on="0"/>
        <pt x="507" y="1583" on="0"/>
        <pt x="664" y="1442" on="0"/>
        <pt x="745" y="1264" on="0"/>
        <pt x="745" y="1164" on="1"/>
        <pt x="745" y="947" on="1"/>
        <pt x="745" y="889" on="0"/>
        <pt x="784" y="781" on="0"/>
        <pt x="857" y="690" on="0"/>
        <pt x="962" y="620" on="0"/>
        <pt x="1027" y="601" on="1"/>
        <pt x="962" y="581" on="0"/>
        <pt x="857" y="512" on="0"/>
        <pt x="784" y="421" on="0"/>
        <pt x="745" y="313" on="0"/>
        <pt x="745" y="255" on="1"/>
        <pt x="745" y="37" on="1"/>
        <pt x="745" y="-63" on="0"/>
        <pt x="664" y="-241" on="0"/>
        <pt x="507" y="-381" on="0"/>
        <pt x="274" y="-475" on="0"/>
        <pt x="122" y="-490" on="1"/>
        <pt x="70" y="-367" on="1"/>
        <pt x="178" y="-322" on="0"/>
        <pt x="297" y="-129" on="0"/>
        <pt x="297" y="11" on="1"/>
      </contour>
    </TTGlyph>
    <TTGlyph name="bracketleft" xMin="220" yMin="-496" xMax="865" yMax="1651">
      <contour>
        <pt x="220" y="1651" on="1"/>
        <pt x="865" y="1651" on="1"/>
        <pt x="783" y="1486" on="1"/>
        <pt x="656" y="1486" on="1"/>
        <pt x="656" y="-331" on="1"/>
        <pt x="815" y="-331" on="1"/>
        <pt x="733" y="-496" on="1"/>
        <pt x="220" y="-496" on="1"/>
      </contour>
    </TTGlyph>
    <TTGlyph name="bracketright" xMin="92" yMin="-496" xMax="737" yMax="1651">
      <contour>
        <pt x="301" y="-331" on="1"/>
        <pt x="301" y="1486" on="1"/>
        <pt x="174" y="1486" on="1"/>
        <pt x="92" y="1651" on="1"/>
        <pt x="737" y="1651" on="1"/>
        <pt x="737" y="-496" on="1"/>
        <pt x="224" y="-496" on="1"/>
        <pt x="141" y="-331" on="1"/>
      </contour>
    </TTGlyph>
    <TTGlyph name="brokenbar" xMin="200" yMin="-497" xMax="389" yMax="1650">
      <contour>
        <pt x="200" y="1650" on="1"/>
        <pt x="389" y="1650" on="1"/>
        <pt x="389" y="739" on="1"/>
        <pt x="200" y="739" on="1"/>
      </contour>
      <contour>
        <pt x="389" y="413" on="1"/>
        <pt x="389" y="-497" on="1"/>
        <pt x="200" y="-497" on="1"/>
        <pt x="200" y="413" on="1"/>
      </contour>
    </TTGlyph>
    <TTGlyph name="bullet" xMin="180" yMin="391" xMax="1021" yMax="1013">
      <contour>
        <pt x="600" y="391" on="1"/>
        <pt x="489" y="391" on="0"/>
        <pt x="330" y="440" on="0"/>
        <pt x="228" y="524" on="0"/>
        <pt x="180" y="638" on="0"/>
        <pt x="180" y="703" on="1"/>
        <pt x="180" y="767" on="0"/>
        <pt x="228" y="880" on="0"/>
        <pt x="330" y="964" on="0"/>
        <pt x="489" y="1013" on="0"/>
        <pt x="600" y="1013" on="1"/>
        <pt x="712" y="1013" on="0"/>
        <pt x="871" y="964" on="0"/>
        <pt x="973" y="880" on="0"/>
        <pt x="1021" y="767" on="0"/>
        <pt x="1021" y="703" on="1"/>
        <pt x="1021" y="638" on="0"/>
        <pt x="973" y="524" on="0"/>
        <pt x="871" y="440" on="0"/>
        <pt x="712" y="391" on="0"/>
      </contour>
    </TTGlyph>
    <TTGlyph name="c" xMin="74" yMin="-19" xMax="1252" yMax="1010">
      <contour>
        <pt x="74" y="496" on="1"/>
        <pt x="74" y="597" on="0"/>
        <pt x="159" y="783" on="0"/>
        <pt x="331" y="925" on="0"/>
        <pt x="594" y="1010" on="0"/>
        <pt x="772" y="1010" on="1"/>
        <pt x="900" y="1010" on="0"/>
        <pt x="1082" y="961" on="0"/>
        <pt x="1198" y="881" on="0"/>
        <pt x="1252" y="779" on="0"/>
        <pt x="1252" y="726" on="1"/>
        <pt x="1252" y="685" on="0"/>
        <pt x="1214" y="611" on="0"/>
        <pt x="1150" y="554" on="0"/>
        <pt x="1064" y="520" on="0"/>
        <pt x="1016" y="520" on="1"/>
        <pt x="762" y="867" on="1"/>
        <pt x="734" y="842" on="0"/>
        <pt x="687" y="774" on="0"/>
        <pt x="652" y="687" on="0"/>
        <pt x="633" y="580" on="0"/>
        <pt x="633" y="516" on="1"/>
        <pt x="633" y="427" on="0"/>
        <pt x="677" y="293" on="0"/>
        <pt x="753" y="204" on="0"/>
        <pt x="858" y="159" on="0"/>
        <pt x="920" y="159" on="1"/>
        <pt x="950" y="159" on="0"/>
        <pt x="1011" y="168" on="0"/>
        <pt x="1066" y="183" on="0"/>
        <pt x="1112" y="203" on="0"/>
        <pt x="1128" y="214" on="1"/>
        <pt x="1208" y="74" on="1"/>
        <pt x="1171" y="55" on="0"/>
        <pt x="1084" y="21" on="0"/>
        <pt x="979" y="-4" on="0"/>
        <pt x="853" y="-19" on="0"/>
        <pt x="778" y="-19" on="1"/>
        <pt x="598" y="-19" on="0"/>
        <pt x="333" y="66" on="0"/>
        <pt x="159" y="208" on="0"/>
        <pt x="74" y="394" on="0"/>
      </contour>
    </TTGlyph>
    <TTGlyph name="caron" xMin="120" yMin="1112" xMax="1053" yMax="1526">
      <contour>
        <pt x="587" y="1112" on="1"/>
        <pt x="490" y="1199" on="0"/>
        <pt x="265" y="1349" on="0"/>
        <pt x="120" y="1412" on="1"/>
        <pt x="186" y="1526" on="1"/>
        <pt x="234" y="1519" on="0"/>
        <pt x="336" y="1494" on="0"/>
        <pt x="439" y="1460" on="0"/>
        <pt x="540" y="1419" on="0"/>
        <pt x="587" y="1395" on="1"/>
        <pt x="681" y="1443" on="0"/>
        <pt x="892" y="1512" on="0"/>
        <pt x="988" y="1526" on="1"/>
        <pt x="1053" y="1412" on="1"/>
        <pt x="909" y="1349" on="0"/>
        <pt x="684" y="1199" on="0"/>
      </contour>
    </TTGlyph>
    <TTGlyph name="caron.cap" xMin="120" yMin="1571" xMax="1053" yMax="1920">
      <contour>
        <pt x="586" y="1571" on="1"/>
        <pt x="489" y="1638" on="0"/>
        <pt x="263" y="1758" on="0"/>
        <pt x="120" y="1806" on="1"/>
        <pt x="185" y="1920" on="1"/>
        <pt x="233" y="1915" on="0"/>
        <pt x="335" y="1893" on="0"/>
        <pt x="438" y="1861" on="0"/>
        <pt x="539" y="1824" on="0"/>
        <pt x="586" y="1804" on="1"/>
        <pt x="632" y="1824" on="0"/>
        <pt x="734" y="1861" on="0"/>
        <pt x="837" y="1893" on="0"/>
        <pt x="939" y="1915" on="0"/>
        <pt x="987" y="1920" on="1"/>
        <pt x="1053" y="1806" on="1"/>
        <pt x="908" y="1758" on="0"/>
        <pt x="683" y="1639" on="0"/>
      </contour>
    </TTGlyph>
    <TTGlyph name="ccedilla" xMin="74" yMin="-514" xMax="1252" yMax="1010">
      <contour>
        <pt x="74" y="496" on="1"/>
        <pt x="74" y="597" on="0"/>
        <pt x="159" y="783" on="0"/>
        <pt x="331" y="925" on="0"/>
        <pt x="594" y="1010" on="0"/>
        <pt x="772" y="1010" on="1"/>
        <pt x="900" y="1010" on="0"/>
        <pt x="1082" y="961" on="0"/>
        <pt x="1198" y="881" on="0"/>
        <pt x="1252" y="779" on="0"/>
        <pt x="1252" y="726" on="1"/>
        <pt x="1252" y="685" on="0"/>
        <pt x="1214" y="611" on="0"/>
        <pt x="1150" y="554" on="0"/>
        <pt x="1064" y="520" on="0"/>
        <pt x="1016" y="520" on="1"/>
        <pt x="762" y="867" on="1"/>
        <pt x="734" y="842" on="0"/>
        <pt x="687" y="774" on="0"/>
        <pt x="652" y="687" on="0"/>
        <pt x="633" y="580" on="0"/>
        <pt x="633" y="516" on="1"/>
        <pt x="633" y="427" on="0"/>
        <pt x="677" y="293" on="0"/>
        <pt x="753" y="204" on="0"/>
        <pt x="858" y="159" on="0"/>
        <pt x="920" y="159" on="1"/>
        <pt x="950" y="159" on="0"/>
        <pt x="1011" y="168" on="0"/>
        <pt x="1066" y="183" on="0"/>
        <pt x="1112" y="203" on="0"/>
        <pt x="1128" y="214" on="1"/>
        <pt x="1208" y="74" on="1"/>
        <pt x="1171" y="55" on="0"/>
        <pt x="1084" y="21" on="0"/>
        <pt x="979" y="-4" on="0"/>
        <pt x="853" y="-19" on="0"/>
        <pt x="778" y="-19" on="1"/>
        <pt x="772" y="-19" on="0"/>
        <pt x="760" y="-18" on="0"/>
        <pt x="754" y="-18" on="1"/>
        <pt x="728" y="-121" on="1"/>
        <pt x="751" y="-121" on="1"/>
        <pt x="835" y="-121" on="0"/>
        <pt x="953" y="-142" on="0"/>
        <pt x="1027" y="-183" on="0"/>
        <pt x="1060" y="-243" on="0"/>
        <pt x="1060" y="-282" on="1"/>
        <pt x="1060" y="-328" on="0"/>
        <pt x="1001" y="-412" on="0"/>
        <pt x="886" y="-476" on="0"/>
        <pt x="714" y="-514" on="0"/>
        <pt x="600" y="-514" on="1"/>
        <pt x="575" y="-514" on="0"/>
        <pt x="536" y="-513" on="0"/>
        <pt x="503" y="-511" on="0"/>
        <pt x="472" y="-508" on="0"/>
        <pt x="456" y="-505" on="1"/>
        <pt x="482" y="-392" on="1"/>
        <pt x="498" y="-394" on="0"/>
        <pt x="523" y="-397" on="0"/>
        <pt x="545" y="-399" on="0"/>
        <pt x="566" y="-399" on="0"/>
        <pt x="579" y="-399" on="1"/>
        <pt x="669" y="-399" on="0"/>
        <pt x="758" y="-339" on="0"/>
        <pt x="758" y="-298" on="1"/>
        <pt x="758" y="-266" on="0"/>
        <pt x="697" y="-225" on="0"/>
        <pt x="623" y="-225" on="1"/>
        <pt x="521" y="-225" on="1"/>
        <pt x="580" y="-3" on="1"/>
        <pt x="451" y="18" on="0"/>
        <pt x="261" y="115" on="0"/>
        <pt x="135" y="248" on="0"/>
        <pt x="74" y="409" on="0"/>
      </contour>
    </TTGlyph>
    <TTGlyph name="cedilla" xMin="148" yMin="-514" xMax="752" yMax="72">
      <contour>
        <pt x="469" y="72" on="1"/>
        <pt x="420" y="-121" on="1"/>
        <pt x="443" y="-121" on="1"/>
        <pt x="527" y="-121" on="0"/>
        <pt x="645" y="-142" on="0"/>
        <pt x="719" y="-183" on="0"/>
        <pt x="752" y="-243" on="0"/>
        <pt x="752" y="-282" on="1"/>
        <pt x="752" y="-328" on="0"/>
        <pt x="693" y="-412" on="0"/>
        <pt x="578" y="-476" on="0"/>
        <pt x="406" y="-514" on="0"/>
        <pt x="292" y="-514" on="1"/>
        <pt x="267" y="-514" on="0"/>
        <pt x="228" y="-513" on="0"/>
        <pt x="195" y="-511" on="0"/>
        <pt x="164" y="-508" on="0"/>
        <pt x="148" y="-505" on="1"/>
        <pt x="174" y="-392" on="1"/>
        <pt x="190" y="-394" on="0"/>
        <pt x="215" y="-397" on="0"/>
        <pt x="237" y="-399" on="0"/>
        <pt x="258" y="-399" on="0"/>
        <pt x="271" y="-399" on="1"/>
        <pt x="361" y="-399" on="0"/>
        <pt x="450" y="-339" on="0"/>
        <pt x="450" y="-298" on="1"/>
        <pt x="450" y="-266" on="0"/>
        <pt x="389" y="-225" on="0"/>
        <pt x="315" y="-225" on="1"/>
        <pt x="213" y="-225" on="1"/>
        <pt x="292" y="72" on="1"/>
      </contour>
    </TTGlyph>
    <TTGlyph name="cent" xMin="84" yMin="-330" xMax="1262" yMax="1297">
      <contour>
        <pt x="84" y="496" on="1"/>
        <pt x="84" y="582" on="0"/>
        <pt x="145" y="744" on="0"/>
        <pt x="271" y="877" on="0"/>
        <pt x="461" y="974" on="0"/>
        <pt x="590" y="995" on="1"/>
        <pt x="590" y="1297" on="1"/>
        <pt x="779" y="1297" on="1"/>
        <pt x="779" y="1010" on="1"/>
        <pt x="782" y="1010" on="1"/>
        <pt x="783" y="1009" on="1"/>
        <pt x="783" y="1010" on="1"/>
        <pt x="911" y="1010" on="0"/>
        <pt x="1093" y="961" on="0"/>
        <pt x="1208" y="881" on="0"/>
        <pt x="1262" y="779" on="0"/>
        <pt x="1262" y="726" on="1"/>
        <pt x="1262" y="685" on="0"/>
        <pt x="1224" y="611" on="0"/>
        <pt x="1160" y="554" on="0"/>
        <pt x="1074" y="520" on="0"/>
        <pt x="1026" y="520" on="1"/>
        <pt x="772" y="866" on="1"/>
        <pt x="716" y="816" on="0"/>
        <pt x="645" y="645" on="0"/>
        <pt x="645" y="516" on="1"/>
        <pt x="645" y="427" on="0"/>
        <pt x="688" y="293" on="0"/>
        <pt x="765" y="204" on="0"/>
        <pt x="869" y="159" on="0"/>
        <pt x="930" y="159" on="1"/>
        <pt x="960" y="159" on="0"/>
        <pt x="1021" y="168" on="0"/>
        <pt x="1076" y="183" on="0"/>
        <pt x="1122" y="203" on="0"/>
        <pt x="1138" y="214" on="1"/>
        <pt x="1218" y="74" on="1"/>
        <pt x="1181" y="55" on="0"/>
        <pt x="1094" y="21" on="0"/>
        <pt x="989" y="-4" on="0"/>
        <pt x="863" y="-19" on="0"/>
        <pt x="788" y="-19" on="1"/>
        <pt x="779" y="-19" on="1"/>
        <pt x="779" y="-330" on="1"/>
        <pt x="590" y="-330" on="1"/>
        <pt x="590" y="-3" on="1"/>
        <pt x="461" y="18" on="0"/>
        <pt x="271" y="115" on="0"/>
        <pt x="145" y="248" on="0"/>
        <pt x="84" y="409" on="0"/>
      </contour>
    </TTGlyph>
    <TTGlyph name="circumflex" xMin="120" yMin="1172" xMax="1053" yMax="1586">
      <contour>
        <pt x="120" y="1286" on="1"/>
        <pt x="264" y="1349" on="0"/>
        <pt x="489" y="1499" on="0"/>
        <pt x="586" y="1586" on="1"/>
        <pt x="683" y="1499" on="0"/>
        <pt x="908" y="1349" on="0"/>
        <pt x="1053" y="1286" on="1"/>
        <pt x="987" y="1172" on="1"/>
        <pt x="891" y="1185" on="0"/>
        <pt x="680" y="1254" on="0"/>
        <pt x="586" y="1302" on="1"/>
        <pt x="492" y="1254" on="0"/>
        <pt x="281" y="1185" on="0"/>
        <pt x="185" y="1172" on="1"/>
      </contour>
    </TTGlyph>
    <TTGlyph name="circumflex.cap" xMin="120" yMin="1571" xMax="1053" yMax="1920">
      <contour>
        <pt x="120" y="1685" on="1"/>
        <pt x="263" y="1733" on="0"/>
        <pt x="489" y="1853" on="0"/>
        <pt x="586" y="1920" on="1"/>
        <pt x="683" y="1853" on="0"/>
        <pt x="908" y="1733" on="0"/>
        <pt x="1053" y="1685" on="1"/>
        <pt x="987" y="1571" on="1"/>
        <pt x="891" y="1581" on="0"/>
        <pt x="680" y="1632" on="0"/>
        <pt x="586" y="1665" on="1"/>
        <pt x="492" y="1632" on="0"/>
        <pt x="281" y="1581" on="0"/>
        <pt x="185" y="1571" on="1"/>
      </contour>
    </TTGlyph>
    <TTGlyph name="colon" xMin="180" yMin="-18" xMax="795" yMax="1010">
      <contour>
        <pt x="488" y="555" on="1"/>
        <pt x="406" y="555" on="0"/>
        <pt x="290" y="591" on="0"/>
        <pt x="215" y="652" on="0"/>
        <pt x="180" y="735" on="0"/>
        <pt x="180" y="783" on="1"/>
        <pt x="180" y="830" on="0"/>
        <pt x="215" y="913" on="0"/>
        <pt x="290" y="974" on="0"/>
        <pt x="406" y="1010" on="0"/>
        <pt x="488" y="1010" on="1"/>
        <pt x="569" y="1010" on="0"/>
        <pt x="686" y="974" on="0"/>
        <pt x="760" y="913" on="0"/>
        <pt x="795" y="830" on="0"/>
        <pt x="795" y="783" on="1"/>
        <pt x="795" y="735" on="0"/>
        <pt x="760" y="652" on="0"/>
        <pt x="686" y="591" on="0"/>
        <pt x="569" y="555" on="0"/>
      </contour>
      <contour>
        <pt x="180" y="210" on="1"/>
        <pt x="180" y="257" on="0"/>
        <pt x="215" y="340" on="0"/>
        <pt x="290" y="401" on="0"/>
        <pt x="406" y="437" on="0"/>
        <pt x="488" y="437" on="1"/>
        <pt x="569" y="437" on="0"/>
        <pt x="686" y="401" on="0"/>
        <pt x="760" y="340" on="0"/>
        <pt x="795" y="257" on="0"/>
        <pt x="795" y="210" on="1"/>
        <pt x="795" y="162" on="0"/>
        <pt x="760" y="79" on="0"/>
        <pt x="686" y="18" on="0"/>
        <pt x="569" y="-18" on="0"/>
        <pt x="488" y="-18" on="1"/>
        <pt x="406" y="-18" on="0"/>
        <pt x="290" y="18" on="0"/>
        <pt x="215" y="79" on="0"/>
        <pt x="180" y="162" on="0"/>
      </contour>
    </TTGlyph>
    <TTGlyph name="comma" xMin="180" yMin="-464" xMax="803" yMax="437">
      <contour>
        <pt x="180" y="136" on="1"/>
        <pt x="180" y="203" on="0"/>
        <pt x="230" y="314" on="0"/>
        <pt x="314" y="393" on="0"/>
        <pt x="427" y="437" on="0"/>
        <pt x="490" y="437" on="1"/>
        <pt x="560" y="437" on="0"/>
        <pt x="675" y="394" on="0"/>
        <pt x="758" y="315" on="0"/>
        <pt x="803" y="204" on="0"/>
        <pt x="803" y="136" on="1"/>
        <pt x="803" y="67" on="0"/>
        <pt x="752" y="-86" on="0"/>
        <pt x="657" y="-241" on="0"/>
        <pt x="519" y="-394" on="0"/>
        <pt x="432" y="-464" on="1"/>
        <pt x="290" y="-353" on="1"/>
        <pt x="330" y="-311" on="0"/>
        <pt x="397" y="-234" on="0"/>
        <pt x="451" y="-157" on="0"/>
        <pt x="496" y="-76" on="0"/>
        <pt x="515" y="-30" on="1"/>
        <pt x="180" y="136" on="1"/>
      </contour>
    </TTGlyph>
    <TTGlyph name="commaaccent" xMin="120" yMin="-514" xMax="474" yMax="-74">
      <contour>
        <pt x="120" y="-204" on="1"/>
        <pt x="120" y="-180" on="0"/>
        <pt x="144" y="-133" on="0"/>
        <pt x="189" y="-96" on="0"/>
        <pt x="255" y="-74" on="0"/>
        <pt x="297" y="-74" on="1"/>
        <pt x="337" y="-74" on="0"/>
        <pt x="402" y="-97" on="0"/>
        <pt x="449" y="-138" on="0"/>
        <pt x="474" y="-197" on="0"/>
        <pt x="474" y="-233" on="1"/>
        <pt x="474" y="-296" on="0"/>
        <pt x="395" y="-446" on="0"/>
        <pt x="320" y="-514" on="1"/>
        <pt x="231" y="-445" on="1"/>
        <pt x="284" y="-389" on="0"/>
        <pt x="297" y="-334" on="1"/>
        <pt x="209" y="-334" on="0"/>
        <pt x="120" y="-259" on="0"/>
      </contour>
    </TTGlyph>
    <TTGlyph name="copyright" xMin="180" yMin="-23" xMax="1769" yMax="1510">
      <contour>
        <pt x="180" y="743" on="1"/>
        <pt x="180" y="849" on="0"/>
        <pt x="237" y="1045" on="0"/>
        <pt x="340" y="1215" on="0"/>
        <pt x="484" y="1355" on="0"/>
        <pt x="661" y="1455" on="0"/>
        <pt x="864" y="1510" on="0"/>
        <pt x="974" y="1510" on="1"/>
        <pt x="1084" y="1510" on="0"/>
        <pt x="1288" y="1455" on="0"/>
        <pt x="1464" y="1355" on="0"/>
        <pt x="1609" y="1215" on="0"/>
        <pt x="1712" y="1045" on="0"/>
        <pt x="1769" y="849" on="0"/>
        <pt x="1769" y="743" on="1"/>
        <pt x="1769" y="637" on="0"/>
        <pt x="1712" y="441" on="0"/>
        <pt x="1609" y="271" on="0"/>
        <pt x="1464" y="131" on="0"/>
        <pt x="1288" y="32" on="0"/>
        <pt x="1084" y="-23" on="0"/>
        <pt x="974" y="-23" on="1"/>
        <pt x="864" y="-23" on="0"/>
        <pt x="661" y="32" on="0"/>
        <pt x="484" y="131" on="0"/>
        <pt x="340" y="271" on="0"/>
        <pt x="237" y="441" on="0"/>
        <pt x="180" y="637" on="0"/>
      </contour>
      <contour>
        <pt x="465" y="743" on="1"/>
        <pt x="465" y="637" on="0"/>
        <pt x="545" y="451" on="0"/>
        <pt x="683" y="313" on="0"/>
        <pt x="869" y="234" on="0"/>
        <pt x="974" y="234" on="1"/>
        <pt x="1080" y="234" on="0"/>
        <pt x="1266" y="313" on="0"/>
        <pt x="1404" y="451" on="0"/>
        <pt x="1484" y="637" on="0"/>
        <pt x="1484" y="743" on="1"/>
        <pt x="1484" y="849" on="0"/>
        <pt x="1404" y="1034" on="0"/>
        <pt x="1266" y="1172" on="0"/>
        <pt x="1080" y="1251" on="0"/>
        <pt x="974" y="1251" on="1"/>
        <pt x="869" y="1251" on="0"/>
        <pt x="683" y="1172" on="0"/>
        <pt x="545" y="1034" on="0"/>
        <pt x="465" y="849" on="0"/>
      </contour>
      <contour>
        <pt x="716" y="744" on="1"/>
        <pt x="716" y="793" on="0"/>
        <pt x="756" y="887" on="0"/>
        <pt x="832" y="960" on="0"/>
        <pt x="941" y="1004" on="0"/>
        <pt x="1011" y="1004" on="1"/>
        <pt x="1044" y="1004" on="0"/>
        <pt x="1105" y="994" on="0"/>
        <pt x="1157" y="979" on="0"/>
        <pt x="1199" y="959" on="0"/>
        <pt x="1212" y="949" on="1"/>
        <pt x="1178" y="876" on="1"/>
        <pt x="1158" y="884" on="0"/>
        <pt x="1114" y="894" on="0"/>
        <pt x="1093" y="894" on="1"/>
        <pt x="1062" y="894" on="0"/>
        <pt x="1011" y="872" on="0"/>
        <pt x="974" y="833" on="0"/>
        <pt x="953" y="778" on="0"/>
        <pt x="953" y="745" on="1"/>
        <pt x="953" y="710" on="0"/>
        <pt x="976" y="653" on="0"/>
        <pt x="1015" y="614" on="0"/>
        <pt x="1069" y="593" on="0"/>
        <pt x="1100" y="593" on="1"/>
        <pt x="1130" y="593" on="0"/>
        <pt x="1181" y="609" on="0"/>
        <pt x="1192" y="617" on="1"/>
        <pt x="1225" y="539" on="1"/>
        <pt x="1193" y="519" on="0"/>
        <pt x="1088" y="483" on="0"/>
        <pt x="1020" y="483" on="1"/>
        <pt x="950" y="483" on="0"/>
        <pt x="837" y="526" on="0"/>
        <pt x="758" y="599" on="0"/>
        <pt x="716" y="693" on="0"/>
      </contour>
    </TTGlyph>
    <TTGlyph name="currency" xMin="295" yMin="57" xMax="1391" yMax="1234">
      <contour>
        <pt x="492" y="372" on="1"/>
        <pt x="447" y="429" on="0"/>
        <pt x="396" y="568" on="0"/>
        <pt x="396" y="646" on="1"/>
        <pt x="396" y="721" on="0"/>
        <pt x="443" y="855" on="0"/>
        <pt x="485" y="910" on="1"/>
        <pt x="295" y="1100" on="1"/>
        <pt x="430" y="1234" on="1"/>
        <pt x="632" y="1033" on="1"/>
        <pt x="677" y="1056" on="0"/>
        <pt x="777" y="1081" on="0"/>
        <pt x="831" y="1081" on="1"/>
        <pt x="889" y="1081" on="0"/>
        <pt x="995" y="1052" on="0"/>
        <pt x="1043" y="1026" on="1"/>
        <pt x="1256" y="1234" on="1"/>
        <pt x="1391" y="1100" on="1"/>
        <pt x="1185" y="899" on="1"/>
        <pt x="1223" y="845" on="0"/>
        <pt x="1267" y="717" on="0"/>
        <pt x="1267" y="646" on="1"/>
        <pt x="1267" y="571" on="0"/>
        <pt x="1220" y="437" on="0"/>
        <pt x="1178" y="382" on="1"/>
        <pt x="1369" y="191" on="1"/>
        <pt x="1235" y="57" on="1"/>
        <pt x="1031" y="259" on="1"/>
        <pt x="986" y="236" on="0"/>
        <pt x="885" y="211" on="0"/>
        <pt x="831" y="211" on="1"/>
        <pt x="780" y="211" on="0"/>
        <pt x="686" y="233" on="0"/>
        <pt x="643" y="253" on="1"/>
        <pt x="442" y="57" on="1"/>
        <pt x="308" y="191" on="1"/>
      </contour>
      <contour>
        <pt x="576" y="644" on="1"/>
        <pt x="576" y="591" on="0"/>
        <pt x="616" y="498" on="0"/>
        <pt x="685" y="429" on="0"/>
        <pt x="778" y="389" on="0"/>
        <pt x="831" y="389" on="1"/>
        <pt x="884" y="389" on="0"/>
        <pt x="977" y="429" on="0"/>
        <pt x="1046" y="498" on="0"/>
        <pt x="1086" y="591" on="0"/>
        <pt x="1086" y="644" on="1"/>
        <pt x="1086" y="697" on="0"/>
        <pt x="1046" y="789" on="0"/>
        <pt x="977" y="858" on="0"/>
        <pt x="884" y="898" on="0"/>
        <pt x="831" y="898" on="1"/>
        <pt x="778" y="898" on="0"/>
        <pt x="685" y="858" on="0"/>
        <pt x="616" y="789" on="0"/>
        <pt x="576" y="697" on="0"/>
      </contour>
    </TTGlyph>
    <TTGlyph name="d" xMin="75" yMin="-19" xMax="1529" yMax="1651">
      <contour>
        <pt x="75" y="495" on="1"/>
        <pt x="75" y="612" on="0"/>
        <pt x="156" y="802" on="0"/>
        <pt x="308" y="937" on="0"/>
        <pt x="525" y="1010" on="0"/>
        <pt x="660" y="1010" on="1"/>
        <pt x="763" y="1010" on="0"/>
        <pt x="927" y="961" on="0"/>
        <pt x="986" y="921" on="1"/>
        <pt x="986" y="1651" on="1"/>
        <pt x="1529" y="1651" on="1"/>
        <pt x="1529" y="0" on="1"/>
        <pt x="1029" y="0" on="1"/>
        <pt x="988" y="124" on="1"/>
        <pt x="960" y="97" on="0"/>
        <pt x="882" y="45" on="0"/>
        <pt x="788" y="5" on="0"/>
        <pt x="679" y="-19" on="0"/>
        <pt x="619" y="-19" on="1"/>
        <pt x="506" y="-19" on="0"/>
        <pt x="308" y="47" on="0"/>
        <pt x="160" y="176" on="0"/>
        <pt x="75" y="369" on="0"/>
      </contour>
      <contour>
        <pt x="635" y="514" on="1"/>
        <pt x="635" y="428" on="0"/>
        <pt x="668" y="306" on="0"/>
        <pt x="726" y="229" on="0"/>
        <pt x="806" y="193" on="0"/>
        <pt x="854" y="193" on="1"/>
        <pt x="892" y="193" on="0"/>
        <pt x="959" y="220" on="0"/>
        <pt x="986" y="241" on="1"/>
        <pt x="986" y="789" on="1"/>
        <pt x="961" y="811" on="0"/>
        <pt x="898" y="835" on="0"/>
        <pt x="868" y="835" on="1"/>
        <pt x="818" y="835" on="0"/>
        <pt x="733" y="798" on="0"/>
        <pt x="670" y="720" on="0"/>
        <pt x="635" y="599" on="0"/>
      </contour>
    </TTGlyph>
    <TTGlyph name="degree" xMin="120" yMin="830" xMax="898" yMax="1510">
      <contour>
        <pt x="509" y="830" on="1"/>
        <pt x="417" y="830" on="0"/>
        <pt x="273" y="881" on="0"/>
        <pt x="173" y="972" on="0"/>
        <pt x="120" y="1096" on="0"/>
        <pt x="120" y="1170" on="1"/>
        <pt x="120" y="1243" on="0"/>
        <pt x="173" y="1368" on="0"/>
        <pt x="273" y="1459" on="0"/>
        <pt x="417" y="1510" on="0"/>
        <pt x="509" y="1510" on="1"/>
        <pt x="601" y="1510" on="0"/>
        <pt x="745" y="1459" on="0"/>
        <pt x="845" y="1368" on="0"/>
        <pt x="898" y="1243" on="0"/>
        <pt x="898" y="1170" on="1"/>
        <pt x="898" y="1096" on="0"/>
        <pt x="845" y="972" on="0"/>
        <pt x="745" y="881" on="0"/>
        <pt x="601" y="830" on="0"/>
      </contour>
      <contour>
        <pt x="509" y="981" on="1"/>
        <pt x="530" y="981" on="0"/>
        <pt x="567" y="1001" on="0"/>
        <pt x="593" y="1045" on="0"/>
        <pt x="608" y="1117" on="0"/>
        <pt x="608" y="1170" on="1"/>
        <pt x="608" y="1222" on="0"/>
        <pt x="593" y="1295" on="0"/>
        <pt x="567" y="1339" on="0"/>
        <pt x="530" y="1359" on="0"/>
        <pt x="509" y="1359" on="1"/>
        <pt x="488" y="1359" on="0"/>
        <pt x="452" y="1340" on="0"/>
        <pt x="425" y="1297" on="0"/>
        <pt x="410" y="1224" on="0"/>
        <pt x="410" y="1170" on="1"/>
        <pt x="410" y="1116" on="0"/>
        <pt x="425" y="1043" on="0"/>
        <pt x="452" y="1000" on="0"/>
        <pt x="488" y="981" on="0"/>
      </contour>
    </TTGlyph>
    <TTGlyph name="dieresis" xMin="120" yMin="1156" xMax="1416" yMax="1550">
      <contour>
        <pt x="883" y="1353" on="1"/>
        <pt x="883" y="1394" on="0"/>
        <pt x="913" y="1466" on="0"/>
        <pt x="978" y="1519" on="0"/>
        <pt x="1078" y="1550" on="0"/>
        <pt x="1149" y="1550" on="1"/>
        <pt x="1219" y="1550" on="0"/>
        <pt x="1321" y="1519" on="0"/>
        <pt x="1385" y="1466" on="0"/>
        <pt x="1416" y="1394" on="0"/>
        <pt x="1416" y="1353" on="1"/>
        <pt x="1416" y="1312" on="0"/>
        <pt x="1385" y="1240" on="0"/>
        <pt x="1321" y="1187" on="0"/>
        <pt x="1219" y="1156" on="0"/>
        <pt x="1149" y="1156" on="1"/>
        <pt x="1078" y="1156" on="0"/>
        <pt x="978" y="1187" on="0"/>
        <pt x="913" y="1240" on="0"/>
        <pt x="883" y="1312" on="0"/>
      </contour>
      <contour>
        <pt x="386" y="1156" on="1"/>
        <pt x="315" y="1156" on="0"/>
        <pt x="215" y="1187" on="0"/>
        <pt x="150" y="1240" on="0"/>
        <pt x="120" y="1312" on="0"/>
        <pt x="120" y="1353" on="1"/>
        <pt x="120" y="1394" on="0"/>
        <pt x="150" y="1466" on="0"/>
        <pt x="215" y="1519" on="0"/>
        <pt x="315" y="1550" on="0"/>
        <pt x="386" y="1550" on="1"/>
        <pt x="456" y="1550" on="0"/>
        <pt x="558" y="1519" on="0"/>
        <pt x="622" y="1466" on="0"/>
        <pt x="653" y="1394" on="0"/>
        <pt x="653" y="1353" on="1"/>
        <pt x="653" y="1312" on="0"/>
        <pt x="622" y="1240" on="0"/>
        <pt x="558" y="1187" on="0"/>
        <pt x="456" y="1156" on="0"/>
      </contour>
    </TTGlyph>
    <TTGlyph name="dieresis.cap" xMin="120" yMin="1585" xMax="1452" yMax="1919">
      <contour>
        <pt x="1185" y="1585" on="1"/>
        <pt x="1114" y="1585" on="0"/>
        <pt x="1016" y="1611" on="0"/>
        <pt x="953" y="1657" on="0"/>
        <pt x="925" y="1717" on="0"/>
        <pt x="925" y="1752" on="1"/>
        <pt x="925" y="1786" on="0"/>
        <pt x="953" y="1847" on="0"/>
        <pt x="1016" y="1893" on="0"/>
        <pt x="1114" y="1919" on="0"/>
        <pt x="1185" y="1919" on="1"/>
        <pt x="1255" y="1919" on="0"/>
        <pt x="1357" y="1893" on="0"/>
        <pt x="1421" y="1847" on="0"/>
        <pt x="1452" y="1786" on="0"/>
        <pt x="1452" y="1752" on="1"/>
        <pt x="1452" y="1717" on="0"/>
        <pt x="1421" y="1657" on="0"/>
        <pt x="1357" y="1611" on="0"/>
        <pt x="1255" y="1585" on="0"/>
      </contour>
      <contour>
        <pt x="386" y="1585" on="1"/>
        <pt x="315" y="1585" on="0"/>
        <pt x="215" y="1611" on="0"/>
        <pt x="150" y="1657" on="0"/>
        <pt x="120" y="1717" on="0"/>
        <pt x="120" y="1752" on="1"/>
        <pt x="120" y="1786" on="0"/>
        <pt x="150" y="1847" on="0"/>
        <pt x="215" y="1893" on="0"/>
        <pt x="315" y="1919" on="0"/>
        <pt x="386" y="1919" on="1"/>
        <pt x="456" y="1919" on="0"/>
        <pt x="558" y="1893" on="0"/>
        <pt x="622" y="1847" on="0"/>
        <pt x="653" y="1786" on="0"/>
        <pt x="653" y="1752" on="1"/>
        <pt x="653" y="1717" on="0"/>
        <pt x="622" y="1657" on="0"/>
        <pt x="558" y="1611" on="0"/>
        <pt x="456" y="1585" on="0"/>
      </contour>
    </TTGlyph>
    <TTGlyph name="divide" xMin="200" yMin="-18" xMax="1078" yMax="1007">
      <contour>
        <pt x="640" y="729" on="1"/>
        <pt x="590" y="729" on="0"/>
        <pt x="518" y="751" on="0"/>
        <pt x="472" y="789" on="0"/>
        <pt x="451" y="840" on="0"/>
        <pt x="451" y="869" on="1"/>
        <pt x="451" y="897" on="0"/>
        <pt x="472" y="948" on="0"/>
        <pt x="518" y="985" on="0"/>
        <pt x="590" y="1007" on="0"/>
        <pt x="640" y="1007" on="1"/>
        <pt x="689" y="1007" on="0"/>
        <pt x="760" y="985" on="0"/>
        <pt x="806" y="948" on="0"/>
        <pt x="827" y="897" on="0"/>
        <pt x="827" y="869" on="1"/>
        <pt x="827" y="840" on="0"/>
        <pt x="806" y="789" on="0"/>
        <pt x="760" y="751" on="0"/>
        <pt x="689" y="729" on="0"/>
      </contour>
      <contour>
        <pt x="200" y="595" on="1"/>
        <pt x="1078" y="594" on="1"/>
        <pt x="1078" y="405" on="1"/>
        <pt x="200" y="406" on="1"/>
      </contour>
      <contour>
        <pt x="451" y="122" on="1"/>
        <pt x="451" y="151" on="0"/>
        <pt x="472" y="201" on="0"/>
        <pt x="518" y="239" on="0"/>
        <pt x="590" y="260" on="0"/>
        <pt x="640" y="260" on="1"/>
        <pt x="689" y="260" on="0"/>
        <pt x="760" y="239" on="0"/>
        <pt x="806" y="201" on="0"/>
        <pt x="827" y="151" on="0"/>
        <pt x="827" y="122" on="1"/>
        <pt x="827" y="93" on="0"/>
        <pt x="806" y="42" on="0"/>
        <pt x="760" y="4" on="0"/>
        <pt x="689" y="-18" on="0"/>
        <pt x="640" y="-18" on="1"/>
        <pt x="590" y="-18" on="0"/>
        <pt x="518" y="4" on="0"/>
        <pt x="472" y="42" on="0"/>
        <pt x="451" y="93" on="0"/>
      </contour>
    </TTGlyph>
    <TTGlyph name="dollar" xMin="120" yMin="-327" xMax="1457" yMax="1729">
      <contour>
        <pt x="243" y="357" on="1"/>
        <pt x="299" y="323" on="0"/>
        <pt x="413" y="272" on="0"/>
        <pt x="521" y="239" on="0"/>
        <pt x="622" y="222" on="0"/>
        <pt x="665" y="222" on="1"/>
        <pt x="756" y="222" on="0"/>
        <pt x="840" y="288" on="0"/>
        <pt x="840" y="341" on="1"/>
        <pt x="840" y="361" on="0"/>
        <pt x="826" y="400" on="0"/>
        <pt x="792" y="439" on="0"/>
        <pt x="732" y="476" on="0"/>
        <pt x="686" y="493" on="1"/>
        <pt x="519" y="554" on="1"/>
        <pt x="340" y="619" on="0"/>
        <pt x="163" y="843" on="0"/>
        <pt x="163" y="998" on="1"/>
        <pt x="163" y="1092" on="0"/>
        <pt x="229" y="1265" on="0"/>
        <pt x="366" y="1402" on="0"/>
        <pt x="574" y="1493" on="0"/>
        <pt x="716" y="1504" on="1"/>
        <pt x="716" y="1729" on="1"/>
        <pt x="878" y="1729" on="1"/>
        <pt x="878" y="1505" on="1"/>
        <pt x="944" y="1501" on="0"/>
        <pt x="1066" y="1480" on="0"/>
        <pt x="1175" y="1451" on="0"/>
        <pt x="1267" y="1417" on="0"/>
        <pt x="1303" y="1399" on="1"/>
        <pt x="1191" y="1177" on="1"/>
        <pt x="1131" y="1218" on="0"/>
        <pt x="998" y="1262" on="0"/>
        <pt x="937" y="1262" on="1"/>
        <pt x="897" y="1262" on="0"/>
        <pt x="836" y="1242" on="0"/>
        <pt x="794" y="1209" on="0"/>
        <pt x="773" y="1165" on="0"/>
        <pt x="773" y="1140" on="1"/>
        <pt x="773" y="1117" on="0"/>
        <pt x="793" y="1075" on="0"/>
        <pt x="839" y="1035" on="0"/>
        <pt x="916" y="996" on="0"/>
        <pt x="972" y="976" on="1"/>
        <pt x="1106" y="928" on="1"/>
        <pt x="1281" y="865" on="0"/>
        <pt x="1457" y="640" on="0"/>
        <pt x="1457" y="485" on="1"/>
        <pt x="1457" y="386" on="0"/>
        <pt x="1383" y="215" on="0"/>
        <pt x="1238" y="84" on="0"/>
        <pt x="1021" y="-1" on="0"/>
        <pt x="878" y="-16" on="1"/>
        <pt x="878" y="-327" on="1"/>
        <pt x="716" y="-327" on="1"/>
        <pt x="716" y="-23" on="1"/>
        <pt x="553" y="-22" on="0"/>
        <pt x="264" y="50" on="0"/>
        <pt x="120" y="127" on="1"/>
      </contour>
    </TTGlyph>
    <TTGlyph name="dotaccentcmb" xMin="120" yMin="596" xMax="684" yMax="1012">
      <contour>
        <pt x="402" y="596" on="1"/>
        <pt x="327" y="596" on="0"/>
        <pt x="221" y="629" on="0"/>
        <pt x="152" y="685" on="0"/>
        <pt x="120" y="761" on="0"/>
        <pt x="120" y="804" on="1"/>
        <pt x="120" y="847" on="0"/>
        <pt x="152" y="923" on="0"/>
        <pt x="221" y="980" on="0"/>
        <pt x="327" y="1012" on="0"/>
        <pt x="402" y="1012" on="1"/>
        <pt x="477" y="1012" on="0"/>
        <pt x="583" y="980" on="0"/>
        <pt x="652" y="923" on="0"/>
        <pt x="684" y="847" on="0"/>
        <pt x="684" y="804" on="1"/>
        <pt x="684" y="761" on="0"/>
        <pt x="652" y="685" on="0"/>
        <pt x="583" y="629" on="0"/>
        <pt x="477" y="596" on="0"/>
      </contour>
    </TTGlyph>
    <TTGlyph name="dotlessi" xMin="140" yMin="0" xMax="683" yMax="991">
      <contour>
        <pt x="140" y="991" on="1"/>
        <pt x="683" y="991" on="1"/>
        <pt x="683" y="0" on="1"/>
        <pt x="140" y="0" on="1"/>
      </contour>
    </TTGlyph>
    <TTGlyph name="dotlessj" xMin="42" yMin="-495" xMax="698" yMax="991">
      <contour>
        <pt x="151" y="991" on="1"/>
        <pt x="698" y="991" on="1"/>
        <pt x="698" y="165" on="1"/>
        <pt x="698" y="27" on="0"/>
        <pt x="618" y="-198" on="0"/>
        <pt x="463" y="-366" on="0"/>
        <pt x="234" y="-474" on="0"/>
        <pt x="85" y="-495" on="1"/>
        <pt x="42" y="-401" on="1"/>
        <pt x="73" y="-368" on="0"/>
        <pt x="115" y="-303" on="0"/>
        <pt x="140" y="-230" on="0"/>
        <pt x="151" y="-142" on="0"/>
        <pt x="151" y="-86" on="1"/>
      </contour>
    </TTGlyph>
    <TTGlyph name="e" xMin="75" yMin="-19" xMax="1402" yMax="1010">
      <contour>
        <pt x="75" y="501" on="1"/>
        <pt x="75" y="587" on="0"/>
        <pt x="129" y="729" on="0"/>
        <pt x="224" y="842" on="0"/>
        <pt x="354" y="926" on="0"/>
        <pt x="506" y="982" on="0"/>
        <pt x="672" y="1010" on="0"/>
        <pt x="757" y="1010" on="1"/>
        <pt x="869" y="1010" on="0"/>
        <pt x="1052" y="965" on="0"/>
        <pt x="1195" y="887" on="0"/>
        <pt x="1300" y="783" on="0"/>
        <pt x="1369" y="666" on="0"/>
        <pt x="1402" y="542" on="0"/>
        <pt x="1402" y="483" on="1"/>
        <pt x="646" y="392" on="1"/>
        <pt x="668" y="281" on="0"/>
        <pt x="800" y="159" on="0"/>
        <pt x="919" y="159" on="1"/>
        <pt x="984" y="159" on="0"/>
        <pt x="1097" y="191" on="0"/>
        <pt x="1129" y="214" on="1"/>
        <pt x="1209" y="74" on="1"/>
        <pt x="1172" y="55" on="0"/>
        <pt x="1085" y="21" on="0"/>
        <pt x="980" y="-4" on="0"/>
        <pt x="853" y="-19" on="0"/>
        <pt x="777" y="-19" on="1"/>
        <pt x="595" y="-19" on="0"/>
        <pt x="331" y="66" on="0"/>
        <pt x="158" y="209" on="0"/>
        <pt x="75" y="397" on="0"/>
      </contour>
      <contour>
        <pt x="917" y="585" on="1"/>
        <pt x="917" y="715" on="0"/>
        <pt x="852" y="833" on="0"/>
        <pt x="788" y="833" on="1"/>
        <pt x="755" y="833" on="0"/>
        <pt x="699" y="801" on="0"/>
        <pt x="659" y="733" on="0"/>
        <pt x="635" y="626" on="0"/>
        <pt x="634" y="550" on="1"/>
      </contour>
    </TTGlyph>
    <TTGlyph name="eacute" xMin="75" yMin="-19" xMax="1402" yMax="1586">
      <contour>
        <pt x="381" y="1286" on="1"/>
        <pt x="553" y="1349" on="0"/>
        <pt x="824" y="1500" on="0"/>
        <pt x="940" y="1586" on="1"/>
        <pt x="1094" y="1399" on="1"/>
        <pt x="1036" y="1360" on="0"/>
        <pt x="881" y="1286" on="0"/>
        <pt x="708" y="1226" on="0"/>
        <pt x="528" y="1182" on="0"/>
        <pt x="446" y="1172" on="1"/>
      </contour>
      <contour>
        <pt x="75" y="501" on="1"/>
        <pt x="75" y="587" on="0"/>
        <pt x="129" y="729" on="0"/>
        <pt x="224" y="842" on="0"/>
        <pt x="354" y="926" on="0"/>
        <pt x="506" y="982" on="0"/>
        <pt x="672" y="1010" on="0"/>
        <pt x="757" y="1010" on="1"/>
        <pt x="869" y="1010" on="0"/>
        <pt x="1052" y="965" on="0"/>
        <pt x="1195" y="887" on="0"/>
        <pt x="1300" y="783" on="0"/>
        <pt x="1369" y="666" on="0"/>
        <pt x="1402" y="542" on="0"/>
        <pt x="1402" y="483" on="1"/>
        <pt x="646" y="392" on="1"/>
        <pt x="668" y="281" on="0"/>
        <pt x="800" y="159" on="0"/>
        <pt x="919" y="159" on="1"/>
        <pt x="984" y="159" on="0"/>
        <pt x="1097" y="191" on="0"/>
        <pt x="1129" y="214" on="1"/>
        <pt x="1209" y="74" on="1"/>
        <pt x="1172" y="55" on="0"/>
        <pt x="1085" y="21" on="0"/>
        <pt x="980" y="-4" on="0"/>
        <pt x="853" y="-19" on="0"/>
        <pt x="777" y="-19" on="1"/>
        <pt x="595" y="-19" on="0"/>
        <pt x="331" y="66" on="0"/>
        <pt x="158" y="209" on="0"/>
        <pt x="75" y="397" on="0"/>
      </contour>
      <contour>
        <pt x="917" y="585" on="1"/>
        <pt x="917" y="715" on="0"/>
        <pt x="852" y="833" on="0"/>
        <pt x="788" y="833" on="1"/>
        <pt x="755" y="833" on="0"/>
        <pt x="699" y="801" on="0"/>
        <pt x="659" y="733" on="0"/>
        <pt x="635" y="626" on="0"/>
        <pt x="634" y="550" on="1"/>
      </contour>
    </TTGlyph>
    <TTGlyph name="ecircumflex" xMin="75" yMin="-19" xMax="1402" yMax="1586">
      <contour>
        <pt x="271" y="1286" on="1"/>
        <pt x="415" y="1349" on="0"/>
        <pt x="640" y="1499" on="0"/>
        <pt x="737" y="1586" on="1"/>
        <pt x="834" y="1499" on="0"/>
        <pt x="1059" y="1349" on="0"/>
        <pt x="1204" y="1286" on="1"/>
        <pt x="1138" y="1172" on="1"/>
        <pt x="1042" y="1185" on="0"/>
        <pt x="831" y="1254" on="0"/>
        <pt x="737" y="1302" on="1"/>
        <pt x="643" y="1254" on="0"/>
        <pt x="432" y="1185" on="0"/>
        <pt x="336" y="1172" on="1"/>
      </contour>
      <contour>
        <pt x="75" y="501" on="1"/>
        <pt x="75" y="587" on="0"/>
        <pt x="129" y="729" on="0"/>
        <pt x="224" y="842" on="0"/>
        <pt x="354" y="926" on="0"/>
        <pt x="506" y="982" on="0"/>
        <pt x="672" y="1010" on="0"/>
        <pt x="757" y="1010" on="1"/>
        <pt x="869" y="1010" on="0"/>
        <pt x="1052" y="965" on="0"/>
        <pt x="1195" y="887" on="0"/>
        <pt x="1300" y="783" on="0"/>
        <pt x="1369" y="666" on="0"/>
        <pt x="1402" y="542" on="0"/>
        <pt x="1402" y="483" on="1"/>
        <pt x="646" y="392" on="1"/>
        <pt x="668" y="281" on="0"/>
        <pt x="800" y="159" on="0"/>
        <pt x="919" y="159" on="1"/>
        <pt x="984" y="159" on="0"/>
        <pt x="1097" y="191" on="0"/>
        <pt x="1129" y="214" on="1"/>
        <pt x="1209" y="74" on="1"/>
        <pt x="1172" y="55" on="0"/>
        <pt x="1085" y="21" on="0"/>
        <pt x="980" y="-4" on="0"/>
        <pt x="853" y="-19" on="0"/>
        <pt x="777" y="-19" on="1"/>
        <pt x="595" y="-19" on="0"/>
        <pt x="331" y="66" on="0"/>
        <pt x="158" y="209" on="0"/>
        <pt x="75" y="397" on="0"/>
      </contour>
      <contour>
        <pt x="917" y="585" on="1"/>
        <pt x="917" y="715" on="0"/>
        <pt x="852" y="833" on="0"/>
        <pt x="788" y="833" on="1"/>
        <pt x="755" y="833" on="0"/>
        <pt x="699" y="801" on="0"/>
        <pt x="659" y="733" on="0"/>
        <pt x="635" y="626" on="0"/>
        <pt x="634" y="550" on="1"/>
      </contour>
    </TTGlyph>
    <TTGlyph name="edieresis" xMin="75" yMin="-19" xMax="1402" yMax="1550">
      <contour>
        <pt x="852" y="1353" on="1"/>
        <pt x="852" y="1394" on="0"/>
        <pt x="882" y="1466" on="0"/>
        <pt x="947" y="1519" on="0"/>
        <pt x="1047" y="1550" on="0"/>
        <pt x="1118" y="1550" on="1"/>
        <pt x="1188" y="1550" on="0"/>
        <pt x="1290" y="1519" on="0"/>
        <pt x="1354" y="1466" on="0"/>
        <pt x="1385" y="1394" on="0"/>
        <pt x="1385" y="1353" on="1"/>
        <pt x="1385" y="1312" on="0"/>
        <pt x="1354" y="1240" on="0"/>
        <pt x="1290" y="1187" on="0"/>
        <pt x="1188" y="1156" on="0"/>
        <pt x="1118" y="1156" on="1"/>
        <pt x="1047" y="1156" on="0"/>
        <pt x="947" y="1187" on="0"/>
        <pt x="882" y="1240" on="0"/>
        <pt x="852" y="1312" on="0"/>
      </contour>
      <contour>
        <pt x="355" y="1156" on="1"/>
        <pt x="284" y="1156" on="0"/>
        <pt x="184" y="1187" on="0"/>
        <pt x="119" y="1240" on="0"/>
        <pt x="89" y="1312" on="0"/>
        <pt x="89" y="1353" on="1"/>
        <pt x="89" y="1394" on="0"/>
        <pt x="119" y="1466" on="0"/>
        <pt x="184" y="1519" on="0"/>
        <pt x="284" y="1550" on="0"/>
        <pt x="355" y="1550" on="1"/>
        <pt x="425" y="1550" on="0"/>
        <pt x="527" y="1519" on="0"/>
        <pt x="591" y="1466" on="0"/>
        <pt x="622" y="1394" on="0"/>
        <pt x="622" y="1353" on="1"/>
        <pt x="622" y="1312" on="0"/>
        <pt x="591" y="1240" on="0"/>
        <pt x="527" y="1187" on="0"/>
        <pt x="425" y="1156" on="0"/>
      </contour>
      <contour>
        <pt x="75" y="501" on="1"/>
        <pt x="75" y="587" on="0"/>
        <pt x="129" y="729" on="0"/>
        <pt x="224" y="842" on="0"/>
        <pt x="354" y="926" on="0"/>
        <pt x="506" y="982" on="0"/>
        <pt x="672" y="1010" on="0"/>
        <pt x="757" y="1010" on="1"/>
        <pt x="869" y="1010" on="0"/>
        <pt x="1052" y="965" on="0"/>
        <pt x="1195" y="887" on="0"/>
        <pt x="1300" y="783" on="0"/>
        <pt x="1369" y="666" on="0"/>
        <pt x="1402" y="542" on="0"/>
        <pt x="1402" y="483" on="1"/>
        <pt x="646" y="392" on="1"/>
        <pt x="668" y="281" on="0"/>
        <pt x="800" y="159" on="0"/>
        <pt x="919" y="159" on="1"/>
        <pt x="984" y="159" on="0"/>
        <pt x="1097" y="191" on="0"/>
        <pt x="1129" y="214" on="1"/>
        <pt x="1209" y="74" on="1"/>
        <pt x="1172" y="55" on="0"/>
        <pt x="1085" y="21" on="0"/>
        <pt x="980" y="-4" on="0"/>
        <pt x="853" y="-19" on="0"/>
        <pt x="777" y="-19" on="1"/>
        <pt x="595" y="-19" on="0"/>
        <pt x="331" y="66" on="0"/>
        <pt x="158" y="209" on="0"/>
        <pt x="75" y="397" on="0"/>
      </contour>
      <contour>
        <pt x="917" y="585" on="1"/>
        <pt x="917" y="715" on="0"/>
        <pt x="852" y="833" on="0"/>
        <pt x="788" y="833" on="1"/>
        <pt x="755" y="833" on="0"/>
        <pt x="699" y="801" on="0"/>
        <pt x="659" y="733" on="0"/>
        <pt x="635" y="626" on="0"/>
        <pt x="634" y="550" on="1"/>
      </contour>
    </TTGlyph>
    <TTGlyph name="egrave" xMin="75" yMin="-19" xMax="1402" yMax="1586">
      <contour>
        <pt x="535" y="1586" on="1"/>
        <pt x="650" y="1500" on="0"/>
        <pt x="922" y="1349" on="0"/>
        <pt x="1094" y="1286" on="1"/>
        <pt x="1029" y="1172" on="1"/>
        <pt x="947" y="1182" on="0"/>
        <pt x="767" y="1226" on="0"/>
        <pt x="594" y="1286" on="0"/>
        <pt x="439" y="1360" on="0"/>
        <pt x="381" y="1399" on="1"/>
      </contour>
      <contour>
        <pt x="75" y="501" on="1"/>
        <pt x="75" y="587" on="0"/>
        <pt x="129" y="729" on="0"/>
        <pt x="224" y="842" on="0"/>
        <pt x="354" y="926" on="0"/>
        <pt x="506" y="982" on="0"/>
        <pt x="672" y="1010" on="0"/>
        <pt x="757" y="1010" on="1"/>
        <pt x="869" y="1010" on="0"/>
        <pt x="1052" y="965" on="0"/>
        <pt x="1195" y="887" on="0"/>
        <pt x="1300" y="783" on="0"/>
        <pt x="1369" y="666" on="0"/>
        <pt x="1402" y="542" on="0"/>
        <pt x="1402" y="483" on="1"/>
        <pt x="646" y="392" on="1"/>
        <pt x="668" y="281" on="0"/>
        <pt x="800" y="159" on="0"/>
        <pt x="919" y="159" on="1"/>
        <pt x="984" y="159" on="0"/>
        <pt x="1097" y="191" on="0"/>
        <pt x="1129" y="214" on="1"/>
        <pt x="1209" y="74" on="1"/>
        <pt x="1172" y="55" on="0"/>
        <pt x="1085" y="21" on="0"/>
        <pt x="980" y="-4" on="0"/>
        <pt x="853" y="-19" on="0"/>
        <pt x="777" y="-19" on="1"/>
        <pt x="595" y="-19" on="0"/>
        <pt x="331" y="66" on="0"/>
        <pt x="158" y="209" on="0"/>
        <pt x="75" y="397" on="0"/>
      </contour>
      <contour>
        <pt x="917" y="585" on="1"/>
        <pt x="917" y="715" on="0"/>
        <pt x="852" y="833" on="0"/>
        <pt x="788" y="833" on="1"/>
        <pt x="755" y="833" on="0"/>
        <pt x="699" y="801" on="0"/>
        <pt x="659" y="733" on="0"/>
        <pt x="635" y="626" on="0"/>
        <pt x="634" y="550" on="1"/>
      </contour>
    </TTGlyph>
    <TTGlyph name="eight" xMin="176" yMin="-23" xMax="1573" yMax="1510">
      <contour>
        <pt x="176" y="413" on="1"/>
        <pt x="176" y="525" on="0"/>
        <pt x="293" y="715" on="0"/>
        <pt x="405" y="784" on="1"/>
        <pt x="368" y="811" on="0"/>
        <pt x="307" y="874" on="0"/>
        <pt x="262" y="947" on="0"/>
        <pt x="237" y="1032" on="0"/>
        <pt x="237" y="1081" on="1"/>
        <pt x="237" y="1162" on="0"/>
        <pt x="312" y="1316" on="0"/>
        <pt x="471" y="1436" on="0"/>
        <pt x="718" y="1510" on="0"/>
        <pt x="891" y="1510" on="1"/>
        <pt x="1045" y="1510" on="0"/>
        <pt x="1262" y="1451" on="0"/>
        <pt x="1399" y="1352" on="0"/>
        <pt x="1461" y="1225" on="0"/>
        <pt x="1461" y="1158" on="1"/>
        <pt x="1461" y="1074" on="0"/>
        <pt x="1375" y="922" on="0"/>
        <pt x="1300" y="853" on="1"/>
        <pt x="1355" y="820" on="0"/>
        <pt x="1455" y="742" on="0"/>
        <pt x="1529" y="646" on="0"/>
        <pt x="1573" y="528" on="0"/>
        <pt x="1573" y="455" on="1"/>
        <pt x="1573" y="339" on="0"/>
        <pt x="1459" y="161" on="0"/>
        <pt x="1261" y="39" on="0"/>
        <pt x="996" y="-23" on="0"/>
        <pt x="845" y="-23" on="1"/>
        <pt x="678" y="-23" on="0"/>
        <pt x="428" y="48" on="0"/>
        <pt x="260" y="168" on="0"/>
        <pt x="176" y="326" on="0"/>
      </contour>
      <contour>
        <pt x="817" y="1187" on="1"/>
        <pt x="817" y="1146" on="0"/>
        <pt x="870" y="1081" on="0"/>
        <pt x="959" y="1022" on="0"/>
        <pt x="1075" y="967" on="0"/>
        <pt x="1138" y="937" on="1"/>
        <pt x="1200" y="987" on="0"/>
        <pt x="1256" y="1087" on="0"/>
        <pt x="1256" y="1135" on="1"/>
        <pt x="1256" y="1172" on="0"/>
        <pt x="1222" y="1242" on="0"/>
        <pt x="1160" y="1294" on="0"/>
        <pt x="1072" y="1326" on="0"/>
        <pt x="1018" y="1326" on="1"/>
        <pt x="974" y="1326" on="0"/>
        <pt x="900" y="1305" on="0"/>
        <pt x="847" y="1267" on="0"/>
        <pt x="817" y="1217" on="0"/>
      </contour>
      <contour>
        <pt x="381" y="437" on="1"/>
        <pt x="381" y="379" on="0"/>
        <pt x="431" y="278" on="0"/>
        <pt x="525" y="204" on="0"/>
        <pt x="660" y="162" on="0"/>
        <pt x="745" y="162" on="1"/>
        <pt x="815" y="162" on="0"/>
        <pt x="917" y="191" on="0"/>
        <pt x="983" y="239" on="0"/>
        <pt x="1014" y="303" on="0"/>
        <pt x="1014" y="339" on="1"/>
        <pt x="1014" y="401" on="0"/>
        <pt x="932" y="496" on="0"/>
        <pt x="801" y="576" on="0"/>
        <pt x="639" y="650" on="0"/>
        <pt x="559" y="691" on="1"/>
        <pt x="469" y="646" on="0"/>
        <pt x="381" y="512" on="0"/>
      </contour>
    </TTGlyph>
    <TTGlyph name="emdash" xMin="160" yMin="499" xMax="1648" yMax="682">
      <contour>
        <pt x="160" y="682" on="1"/>
        <pt x="1648" y="682" on="1"/>
        <pt x="1648" y="499" on="1"/>
        <pt x="160" y="499" on="1"/>
      </contour>
    </TTGlyph>
    <TTGlyph name="endash" xMin="160" yMin="499" xMax="1283" yMax="682">
      <contour>
        <pt x="160" y="682" on="1"/>
        <pt x="1283" y="682" on="1"/>
        <pt x="1283" y="499" on="1"/>
        <pt x="160" y="499" on="1"/>
      </contour>
    </TTGlyph>
    <TTGlyph name="equal" xMin="200" yMin="481" xMax="1078" yMax="990">
      <contour>
        <pt x="200" y="990" on="1"/>
        <pt x="1078" y="990" on="1"/>
        <pt x="1078" y="810" on="1"/>
        <pt x="200" y="810" on="1"/>
      </contour>
      <contour>
        <pt x="200" y="661" on="1"/>
        <pt x="1078" y="661" on="1"/>
        <pt x="1078" y="481" on="1"/>
        <pt x="200" y="481" on="1"/>
      </contour>
    </TTGlyph>
    <TTGlyph name="eth" xMin="139" yMin="-19" xMax="1548" yMax="1651">
      <contour>
        <pt x="139" y="465" on="1"/>
        <pt x="139" y="548" on="0"/>
        <pt x="208" y="705" on="0"/>
        <pt x="340" y="826" on="0"/>
        <pt x="532" y="900" on="0"/>
        <pt x="655" y="900" on="1"/>
        <pt x="754" y="900" on="0"/>
        <pt x="918" y="865" on="0"/>
        <pt x="987" y="832" on="1"/>
        <pt x="939" y="1024" on="0"/>
        <pt x="836" y="1201" on="1"/>
        <pt x="502" y="1051" on="1"/>
        <pt x="422" y="1232" on="1"/>
        <pt x="724" y="1368" on="1"/>
        <pt x="652" y="1462" on="0"/>
        <pt x="565" y="1554" on="1"/>
        <pt x="685" y="1651" on="1"/>
        <pt x="740" y="1607" on="0"/>
        <pt x="861" y="1512" on="0"/>
        <pt x="924" y="1459" on="1"/>
        <pt x="1283" y="1621" on="1"/>
        <pt x="1364" y="1438" on="1"/>
        <pt x="1088" y="1314" on="1"/>
        <pt x="1179" y="1228" on="0"/>
        <pt x="1346" y="1039" on="0"/>
        <pt x="1473" y="837" on="0"/>
        <pt x="1548" y="622" on="0"/>
        <pt x="1548" y="510" on="1"/>
        <pt x="1548" y="391" on="0"/>
        <pt x="1460" y="196" on="0"/>
        <pt x="1285" y="57" on="0"/>
        <pt x="1024" y="-19" on="0"/>
        <pt x="850" y="-19" on="1"/>
        <pt x="675" y="-19" on="0"/>
        <pt x="409" y="58" on="0"/>
        <pt x="230" y="190" on="0"/>
        <pt x="139" y="366" on="0"/>
      </contour>
      <contour>
        <pt x="671" y="435" on="1"/>
        <pt x="671" y="369" on="0"/>
        <pt x="702" y="268" on="0"/>
        <pt x="753" y="200" on="0"/>
        <pt x="817" y="165" on="0"/>
        <pt x="850" y="165" on="1"/>
        <pt x="888" y="165" on="0"/>
        <pt x="953" y="199" on="0"/>
        <pt x="1001" y="277" on="0"/>
        <pt x="1029" y="403" on="0"/>
        <pt x="1029" y="495" on="1"/>
        <pt x="1029" y="587" on="0"/>
        <pt x="1017" y="679" on="1"/>
        <pt x="958" y="723" on="0"/>
        <pt x="878" y="723" on="1"/>
        <pt x="833" y="723" on="0"/>
        <pt x="758" y="693" on="0"/>
        <pt x="702" y="625" on="0"/>
        <pt x="671" y="515" on="0"/>
      </contour>
    </TTGlyph>
    <TTGlyph name="exclam" xMin="180" yMin="-18" xMax="795" yMax="1485">
      <contour>
        <pt x="218" y="1485" on="1"/>
        <pt x="759" y="1485" on="1"/>
        <pt x="759" y="661" on="1"/>
        <pt x="218" y="661" on="1"/>
      </contour>
      <contour>
        <pt x="180" y="210" on="1"/>
        <pt x="180" y="257" on="0"/>
        <pt x="215" y="340" on="0"/>
        <pt x="290" y="401" on="0"/>
        <pt x="406" y="437" on="0"/>
        <pt x="488" y="437" on="1"/>
        <pt x="569" y="437" on="0"/>
        <pt x="686" y="401" on="0"/>
        <pt x="760" y="340" on="0"/>
        <pt x="795" y="257" on="0"/>
        <pt x="795" y="210" on="1"/>
        <pt x="795" y="162" on="0"/>
        <pt x="760" y="79" on="0"/>
        <pt x="686" y="18" on="0"/>
        <pt x="569" y="-18" on="0"/>
        <pt x="488" y="-18" on="1"/>
        <pt x="406" y="-18" on="0"/>
        <pt x="290" y="18" on="0"/>
        <pt x="215" y="79" on="0"/>
        <pt x="180" y="162" on="0"/>
      </contour>
    </TTGlyph>
    <TTGlyph name="exclamdown" xMin="180" yMin="-495" xMax="795" yMax="1008">
      <contour>
        <pt x="488" y="553" on="1"/>
        <pt x="406" y="553" on="0"/>
        <pt x="290" y="588" on="0"/>
        <pt x="215" y="650" on="0"/>
        <pt x="180" y="733" on="0"/>
        <pt x="180" y="780" on="1"/>
        <pt x="180" y="828" on="0"/>
        <pt x="215" y="911" on="0"/>
        <pt x="290" y="972" on="0"/>
        <pt x="406" y="1008" on="0"/>
        <pt x="488" y="1008" on="1"/>
        <pt x="569" y="1008" on="0"/>
        <pt x="686" y="972" on="0"/>
        <pt x="760" y="911" on="0"/>
        <pt x="795" y="828" on="0"/>
        <pt x="795" y="780" on="1"/>
        <pt x="795" y="733" on="0"/>
        <pt x="760" y="650" on="0"/>
        <pt x="686" y="588" on="0"/>
        <pt x="569" y="553" on="0"/>
      </contour>
      <contour>
        <pt x="759" y="329" on="1"/>
        <pt x="759" y="-495" on="1"/>
        <pt x="218" y="-495" on="1"/>
        <pt x="218" y="329" on="1"/>
      </contour>
    </TTGlyph>
    <TTGlyph name="f" xMin="68" yMin="0" xMax="1217" yMax="1666">
      <contour>
        <pt x="178" y="826" on="1"/>
        <pt x="68" y="826" on="1"/>
        <pt x="68" y="991" on="1"/>
        <pt x="178" y="991" on="1"/>
        <pt x="178" y="1095" on="1"/>
        <pt x="178" y="1240" on="0"/>
        <pt x="264" y="1455" on="0"/>
        <pt x="421" y="1596" on="0"/>
        <pt x="643" y="1666" on="0"/>
        <pt x="780" y="1666" on="1"/>
        <pt x="879" y="1666" on="0"/>
        <pt x="1040" y="1625" on="0"/>
        <pt x="1154" y="1553" on="0"/>
        <pt x="1217" y="1456" on="0"/>
        <pt x="1217" y="1400" on="1"/>
        <pt x="1217" y="1347" on="0"/>
        <pt x="1177" y="1265" on="0"/>
        <pt x="1111" y="1207" on="0"/>
        <pt x="1026" y="1177" on="0"/>
        <pt x="981" y="1177" on="1"/>
        <pt x="721" y="1531" on="1"/>
        <pt x="721" y="991" on="1"/>
        <pt x="1011" y="991" on="1"/>
        <pt x="908" y="826" on="1"/>
        <pt x="721" y="826" on="1"/>
        <pt x="721" y="0" on="1"/>
        <pt x="178" y="0" on="1"/>
      </contour>
    </TTGlyph>
    <TTGlyph name="five" xMin="137" yMin="-23" xMax="1410" yMax="1486">
      <contour>
        <pt x="258" y="294" on="1"/>
        <pt x="291" y="277" on="0"/>
        <pt x="365" y="253" on="0"/>
        <pt x="440" y="237" on="0"/>
        <pt x="513" y="229" on="0"/>
        <pt x="545" y="229" on="1"/>
        <pt x="619" y="229" on="0"/>
        <pt x="735" y="268" on="0"/>
        <pt x="816" y="335" on="0"/>
        <pt x="858" y="425" on="0"/>
        <pt x="858" y="476" on="1"/>
        <pt x="858" y="524" on="0"/>
        <pt x="819" y="617" on="0"/>
        <pt x="736" y="689" on="0"/>
        <pt x="608" y="734" on="0"/>
        <pt x="519" y="734" on="1"/>
        <pt x="484" y="734" on="0"/>
        <pt x="408" y="727" on="0"/>
        <pt x="331" y="713" on="0"/>
        <pt x="258" y="695" on="0"/>
        <pt x="225" y="683" on="1"/>
        <pt x="287" y="1486" on="1"/>
        <pt x="1317" y="1486" on="1"/>
        <pt x="1317" y="1114" on="1"/>
        <pt x="505" y="1114" on="1"/>
        <pt x="482" y="869" on="1"/>
        <pt x="522" y="881" on="0"/>
        <pt x="612" y="900" on="0"/>
        <pt x="705" y="913" on="0"/>
        <pt x="798" y="919" on="0"/>
        <pt x="841" y="919" on="1"/>
        <pt x="987" y="919" on="0"/>
        <pt x="1202" y="850" on="0"/>
        <pt x="1342" y="731" on="0"/>
        <pt x="1410" y="569" on="0"/>
        <pt x="1410" y="476" on="1"/>
        <pt x="1410" y="359" on="0"/>
        <pt x="1309" y="174" on="0"/>
        <pt x="1129" y="45" on="0"/>
        <pt x="880" y="-23" on="0"/>
        <pt x="731" y="-23" on="1"/>
        <pt x="642" y="-23" on="0"/>
        <pt x="474" y="1" on="0"/>
        <pt x="322" y="46" on="0"/>
        <pt x="190" y="110" on="0"/>
        <pt x="137" y="150" on="1"/>
      </contour>
    </TTGlyph>
    <TTGlyph name="four" xMin="112" yMin="0" xMax="1586" yMax="1486">
      <contour>
        <pt x="112" y="496" on="1"/>
        <pt x="793" y="1486" on="1"/>
        <pt x="1347" y="1486" on="1"/>
        <pt x="1347" y="496" on="1"/>
        <pt x="1586" y="496" on="1"/>
        <pt x="1586" y="279" on="1"/>
        <pt x="1347" y="279" on="1"/>
        <pt x="1347" y="0" on="1"/>
        <pt x="806" y="0" on="1"/>
        <pt x="806" y="279" on="1"/>
        <pt x="236" y="280" on="1"/>
        <pt x="112" y="280" on="1"/>
      </contour>
      <contour>
        <pt x="806" y="496" on="1"/>
        <pt x="806" y="1153" on="1"/>
        <pt x="377" y="496" on="1"/>
      </contour>
    </TTGlyph>
    <TTGlyph name="g" xMin="75" yMin="-494" xMax="1435" yMax="1452">
      <contour>
        <pt x="122" y="89" on="1"/>
        <pt x="122" y="165" on="0"/>
        <pt x="198" y="307" on="0"/>
        <pt x="266" y="364" on="1"/>
        <pt x="172" y="415" on="0"/>
        <pt x="75" y="558" on="0"/>
        <pt x="75" y="648" on="1"/>
        <pt x="75" y="733" on="0"/>
        <pt x="164" y="868" on="0"/>
        <pt x="332" y="961" on="0"/>
        <pt x="576" y="1010" on="0"/>
        <pt x="731" y="1010" on="1"/>
        <pt x="784" y="1010" on="0"/>
        <pt x="834" y="1007" on="1"/>
        <pt x="834" y="1136" on="1"/>
        <pt x="834" y="1205" on="0"/>
        <pt x="871" y="1321" on="0"/>
        <pt x="945" y="1405" on="0"/>
        <pt x="1058" y="1452" on="0"/>
        <pt x="1134" y="1452" on="1"/>
        <pt x="1204" y="1452" on="0"/>
        <pt x="1315" y="1413" on="0"/>
        <pt x="1392" y="1346" on="0"/>
        <pt x="1432" y="1256" on="0"/>
        <pt x="1432" y="1206" on="1"/>
        <pt x="1432" y="1157" on="0"/>
        <pt x="1397" y="1077" on="0"/>
        <pt x="1341" y="1019" on="0"/>
        <pt x="1274" y="987" on="0"/>
        <pt x="1241" y="987" on="1"/>
        <pt x="1007" y="1302" on="1"/>
        <pt x="1006" y="1301" on="1"/>
        <pt x="1004" y="986" on="1"/>
        <pt x="1189" y="950" on="0"/>
        <pt x="1387" y="777" on="0"/>
        <pt x="1387" y="648" on="1"/>
        <pt x="1387" y="563" on="0"/>
        <pt x="1298" y="424" on="0"/>
        <pt x="1130" y="325" on="0"/>
        <pt x="886" y="271" on="0"/>
        <pt x="731" y="271" on="1"/>
        <pt x="622" y="271" on="0"/>
        <pt x="437" y="297" on="0"/>
        <pt x="362" y="323" on="1"/>
        <pt x="354" y="304" on="0"/>
        <pt x="354" y="279" on="1"/>
        <pt x="354" y="253" on="0"/>
        <pt x="381" y="212" on="0"/>
        <pt x="462" y="184" on="0"/>
        <pt x="609" y="170" on="0"/>
        <pt x="728" y="170" on="1"/>
        <pt x="988" y="170" on="1"/>
        <pt x="1106" y="170" on="0"/>
        <pt x="1275" y="123" on="0"/>
        <pt x="1384" y="41" on="0"/>
        <pt x="1435" y="-68" on="0"/>
        <pt x="1435" y="-129" on="1"/>
        <pt x="1435" y="-209" on="0"/>
        <pt x="1351" y="-343" on="0"/>
        <pt x="1180" y="-440" on="0"/>
        <pt x="920" y="-494" on="0"/>
        <pt x="744" y="-494" on="1"/>
        <pt x="644" y="-494" on="0"/>
        <pt x="457" y="-477" on="0"/>
        <pt x="293" y="-446" on="0"/>
        <pt x="155" y="-403" on="0"/>
        <pt x="103" y="-378" on="1"/>
        <pt x="184" y="-227" on="1"/>
        <pt x="247" y="-256" on="0"/>
        <pt x="373" y="-295" on="0"/>
        <pt x="503" y="-319" on="0"/>
        <pt x="640" y="-329" on="0"/>
        <pt x="714" y="-329" on="1"/>
        <pt x="798" y="-329" on="0"/>
        <pt x="901" y="-315" on="0"/>
        <pt x="956" y="-293" on="0"/>
        <pt x="975" y="-264" on="0"/>
        <pt x="975" y="-249" on="1"/>
        <pt x="975" y="-223" on="0"/>
        <pt x="918" y="-190" on="0"/>
        <pt x="856" y="-189" on="1"/>
        <pt x="543" y="-186" on="1"/>
        <pt x="436" y="-185" on="0"/>
        <pt x="278" y="-144" on="0"/>
        <pt x="173" y="-71" on="0"/>
        <pt x="122" y="29" on="0"/>
      </contour>
      <contour>
        <pt x="731" y="453" on="1"/>
        <pt x="754" y="453" on="0"/>
        <pt x="790" y="471" on="0"/>
        <pt x="815" y="515" on="0"/>
        <pt x="828" y="590" on="0"/>
        <pt x="828" y="647" on="1"/>
        <pt x="828" y="700" on="0"/>
        <pt x="816" y="770" on="0"/>
        <pt x="792" y="811" on="0"/>
        <pt x="755" y="827" on="0"/>
        <pt x="731" y="827" on="1"/>
        <pt x="707" y="827" on="0"/>
        <pt x="670" y="811" on="0"/>
        <pt x="646" y="770" on="0"/>
        <pt x="634" y="700" on="0"/>
        <pt x="634" y="646" on="1"/>
        <pt x="634" y="590" on="0"/>
        <pt x="647" y="515" on="0"/>
        <pt x="672" y="471" on="0"/>
        <pt x="708" y="453" on="0"/>
      </contour>
    </TTGlyph>
    <TTGlyph name="germandbls" xMin="68" yMin="-19" xMax="1783" yMax="1666">
      <contour>
        <pt x="178" y="826" on="1"/>
        <pt x="68" y="826" on="1"/>
        <pt x="68" y="991" on="1"/>
        <pt x="178" y="991" on="1"/>
        <pt x="178" y="1095" on="1"/>
        <pt x="178" y="1240" on="0"/>
        <pt x="265" y="1455" on="0"/>
        <pt x="424" y="1596" on="0"/>
        <pt x="646" y="1666" on="0"/>
        <pt x="780" y="1666" on="1"/>
        <pt x="948" y="1666" on="0"/>
        <pt x="1212" y="1609" on="0"/>
        <pt x="1393" y="1509" on="0"/>
        <pt x="1489" y="1374" on="0"/>
        <pt x="1489" y="1296" on="1"/>
        <pt x="1489" y="1238" on="0"/>
        <pt x="1444" y="1144" on="0"/>
        <pt x="1389" y="1061" on="0"/>
        <pt x="1344" y="983" on="0"/>
        <pt x="1344" y="941" on="1"/>
        <pt x="1344" y="885" on="0"/>
        <pt x="1402" y="810" on="0"/>
        <pt x="1461" y="773" on="1"/>
        <pt x="1532" y="724" on="1"/>
        <pt x="1608" y="671" on="0"/>
        <pt x="1705" y="578" on="0"/>
        <pt x="1761" y="489" on="0"/>
        <pt x="1783" y="401" on="0"/>
        <pt x="1783" y="354" on="1"/>
        <pt x="1783" y="281" on="0"/>
        <pt x="1717" y="146" on="0"/>
        <pt x="1580" y="43" on="0"/>
        <pt x="1368" y="-19" on="0"/>
        <pt x="1222" y="-19" on="1"/>
        <pt x="1159" y="-19" on="0"/>
        <pt x="1047" y="-11" on="0"/>
        <pt x="944" y="6" on="0"/>
        <pt x="848" y="33" on="0"/>
        <pt x="801" y="53" on="1"/>
        <pt x="905" y="232" on="1"/>
        <pt x="977" y="196" on="0"/>
        <pt x="1092" y="160" on="0"/>
        <pt x="1145" y="160" on="1"/>
        <pt x="1207" y="160" on="0"/>
        <pt x="1254" y="200" on="0"/>
        <pt x="1254" y="231" on="1"/>
        <pt x="1254" y="247" on="0"/>
        <pt x="1239" y="276" on="0"/>
        <pt x="1204" y="309" on="0"/>
        <pt x="1149" y="349" on="0"/>
        <pt x="1109" y="376" on="1"/>
        <pt x="1015" y="439" on="1"/>
        <pt x="961" y="476" on="0"/>
        <pt x="881" y="548" on="0"/>
        <pt x="830" y="624" on="0"/>
        <pt x="805" y="710" on="0"/>
        <pt x="805" y="762" on="1"/>
        <pt x="805" y="826" on="0"/>
        <pt x="843" y="923" on="0"/>
        <pt x="901" y="1003" on="0"/>
        <pt x="968" y="1073" on="0"/>
        <pt x="1026" y="1149" on="0"/>
        <pt x="1064" y="1235" on="0"/>
        <pt x="1064" y="1292" on="1"/>
        <pt x="1064" y="1344" on="0"/>
        <pt x="1018" y="1431" on="0"/>
        <pt x="929" y="1495" on="0"/>
        <pt x="802" y="1531" on="0"/>
        <pt x="721" y="1531" on="1"/>
        <pt x="721" y="0" on="1"/>
        <pt x="178" y="0" on="1"/>
      </contour>
    </TTGlyph>
    <TTGlyph name="grave" xMin="120" yMin="1172" xMax="833" yMax="1586">
      <contour>
        <pt x="768" y="1172" on="1"/>
        <pt x="686" y="1182" on="0"/>
        <pt x="506" y="1226" on="0"/>
        <pt x="333" y="1286" on="0"/>
        <pt x="178" y="1360" on="0"/>
        <pt x="120" y="1399" on="1"/>
        <pt x="274" y="1586" on="1"/>
        <pt x="389" y="1500" on="0"/>
        <pt x="661" y="1349" on="0"/>
        <pt x="833" y="1286" on="1"/>
        <pt x="768" y="1172" on="1"/>
      </contour>
    </TTGlyph>
    <TTGlyph name="grave.cap" xMin="120" yMin="1571" xMax="833" yMax="1920">
      <contour>
        <pt x="274" y="1920" on="1"/>
        <pt x="327" y="1882" on="0"/>
        <pt x="466" y="1810" on="0"/>
        <pt x="616" y="1748" on="0"/>
        <pt x="767" y="1699" on="0"/>
        <pt x="833" y="1684" on="1"/>
        <pt x="768" y="1571" on="1"/>
        <pt x="590" y="1582" on="0"/>
        <pt x="259" y="1663" on="0"/>
        <pt x="120" y="1732" on="1"/>
      </contour>
    </TTGlyph>
    <TTGlyph name="greater" xMin="175" yMin="155" xMax="911" yMax="1167">
      <contour>
        <pt x="175" y="309" on="1"/>
        <pt x="614" y="661" on="1"/>
        <pt x="175" y="1013" on="1"/>
        <pt x="297" y="1167" on="1"/>
        <pt x="911" y="661" on="1"/>
        <pt x="297" y="155" on="1"/>
      </contour>
    </TTGlyph>
    <TTGlyph name="guillemotleft" xMin="140" yMin="208" xMax="1409" yMax="1010">
      <contour>
        <pt x="1232" y="1010" on="1"/>
        <pt x="1409" y="845" on="1"/>
        <pt x="1156" y="609" on="1"/>
        <pt x="1409" y="373" on="1"/>
        <pt x="1232" y="208" on="1"/>
        <pt x="803" y="609" on="1"/>
      </contour>
      <contour>
        <pt x="140" y="609" on="1"/>
        <pt x="569" y="1010" on="1"/>
        <pt x="746" y="845" on="1"/>
        <pt x="493" y="609" on="1"/>
        <pt x="746" y="373" on="1"/>
        <pt x="569" y="208" on="1"/>
      </contour>
    </TTGlyph>
    <TTGlyph name="guillemotright" xMin="82" yMin="208" xMax="1351" yMax="1010">
      <contour>
        <pt x="998" y="609" on="1"/>
        <pt x="745" y="845" on="1"/>
        <pt x="922" y="1010" on="1"/>
        <pt x="1351" y="609" on="1"/>
        <pt x="922" y="208" on="1"/>
        <pt x="745" y="373" on="1"/>
      </contour>
      <contour>
        <pt x="82" y="373" on="1"/>
        <pt x="335" y="609" on="1"/>
        <pt x="82" y="845" on="1"/>
        <pt x="259" y="1010" on="1"/>
        <pt x="688" y="609" on="1"/>
        <pt x="259" y="208" on="1"/>
      </contour>
    </TTGlyph>
    <TTGlyph name="guilsinglleft" xMin="140" yMin="208" xMax="746" yMax="1010">
      <contour>
        <pt x="140" y="609" on="1"/>
        <pt x="569" y="1010" on="1"/>
        <pt x="746" y="845" on="1"/>
        <pt x="493" y="609" on="1"/>
        <pt x="746" y="373" on="1"/>
        <pt x="569" y="208" on="1"/>
      </contour>
    </TTGlyph>
    <TTGlyph name="guilsinglright" xMin="177" yMin="208" xMax="783" yMax="1010">
      <contour>
        <pt x="177" y="373" on="1"/>
        <pt x="430" y="609" on="1"/>
        <pt x="177" y="845" on="1"/>
        <pt x="354" y="1010" on="1"/>
        <pt x="783" y="609" on="1"/>
        <pt x="354" y="208" on="1"/>
      </contour>
    </TTGlyph>
    <TTGlyph name="h" xMin="140" yMin="0" xMax="1485" yMax="1651">
      <contour>
        <pt x="140" y="1651" on="1"/>
        <pt x="683" y="1651" on="1"/>
        <pt x="683" y="832" on="1"/>
        <pt x="795" y="913" on="0"/>
        <pt x="1030" y="1010" on="0"/>
        <pt x="1159" y="1010" on="1"/>
        <pt x="1228" y="1010" on="0"/>
        <pt x="1347" y="964" on="0"/>
        <pt x="1435" y="868" on="0"/>
        <pt x="1485" y="717" on="0"/>
        <pt x="1485" y="612" on="1"/>
        <pt x="1485" y="0" on="1"/>
        <pt x="942" y="0" on="1"/>
        <pt x="942" y="646" on="1"/>
        <pt x="942" y="698" on="0"/>
        <pt x="897" y="746" on="0"/>
        <pt x="846" y="746" on="1"/>
        <pt x="823" y="746" on="0"/>
        <pt x="778" y="732" on="0"/>
        <pt x="736" y="710" on="0"/>
        <pt x="698" y="682" on="0"/>
        <pt x="683" y="668" on="1"/>
        <pt x="683" y="0" on="1"/>
        <pt x="140" y="0" on="1"/>
      </contour>
    </TTGlyph>
    <TTGlyph name="hbar" xMin="43" yMin="0" xMax="1492" yMax="1651">
      <contour>
        <pt x="147" y="1227" on="1"/>
        <pt x="43" y="1227" on="1"/>
        <pt x="43" y="1416" on="1"/>
        <pt x="147" y="1416" on="1"/>
        <pt x="147" y="1651" on="1"/>
        <pt x="690" y="1651" on="1"/>
        <pt x="690" y="1416" on="1"/>
        <pt x="933" y="1416" on="1"/>
        <pt x="933" y="1227" on="1"/>
        <pt x="690" y="1227" on="1"/>
        <pt x="690" y="832" on="1"/>
        <pt x="802" y="913" on="0"/>
        <pt x="1037" y="1010" on="0"/>
        <pt x="1166" y="1010" on="1"/>
        <pt x="1235" y="1010" on="0"/>
        <pt x="1354" y="964" on="0"/>
        <pt x="1442" y="868" on="0"/>
        <pt x="1492" y="717" on="0"/>
        <pt x="1492" y="612" on="1"/>
        <pt x="1492" y="0" on="1"/>
        <pt x="949" y="0" on="1"/>
        <pt x="949" y="646" on="1"/>
        <pt x="949" y="698" on="0"/>
        <pt x="904" y="746" on="0"/>
        <pt x="853" y="746" on="1"/>
        <pt x="830" y="746" on="0"/>
        <pt x="785" y="732" on="0"/>
        <pt x="743" y="710" on="0"/>
        <pt x="705" y="682" on="0"/>
        <pt x="690" y="668" on="1"/>
        <pt x="690" y="0" on="1"/>
        <pt x="147" y="0" on="1"/>
      </contour>
    </TTGlyph>
    <TTGlyph name="hyphen" xMin="160" yMin="494" xMax="847" yMax="682">
      <contour>
        <pt x="160" y="682" on="1"/>
        <pt x="847" y="682" on="1"/>
        <pt x="847" y="494" on="1"/>
        <pt x="160" y="494" on="1"/>
      </contour>
    </TTGlyph>
    <TTGlyph name="i" xMin="130" yMin="0" xMax="693" yMax="1572">
      <contour>
        <pt x="411" y="1156" on="1"/>
        <pt x="337" y="1156" on="0"/>
        <pt x="230" y="1188" on="0"/>
        <pt x="162" y="1245" on="0"/>
        <pt x="130" y="1320" on="0"/>
        <pt x="130" y="1364" on="1"/>
        <pt x="130" y="1407" on="0"/>
        <pt x="162" y="1483" on="0"/>
        <pt x="230" y="1540" on="0"/>
        <pt x="337" y="1572" on="0"/>
        <pt x="411" y="1572" on="1"/>
        <pt x="486" y="1572" on="0"/>
        <pt x="592" y="1540" on="0"/>
        <pt x="661" y="1483" on="0"/>
        <pt x="693" y="1407" on="0"/>
        <pt x="693" y="1364" on="1"/>
        <pt x="693" y="1320" on="0"/>
        <pt x="661" y="1245" on="0"/>
        <pt x="592" y="1188" on="0"/>
        <pt x="486" y="1156" on="0"/>
      </contour>
      <contour>
        <pt x="140" y="991" on="1"/>
        <pt x="683" y="991" on="1"/>
        <pt x="683" y="0" on="1"/>
        <pt x="140" y="0" on="1"/>
      </contour>
    </TTGlyph>
</ttFont>
